<?xml version="1.0" encoding="UTF-8" standalone="no"?>
<svg
   xmlns:dc="http://purl.org/dc/elements/1.1/"
   xmlns:cc="http://creativecommons.org/ns#"
   xmlns:rdf="http://www.w3.org/1999/02/22-rdf-syntax-ns#"
   xmlns:svg="http://www.w3.org/2000/svg"
   xmlns="http://www.w3.org/2000/svg"
   xmlns:sodipodi="http://sodipodi.sourceforge.net/DTD/sodipodi-0.dtd"
   xmlns:inkscape="http://www.inkscape.org/namespaces/inkscape"
   width="24px"
   height="24px"
   viewBox="0 0 24 24"
   version="1.1"
   id="svg781"
   sodipodi:docname="bg-multi-number-dark.svg"
   inkscape:version="0.92.3 (2405546, 2018-03-11)">
  <metadata
     id="metadata787">
    <rdf:RDF>
      <cc:Work
         rdf:about="">
        <dc:format>image/svg+xml</dc:format>
        <dc:type
           rdf:resource="http://purl.org/dc/dcmitype/StillImage" />
        <dc:title>Top BarTheme Copy</dc:title>
      </cc:Work>
    </rdf:RDF>
  </metadata>
  <defs
     id="defs785" />
  <sodipodi:namedview
     pagecolor="#ffffff"
     bordercolor="#666666"
     borderopacity="1"
     objecttolerance="10"
     gridtolerance="10"
     guidetolerance="10"
     inkscape:pageopacity="0"
     inkscape:pageshadow="2"
     inkscape:window-width="1449"
     inkscape:window-height="845"
     id="namedview783"
     showgrid="false"
     inkscape:zoom="9.8333333"
     inkscape:cx="-20.135593"
     inkscape:cy="12"
     inkscape:window-x="67"
     inkscape:window-y="27"
     inkscape:window-maximized="0"
     inkscape:current-layer="svg781" />
  <!-- Generator: Sketch 52.6 (67491) - http://www.bohemiancoding.com/sketch -->
  <title
     id="title774">Top BarTheme Copy</title>
  <desc
     id="desc776">Created with Sketch.</desc>
  <g
     id="Top-BarTheme-Copy"
     stroke="none"
     stroke-width="1"
     fill="none"
     fill-rule="evenodd">
    <circle
       id="Oval"
       fill="#0F0B16"
       fill-rule="nonzero"
       cx="12"
       cy="12"
       r="12" />
    <path
       d="M12,3 C7.02943725,3 3,7.02943725 3,12 C3,16.9705627 7.02943725,21 12,21 C16.9705627,21 21,16.9705627 21,12 C21,9.61305159 20.0517884,7.32386638 18.363961,5.63603897 C16.6761336,3.94821156 14.3869484,3 12,3 Z"
       id="Path_18926"
       stroke="#B088FF"
       stroke-width="1.5"
       fill="#0F0B16"
       fill-rule="nonzero" />
  </g>
  <path
     style="fill:#88aa00;fill-opacity:1;stroke-width:0.10169491"
     d="M 10.352568,21.564954 C 9.4269032,21.411655 7.8595585,20.82334 6.9725571,20.296242 5.8511597,19.629853 4.3701465,18.148841 3.7037587,17.027443 3.1537506,16.101889 2.5877101,14.559821 2.4257528,13.545763 2.1540599,11.84462 2.4026072,9.7854487 3.0643917,8.2547509 3.6052989,7.0036404 4.0164688,6.3797993 4.952045,5.3907382 6.3403569,3.9230596 7.8884673,3.0212429 9.8440678,2.541001 11.138776,2.223056 13.007392,2.2490115 14.369492,2.6038602 c 3.459799,0.9013328 6.127802,3.5696149 7.025912,7.0266483 0.213604,0.8222105 0.26522,1.2603725 0.269548,2.2881355 0.0117,2.780411 -0.849706,4.880071 -2.820884,6.875809 -1.476726,1.495125 -3.058128,2.35383 -5.019709,2.725715 -0.915347,0.173536 -2.565806,0.194827 -3.471791,0.04479 z m 4.016924,-1.609912 c 2.793635,-0.887668 4.909911,-3.085346 5.662336,-5.880136 0.299371,-1.111982 0.295839,-3.009665 -0.0077,-4.1393128 C 19.226214,6.9661539 17.033846,4.7737866 14.064407,3.9758769 12.934758,3.6723323 11.037076,3.6688002 9.9250939,3.9681725 7.1300249,4.720672 4.9289556,6.840524 4.0458184,9.6305085 3.7047253,10.708081 3.6499091,12.692966 3.9289942,13.860695 c 0.3739152,1.564508 1.0062863,2.712687 2.1419375,3.889059 1.1202846,1.160453 2.4180568,1.915777 3.9683793,2.309658 1.087344,0.276254 3.300147,0.222919 4.330181,-0.10437 z"
     id="path789"
     inkscape:connector-curvature="0" />
  <path
     style="fill:#ffffff;stroke-width:0.10169491"
     d="M 10.199987,21.502632 C 5.281222,20.453804 1.9285223,15.965561 2.4279971,11.098305 2.6791192,8.6511837 3.5642883,6.8278389 5.3331808,5.1139658 6.6043269,3.8823573 7.8821157,3.1453569 9.6406779,2.6294966 10.668716,2.3279297 13.250512,2.3470529 14.413543,2.6648489 c 1.790403,0.4892242 3.134878,1.2875035 4.481372,2.6608044 1.039819,1.0605191 1.729396,2.1706251 2.197334,3.5373388 0.442516,1.2924639 0.587116,2.3457689 0.507875,3.6995069 -0.146017,2.494531 -1.027537,4.424479 -2.85216,6.244347 -1.310208,1.306795 -2.615953,2.071687 -4.327625,2.535076 -0.746219,0.202019 -3.529559,0.308008 -4.220352,0.16071 z m 4.016962,-1.471027 c 1.49826,-0.41033 3.270722,-1.586079 4.266747,-2.830316 0.609241,-0.761065 1.360083,-2.233107 1.568901,-3.075865 C 21.018969,10.225287 19.165708,6.2336301 15.58983,4.5132665 14.28052,3.8833541 13.676065,3.7590601 11.928814,3.7604519 10.477043,3.7616082 10.357476,3.7774769 9.4524819,4.0891019 8.1021422,4.5540771 7.1939369,5.1210277 6.1741873,6.1355901 5.1893208,7.1154467 4.5744194,8.0707029 4.1161393,9.33279 c -0.2664014,0.73366 -0.3056151,0.992941 -0.3489902,2.307525 -0.042234,1.280001 -0.019545,1.596942 0.1671859,2.335361 0.3800303,1.502816 0.9820134,2.58163 2.0903429,3.746105 1.2420334,1.304952 2.77322,2.159349 4.4054971,2.458253 0.69578,0.127411 3.127629,0.03209 3.786774,-0.148429 z"
     id="path817"
     inkscape:connector-curvature="0" />
  <path
     style="fill:#ffffff;stroke-width:0.10169491"
     d="M 10.047458,23.787935 C 6.4502805,23.173887 3.4014517,21.019304 1.5618484,17.791219 0.98576331,16.780321 0.55219481,15.586463 0.27672696,14.252557 -0.02391107,12.796767 0.03958577,10.523442 0.42171604,9.0616309 2.079331,2.7205487 8.4729009,-1.1371623 14.78966,0.39239336 21.246312,1.9558232 25.221293,8.5281387 23.577921,14.923088 c -0.679507,2.64421 -2.303241,5.049638 -4.523711,6.701505 -2.495487,1.85646 -5.947403,2.68558 -9.006752,2.163342 z m 4.144624,-2.235422 c 2.822651,-0.682431 5.261784,-2.601937 6.530113,-5.138954 0.747162,-1.494535 1.029905,-2.721425 1.028321,-4.462134 C 21.748522,9.7597768 21.06725,7.7360486 19.763112,6.0478154 15.864891,1.0014867 8.2930892,0.93757545 4.3356486,5.917597 3.6219246,6.8157434 2.8011648,8.4433855 2.5043893,9.5491526 2.2127817,10.635665 2.1838381,13.15121 2.4507259,14.213167 c 0.9768269,3.886837 3.9455011,6.690076 7.8753691,7.4365 0.952204,0.180857 2.920696,0.131389 3.865987,-0.09715 z"
     id="path818"
     inkscape:connector-curvature="0" />
  <path
     style="fill:#ffffff;stroke-width:0.10169491"
     d="M 10.461883,20.065702 C 7.3664964,19.458399 4.7759562,16.989698 4.0480901,13.953564 3.7722981,12.80316 3.7716005,11.140906 4.046451,10.048471 4.3111752,8.9962846 5.022852,7.5752716 5.6890626,6.76865 c 1.0158967,-1.2300079 2.684944,-2.2981991 4.2567,-2.7242907 1.0284104,-0.2787947 3.1670414,-0.2582535 4.1999164,0.04034 2.903279,0.8393062 5.065016,3.055445 5.826303,5.9729277 0.268016,1.027116 0.246669,2.9771 -0.04436,4.052561 -0.792477,2.928467 -3.301556,5.302889 -6.240282,5.905381 -0.835705,0.171333 -2.477626,0.196855 -3.225455,0.05013 z"
     id="path820"
     inkscape:connector-curvature="0" />
</svg>
