<?xml version="1.0" encoding="UTF-8" standalone="no"?>
<svg
   xmlns:dc="http://purl.org/dc/elements/1.1/"
   xmlns:cc="http://creativecommons.org/ns#"
   xmlns:rdf="http://www.w3.org/1999/02/22-rdf-syntax-ns#"
   xmlns:svg="http://www.w3.org/2000/svg"
   xmlns="http://www.w3.org/2000/svg"
   xmlns:sodipodi="http://sodipodi.sourceforge.net/DTD/sodipodi-0.dtd"
   xmlns:inkscape="http://www.inkscape.org/namespaces/inkscape"
   width="24px"
   height="24px"
   viewBox="0 0 24 24"
   version="1.1"
   id="svg9"
   sodipodi:docname="bg-multi-number.svg"
   inkscape:version="0.92.4 (5da689c313, 2019-01-14)">
  <metadata
     id="metadata15">
    <rdf:RDF>
      <cc:Work
         rdf:about="">
        <dc:format>image/svg+xml</dc:format>
        <dc:type
           rdf:resource="http://purl.org/dc/dcmitype/StillImage" />
      </cc:Work>
    </rdf:RDF>
  </metadata>
  <defs
     id="defs13" />
  <sodipodi:namedview
     pagecolor="#ffffff"
     bordercolor="#666666"
     borderopacity="1"
     objecttolerance="10"
     gridtolerance="10"
     guidetolerance="10"
     inkscape:pageopacity="0"
     inkscape:pageshadow="2"
     inkscape:window-width="2116"
     inkscape:window-height="1263"
     id="namedview11"
     showgrid="false"
     inkscape:zoom="9.8333333"
     inkscape:cx="12"
     inkscape:cy="12"
     inkscape:window-x="0"
     inkscape:window-y="0"
     inkscape:window-maximized="0"
     inkscape:current-layer="svg9" />
  <!-- Generator: Sketch 52.6 (67491) - http://www.bohemiancoding.com/sketch -->
  <title
     id="title2">Top BarTheme Copy</title>
  <desc
     id="desc4">Created with Sketch.</desc>
  <g
     id="Top-BarTheme-Copy"
     stroke="none"
     stroke-width="1"
     fill="none"
     fill-rule="evenodd">
    <circle
       id="Oval"
       fill="#FFFFFF"
       fill-rule="nonzero"
       cx="12"
       cy="12"
       r="12" />
    <path
       d="M12,3 C7.02943725,3 3,7.02943725 3,12 C3,16.9705627 7.02943725,21 12,21 C16.9705627,21 21,16.9705627 21,12 C21,9.61305159 20.0517884,7.32386638 18.363961,5.63603897 C16.6761336,3.94821156 14.3869484,3 12,3 Z"
       id="Path_18926"
       stroke="#55476C"
       stroke-width="1.5"
       fill="#FFFFFF"
       fill-rule="nonzero" />
  </g>
  <path
     style="fill:#88aa00;fill-opacity:1;stroke-width:0.10169491"
     d="M 10.888856,21.641848 C 7.2913205,21.195406 4.1852459,18.761278 2.9184459,15.3957 2.4898169,14.256938 2.3360031,13.359691 2.3328392,11.979661 2.3265185,9.2227202 3.3412321,6.8907213 5.3907382,4.952045 6.3797993,4.0164688 7.0036404,3.6052989 8.2547509,3.0643917 9.7854487,2.4026072 11.84462,2.1540599 13.545763,2.4257528 c 1.014058,0.1619573 2.556126,0.7279978 3.48168,1.2780059 1.121398,0.6663878 2.60241,2.147401 3.268799,3.2687984 1.8485,3.1106569 1.84877,6.8616099 7.12e-4,10.0410019 -0.611221,1.051546 -2.222772,2.666241 -3.277969,3.284362 -1.862353,1.090945 -4.141798,1.590674 -6.130137,1.343927 z m 3.200108,-1.624166 c 2.74082,-0.700983 4.982584,-2.859796 5.865218,-5.64819 0.341093,-1.077573 0.395909,-3.062458 0.116824,-4.230186 C 19.697091,8.5747974 19.064719,7.4266176 17.929068,6.2502463 16.77182,5.0515036 15.484715,4.3171326 13.860695,3.9289942 12.692966,3.6499091 10.708081,3.7047253 9.6305085,4.0458184 6.8403795,4.9290013 4.719434,7.13134 3.9685169,9.9250939 c -0.3015646,1.1219581 -0.2991771,3.0175291 0.00521,4.1393131 1.0485317,3.864196 4.4826494,6.392414 8.4165981,6.19635 0.511122,-0.02547 1.275508,-0.134857 1.698635,-0.243075 z"
     id="path17"
     inkscape:connector-curvature="0" />
</svg>
