<?xml version="1.0" encoding="UTF-8" standalone="no"?>
<svg
   xmlns:dc="http://purl.org/dc/elements/1.1/"
   xmlns:cc="http://creativecommons.org/ns#"
   xmlns:rdf="http://www.w3.org/1999/02/22-rdf-syntax-ns#"
   xmlns:svg="http://www.w3.org/2000/svg"
   xmlns="http://www.w3.org/2000/svg"
   xmlns:sodipodi="http://sodipodi.sourceforge.net/DTD/sodipodi-0.dtd"
   xmlns:inkscape="http://www.inkscape.org/namespaces/inkscape"
   width="24px"
   height="24px"
   viewBox="0 0 24 24"
   version="1.1"
   id="svg781"
   sodipodi:docname="bg-multi-number-dark.svg"
   inkscape:version="0.92.4 (5da689c313, 2019-01-14)">
  <metadata
     id="metadata787">
    <rdf:RDF>
      <cc:Work
         rdf:about="">
        <dc:format>image/svg+xml</dc:format>
        <dc:type
           rdf:resource="http://purl.org/dc/dcmitype/StillImage" />
        <dc:title>Top BarTheme Copy</dc:title>
      </cc:Work>
    </rdf:RDF>
  </metadata>
  <defs
     id="defs785" />
  <sodipodi:namedview
     pagecolor="#ffffff"
     bordercolor="#666666"
     borderopacity="1"
     objecttolerance="10"
     gridtolerance="10"
     guidetolerance="10"
     inkscape:pageopacity="0"
     inkscape:pageshadow="2"
     inkscape:window-width="1449"
     inkscape:window-height="845"
     id="namedview783"
     showgrid="false"
     inkscape:zoom="9.8333333"
     inkscape:cx="12"
     inkscape:cy="12"
     inkscape:window-x="0"
     inkscape:window-y="0"
     inkscape:window-maximized="0"
     inkscape:current-layer="svg781" />
  <!-- Generator: Sketch 52.6 (67491) - http://www.bohemiancoding.com/sketch -->
  <title
     id="title774">Top BarTheme Copy</title>
  <desc
     id="desc776">Created with Sketch.</desc>
  <g
     id="Top-BarTheme-Copy"
     stroke="none"
     stroke-width="1"
     fill="none"
     fill-rule="evenodd">
    <circle
       id="Oval"
       fill="#0F0B16"
       fill-rule="nonzero"
       cx="12"
       cy="12"
       r="12" />
    <path
       d="M12,3 C7.02943725,3 3,7.02943725 3,12 C3,16.9705627 7.02943725,21 12,21 C16.9705627,21 21,16.9705627 21,12 C21,9.61305159 20.0517884,7.32386638 18.363961,5.63603897 C16.6761336,3.94821156 14.3869484,3 12,3 Z"
       id="Path_18926"
       stroke="#B088FF"
       stroke-width="1.5"
       fill="#0F0B16"
       fill-rule="nonzero" />
  </g>
  <path
     style="fill:#88aa00;fill-opacity:1;stroke-width:0.10169491"
     d="M 10.352568,21.564954 C 9.4269032,21.411655 7.8595585,20.82334 6.9725571,20.296242 5.8511597,19.629853 4.3701465,18.148841 3.7037587,17.027443 3.1537506,16.101889 2.5877101,14.559821 2.4257528,13.545763 2.1540599,11.84462 2.4026072,9.7854487 3.0643917,8.2547509 3.6052989,7.0036404 4.0164688,6.3797993 4.952045,5.3907382 6.3403569,3.9230596 7.8884673,3.0212429 9.8440678,2.541001 11.138776,2.223056 13.007392,2.2490115 14.369492,2.6038602 c 3.459799,0.9013328 6.127802,3.5696149 7.025912,7.0266483 0.213604,0.8222105 0.26522,1.2603725 0.269548,2.2881355 0.0117,2.780411 -0.849706,4.880071 -2.820884,6.875809 -1.476726,1.495125 -3.058128,2.35383 -5.019709,2.725715 -0.915347,0.173536 -2.565806,0.194827 -3.471791,0.04479 z m 4.016924,-1.609912 c 2.793635,-0.887668 4.909911,-3.085346 5.662336,-5.880136 0.299371,-1.111982 0.295839,-3.009665 -0.0077,-4.1393128 C 19.226214,6.9661539 17.033846,4.7737866 14.064407,3.9758769 12.934758,3.6723323 11.037076,3.6688002 9.9250939,3.9681725 7.1300249,4.720672 4.9289556,6.840524 4.0458184,9.6305085 3.7047253,10.708081 3.6499091,12.692966 3.9289942,13.860695 c 0.3739152,1.564508 1.0062863,2.712687 2.1419375,3.889059 1.1202846,1.160453 2.4180568,1.915777 3.9683793,2.309658 1.087344,0.276254 3.300147,0.222919 4.330181,-0.10437 z"
     id="path789"
     inkscape:connector-curvature="0" />
</svg>
