<?xml version="1.0" encoding="UTF-8" standalone="no"?>
<svg
   xmlns:dc="http://purl.org/dc/elements/1.1/"
   xmlns:cc="http://creativecommons.org/ns#"
   xmlns:rdf="http://www.w3.org/1999/02/22-rdf-syntax-ns#"
   xmlns:svg="http://www.w3.org/2000/svg"
   xmlns="http://www.w3.org/2000/svg"
   xmlns:sodipodi="http://sodipodi.sourceforge.net/DTD/sodipodi-0.dtd"
   xmlns:inkscape="http://www.inkscape.org/namespaces/inkscape"
   width="30px"
   height="22px"
   viewBox="0 0 30 22"
   version="1.1"
   id="svg10"
   sodipodi:docname="ic-add-purple.svg"
   inkscape:version="0.92.3 (2405546, 2018-03-11)">
  <metadata
     id="metadata16">
    <rdf:RDF>
      <cc:Work
         rdf:about="">
        <dc:format>image/svg+xml</dc:format>
        <dc:type
           rdf:resource="http://purl.org/dc/dcmitype/StillImage" />
      </cc:Work>
    </rdf:RDF>
  </metadata>
  <defs
     id="defs14" />
  <sodipodi:namedview
     pagecolor="#ffffff"
     bordercolor="#666666"
     borderopacity="1"
     objecttolerance="10"
     gridtolerance="10"
     guidetolerance="10"
     inkscape:pageopacity="0"
     inkscape:pageshadow="2"
     inkscape:window-width="1849"
     inkscape:window-height="1047"
     id="namedview12"
     showgrid="false"
     inkscape:zoom="10.727273"
     inkscape:cx="15"
     inkscape:cy="11"
     inkscape:window-x="67"
     inkscape:window-y="27"
     inkscape:window-maximized="0"
     inkscape:current-layer="svg10" />
  <!-- Generator: Sketch 52.6 (67491) - http://www.bohemiancoding.com/sketch -->
  <title
     id="title2">Add purple</title>
  <desc
     id="desc4">Created with Sketch.</desc>
  <g
     id="Add-purple"
     stroke="none"
     stroke-width="1"
     fill="none"
     fill-rule="evenodd">
    <g
       id="ic-add-purple"
       transform="translate(5.000000, 3.000000)">
      <polygon
         id="Path_18951"
         fill="#5C4B7D"
         points="14 7 9 7 9 2 7 2 7 7 2 7 2 9 7 9 7 14 9 14 9 9 14 9" />
      <polygon
         id="Rectangle_4603"
         points="0 0 16 0 16 16 0 16" />
    </g>
  </g>
  <path
     style="fill:#445500;stroke-width:0.09322034"
     d="m 12.013811,14.453814 -0.02483,-2.493645 -2.493644,-0.02483 -2.4936441,-0.02483 v -0.930681 -0.93068 H 9.5186441 12.035593 V 7.5322034 5.0152542 h 0.978814 0.978813 v 2.5169492 2.5169496 h 2.470339 2.470339 v 0.932203 0.932203 H 16.463559 13.99322 v 2.516949 2.51695 h -0.977291 -0.977291 z"
     id="path823"
     inkscape:connector-curvature="0" />
</svg>
