<?xml version="1.0" encoding="UTF-8" standalone="no"?>
<svg
   xmlns:dc="http://purl.org/dc/elements/1.1/"
   xmlns:cc="http://creativecommons.org/ns#"
   xmlns:rdf="http://www.w3.org/1999/02/22-rdf-syntax-ns#"
   xmlns:svg="http://www.w3.org/2000/svg"
   xmlns="http://www.w3.org/2000/svg"
   xmlns:sodipodi="http://sodipodi.sourceforge.net/DTD/sodipodi-0.dtd"
   xmlns:inkscape="http://www.inkscape.org/namespaces/inkscape"
   width="24"
   height="24"
   viewBox="0 0 24 24"
   version="1.1"
   id="svg10"
   sodipodi:docname="ic-arrow-drop-up-purple.svg"
   inkscape:version="0.92.3 (2405546, 2018-03-11)">
  <metadata
     id="metadata14">
    <rdf:RDF>
      <cc:Work
         rdf:about="">
        <dc:format>image/svg+xml</dc:format>
        <dc:type
           rdf:resource="http://purl.org/dc/dcmitype/StillImage" />
      </cc:Work>
    </rdf:RDF>
  </metadata>
  <sodipodi:namedview
     pagecolor="#ffffff"
     bordercolor="#666666"
     borderopacity="1"
     objecttolerance="10"
     gridtolerance="10"
     guidetolerance="10"
     inkscape:pageopacity="0"
     inkscape:pageshadow="2"
     inkscape:window-width="1804"
     inkscape:window-height="1053"
     id="namedview12"
     showgrid="false"
     inkscape:zoom="9.8333333"
     inkscape:cx="12"
     inkscape:cy="12"
     inkscape:window-x="67"
     inkscape:window-y="27"
     inkscape:window-maximized="0"
     inkscape:current-layer="svg10" />
  <defs
     id="defs4">
    <style
       type="text/css"
       id="style2">
            .cls-1{fill:#5C4B7D}.cls-2{fill:none}
        </style>
  </defs>
  <g
     id="ic_arrow_drop_up"
     transform="rotate(180 12 12)">
    <g
       id="Group_8822"
       data-name="Group 8822">
      <path
         id="Path_18879"
         d="M12 16.365L4.319 9.233l1.362-1.466L12 13.635l6.319-5.868 1.361 1.466z"
         class="cls-1"
         data-name="Path 18879" />
    </g>
    <path
       id="Rectangle_4407"
       d="M0 0h24v24H0z"
       class="cls-2"
       data-name="Rectangle 4407" />
  </g>
  <path
     style="fill:#445500;stroke-width:0.10169491"
     d="M 5.0271429,15.460067 4.3928008,14.760214 8.1533791,11.269937 C 10.221697,9.3502854 11.95317,7.779661 12.001097,7.779661 c 0.130068,0 7.543411,6.898229 7.544085,7.019887 3.05e-4,0.05755 -0.285436,0.384467 -0.635013,0.726486 l -0.635593,0.621853 -3.100033,-2.887503 c -1.705019,-1.588126 -3.135371,-2.887503 -3.178561,-2.887503 -0.04319,0 -1.393938,1.220567 -3.0016615,2.712371 -1.6077238,1.491804 -3.0153168,2.793888 -3.1279847,2.89352 -0.2001166,0.176963 -0.2195104,0.164976 -0.8391929,-0.518705 z"
     id="path821"
     inkscape:connector-curvature="0" />
</svg>
