<?xml version="1.0" encoding="UTF-8" standalone="no"?>
<svg
   xmlns:dc="http://purl.org/dc/elements/1.1/"
   xmlns:cc="http://creativecommons.org/ns#"
   xmlns:rdf="http://www.w3.org/1999/02/22-rdf-syntax-ns#"
   xmlns:svg="http://www.w3.org/2000/svg"
   xmlns="http://www.w3.org/2000/svg"
   xmlns:sodipodi="http://sodipodi.sourceforge.net/DTD/sodipodi-0.dtd"
   xmlns:inkscape="http://www.inkscape.org/namespaces/inkscape"
   width="24px"
   height="24px"
   viewBox="0 0 24 24"
   version="1.1"
   id="svg11"
   sodipodi:docname="ic-arrow-drop-down-purple.svg"
   inkscape:version="0.92.3 (2405546, 2018-03-11)">
  <metadata
     id="metadata17">
    <rdf:RDF>
      <cc:Work
         rdf:about="">
        <dc:format>image/svg+xml</dc:format>
        <dc:type
           rdf:resource="http://purl.org/dc/dcmitype/StillImage" />
      </cc:Work>
    </rdf:RDF>
  </metadata>
  <defs
     id="defs15" />
  <sodipodi:namedview
     pagecolor="#ffffff"
     bordercolor="#666666"
     borderopacity="1"
     objecttolerance="10"
     gridtolerance="10"
     guidetolerance="10"
     inkscape:pageopacity="0"
     inkscape:pageshadow="2"
     inkscape:window-width="1802"
     inkscape:window-height="1038"
     id="namedview13"
     showgrid="false"
     inkscape:zoom="9.8333333"
     inkscape:cx="12"
     inkscape:cy="12"
     inkscape:window-x="67"
     inkscape:window-y="27"
     inkscape:window-maximized="0"
     inkscape:current-layer="svg11" />
  <!-- Generator: Sketch 52.6 (67491) - http://www.bohemiancoding.com/sketch -->
  <title
     id="title2">ic-arrow-down</title>
  <desc
     id="desc4">Created with Sketch.</desc>
  <g
     id="ic-arrow-down"
     stroke="none"
     stroke-width="1"
     fill="none"
     fill-rule="evenodd">
    <g
       id="ic-arrow-drop-down">
      <g
         id="Group_8822"
         transform="translate(4.000000, 7.000000)"
         fill="#5C4B7D">
        <polygon
           id="Path_18879"
           points="8 9.365 0.319 2.233 1.681 0.767 8 6.635 14.319 0.767 15.68 2.233" />
      </g>
      <polygon
         id="Rectangle_4407"
         points="0 0 24 0 24 24 0 24" />
    </g>
  </g>
  <path
     style="fill:#445500;stroke-width:0.10169491"
     d="M 8.2169492,12.803713 C 6.1754237,10.903544 4.4895605,9.3038784 4.4705864,9.2489011 4.4516123,9.1939237 4.7261886,8.8556358 5.0807559,8.4971504 L 5.7254237,7.8453587 8.8254574,10.736239 c 1.7050186,1.589984 3.1380766,2.89088 3.1845736,2.89088 0.0465,0 1.397244,-1.221045 3.001661,-2.713433 1.604417,-1.4923885 3.011143,-2.796199 3.126056,-2.897357 0.205372,-0.1807873 0.219678,-0.1719248 0.838914,0.5197093 l 0.629977,0.703633 -3.786998,3.5157577 c -2.08285,1.933667 -3.810361,3.512918 -3.838914,3.509447 -0.02855,-0.0035 -1.722252,-1.560994 -3.7637778,-3.461163 z"
     id="path824"
     inkscape:connector-curvature="0" />
  <path
     style="fill:#445500;stroke-width:0.10169491"
     d="M 11.061582,15.389098 C 8.6487073,13.203594 4.5559322,9.3191146 4.5559322,9.2145437 c 0,-0.065569 0.2701692,-0.3865658 0.6003761,-0.7133271 l 0.600376,-0.5941114 2.679285,2.4877578 c 3.6139657,3.355624 3.5062517,3.263315 3.6887267,3.161196 0.08487,-0.04749 1.511656,-1.340088 3.170641,-2.872431 l 3.016338,-2.7860795 0.605516,0.6264884 c 0.333033,0.3445686 0.59011,0.6713069 0.571281,0.7260852 -0.05607,0.1631068 -7.370084,6.9193699 -7.490591,6.9193699 -0.04109,0 -0.462428,-0.351178 -0.936299,-0.780394 z"
     id="path826"
     inkscape:connector-curvature="0" />
</svg>
