<?xml version="1.0" encoding="UTF-8" standalone="no"?>
<!-- Generator: Adobe Illustrator 23.1.1, SVG Export Plug-In . SVG Version: 6.00 Build 0)  -->

<svg
   xmlns:dc="http://purl.org/dc/elements/1.1/"
   xmlns:cc="http://creativecommons.org/ns#"
   xmlns:rdf="http://www.w3.org/1999/02/22-rdf-syntax-ns#"
   xmlns:svg="http://www.w3.org/2000/svg"
   xmlns="http://www.w3.org/2000/svg"
   xmlns:sodipodi="http://sodipodi.sourceforge.net/DTD/sodipodi-0.dtd"
   xmlns:inkscape="http://www.inkscape.org/namespaces/inkscape"
   version="1.1"
   id="ic-transaction-staked"
   x="0px"
   y="0px"
   viewBox="0 0 24 24"
   style="enable-background:new 0 0 24 24;"
   xml:space="preserve"
   sodipodi:docname="ic-check-cold-staking-off.svg"
   inkscape:version="0.92.3 (2405546, 2018-03-11)"><metadata
   id="metadata13"><rdf:RDF><cc:Work
       rdf:about=""><dc:format>image/svg+xml</dc:format><dc:type
         rdf:resource="http://purl.org/dc/dcmitype/StillImage" /></cc:Work></rdf:RDF></metadata><defs
   id="defs11" /><sodipodi:namedview
   pagecolor="#ffffff"
   bordercolor="#666666"
   borderopacity="1"
   objecttolerance="10"
   gridtolerance="10"
   guidetolerance="10"
   inkscape:pageopacity="0"
   inkscape:pageshadow="2"
   inkscape:window-width="1852"
   inkscape:window-height="937"
   id="namedview9"
   showgrid="false"
   inkscape:zoom="9.8333333"
   inkscape:cx="-3.9661017"
   inkscape:cy="12"
   inkscape:window-x="67"
   inkscape:window-y="27"
   inkscape:window-maximized="0"
   inkscape:current-layer="ic-transaction-staked" />
<style
   type="text/css"
   id="style2">
	.st0{fill:#7c7687;}
	.st1{fill:none;}
</style>
<path
   id="Path_18914"
   class="st0"
   d="M42.1,6V4.9C42,3.2,40.6,1.9,38.9,2c-1.4,0.1-2.6,1.1-2.8,2.6l0,0l0,0  c-0.2-1.6-1.8-2.8-3.4-2.5c-1.5,0.2-2.6,1.5-2.6,3v1h-4v6h2v10h16V12h2V6H42.1z M38.1,5.4V5c0-0.6,0.4-1,1-1c0.6,0,1,0.4,1,1v1h-2.6  L38.1,5.4z M37.1,8v8h-2V8H37.1z M32.1,5c0-0.6,0.4-1,1-1c0.6,0,1,0.4,1,1v0.4L34.7,6h-2.6V5z M28.1,8h5v2h-5V8z M42.1,20h-12v-8h3  v6h6v-6h3V20z M44.1,10h-5V8h5V10z" />
<path
   id="Rectangle_4527"
   class="st1"
   d="M0,0h24v24H0V0z" />
<path
   class="st0"
   d="M21.4,16.3l-2.8-1.5l2.5-0.6c0.5-0.1,0.7-0.6,0.6-1c-0.1-0.4-0.6-0.7-1-0.6l-4.2,1.1l-2.7-1.5l2.7-1.5l4.2,1.1  c0.1,0,0.1,0,0.2,0c0.4,0,0.7-0.2,0.8-0.6c0.1-0.4-0.1-0.9-0.6-1l-2.5-0.6l2.8-1.5c0.4-0.2,0.5-0.7,0.3-1.1  c-0.2-0.4-0.8-0.5-1.2-0.3L17.8,8l0.7-2.4c0.1-0.4-0.1-0.9-0.6-1c-0.5-0.1-0.9,0.1-1,0.6l-1.1,4l-2.7,1.5v-3L16,4.8  c0.3-0.3,0.3-0.8,0-1.2c-0.3-0.3-0.9-0.3-1.2,0l-1.8,1.8V2.3c0-0.5-0.4-0.8-0.9-0.8c-0.5,0-0.9,0.4-0.9,0.8v3.1L9.4,3.6  C9,3.3,8.5,3.3,8.2,3.6c-0.3,0.3-0.3,0.8,0,1.2l3.1,2.9v3L8.5,9.2l-1.1-4c-0.1-0.4-0.6-0.7-1-0.6c-0.5,0.1-0.7,0.6-0.6,1L6.4,8  L3.6,6.5C3.2,6.3,2.7,6.4,2.4,6.8C2.2,7.2,2.3,7.7,2.7,7.9l2.8,1.5L3,10.1c-0.5,0.1-0.7,0.6-0.6,1c0.1,0.4,0.4,0.6,0.8,0.6  c0.1,0,0.1,0,0.2,0l4.2-1.1l2.7,1.5l-2.7,1.5l-4.2-1.1c-0.5-0.1-0.9,0.1-1,0.6c-0.1,0.4,0.1,0.9,0.6,1l2.5,0.6l-2.8,1.5  c-0.4,0.2-0.5,0.7-0.3,1.1c0.2,0.3,0.4,0.4,0.7,0.4c0.1,0,0.3,0,0.4-0.1l2.8-1.5l-0.7,2.4c-0.1,0.4,0.1,0.9,0.6,1c0.1,0,0.1,0,0.2,0  c0.4,0,0.7-0.2,0.8-0.6l1.1-4l2.7-1.5v3l-3.1,2.9c-0.3,0.3-0.3,0.8,0,1.2c0.3,0.3,0.9,0.3,1.2,0l1.8-1.8v3.1c0,0.5,0.4,0.8,0.9,0.8  c0.5,0,0.9-0.4,0.9-0.8v-3.1l1.8,1.8c0.2,0.2,0.4,0.2,0.6,0.2c0.2,0,0.4-0.1,0.6-0.2c0.3-0.3,0.3-0.8,0-1.2l-3.1-2.9v-3l2.7,1.5  l1.1,4c0.1,0.4,0.4,0.6,0.8,0.6c0.1,0,0.1,0,0.2,0c0.5-0.1,0.7-0.6,0.6-1l-0.7-2.4l2.8,1.5c0.1,0.1,0.3,0.1,0.4,0.1  c0.3,0,0.6-0.1,0.7-0.4C22,17,21.8,16.5,21.4,16.3z"
   id="path6" />
<path
   style="fill:#445500;stroke-width:0.10169491"
   d="m 11.230664,22.345161 -0.267952,-0.21077 v -1.721433 c 0,-0.946788 -0.03528,-1.721433 -0.07839,-1.721433 -0.04312,0 -0.489301,0.415706 -0.991525,0.92379 -0.5022237,0.508084 -1.0143878,0.963927 -1.1381425,1.012985 -0.538394,0.213426 -1.1556016,-0.368307 -1.0092853,-0.951278 0.033047,-0.131669 0.7909463,-0.917735 1.6894861,-1.752274 l 1.6295537,-1.513484 v -1.503938 c 0,-0.827165 -0.03432,-1.503801 -0.07627,-1.503636 -0.04195,2.03e-4 -0.671169,0.331945 -1.3982667,0.737288 L 8.2678741,14.877966 7.696439,16.911864 c -0.3142894,1.118644 -0.6043705,2.11177 -0.6446247,2.206946 -0.040254,0.09518 -0.2310521,0.225146 -0.4239954,0.288824 -0.2903983,0.09584 -0.3947003,0.08701 -0.6057158,-0.05125 C 5.5613173,19.054466 5.5502765,18.815667 5.9364291,17.503366 6.130855,16.842629 6.2773235,16.252626 6.2619145,16.19225 6.2465055,16.13187 5.570339,16.439659 4.759322,16.876217 3.9483051,17.312776 3.1919622,17.670999 3.07856,17.672267 2.5414247,17.678267 2.1540453,16.973314 2.4488881,16.526374 2.5304091,16.402799 3.2429407,15.958473 4.0322917,15.538981 4.8216426,15.11949 5.4683102,14.745885 5.4693308,14.708749 5.4703508,14.671609 4.8531943,14.496019 4.0978704,14.31854 3.0385619,14.069635 2.6897752,13.946199 2.5724467,13.778689 2.2921582,13.37852 2.4216409,12.806835 2.8437282,12.580941 c 0.1756434,-0.094 0.63918,-0.0076 2.5146185,0.468496 l 2.2992804,0.58374 1.3413155,-0.750486 C 9.7366661,12.469922 10.3087,12.100751 10.270129,12.062311 10.231558,12.02387 9.6178086,11.667713 8.9062414,11.270851 L 7.6124826,10.549283 5.4747789,11.11193 c -1.175737,0.309455 -2.2316427,0.562646 -2.346457,0.562646 -0.3072187,0 -0.7079829,-0.447876 -0.7079829,-0.79121 0,-0.470752 0.3470412,-0.685568 1.7096292,-1.0582489 C 4.8185694,9.636778 5.3802159,9.4381465 5.3780716,9.383714 5.3759273,9.3292815 4.7694311,8.9585656 4.0303024,8.559901 2.2790427,7.6153223 2.017121,7.2888883 2.5682589,6.7377503 2.9718128,6.3341964 3.3079173,6.4085089 4.9228351,7.2583452 5.7278181,7.6819605 6.3864407,7.9821892 6.3864407,7.92552 6.3864407,7.8688508 6.2512471,7.2688462 6.0860103,6.5921765 5.9207737,5.9155068 5.8133228,5.2834984 5.8472306,5.1877136 5.9679558,4.846682 6.216272,4.6576271 6.5434784,4.6576271 c 0.618309,0 0.7197174,0.1861132 1.3470121,2.4721508 L 8.4711864,9.2459965 9.920339,10.008778 11.369492,10.77156 11.371816,9.2654412 11.37414,7.759322 9.6920279,6.1322034 C 8.2295059,4.7174957 8.0101537,4.4642529 8.0117376,4.1923031 c 0.00242,-0.4149339 0.3676055,-0.755015 0.8107568,-0.755015 0.2903968,0 0.4771866,0.1365525 1.3215276,0.9661017 0.540831,0.531356 1.01493,0.9661017 1.053552,0.9661017 0.03862,0 0.07022,-0.7352119 0.07022,-1.6338041 0,-0.8985924 0.04541,-1.7186563 0.100914,-1.8223643 0.158013,-0.2952495 0.747614,-0.4513296 1.088136,-0.2880531 0.469582,0.2251591 0.536629,0.5002783 0.538264,2.2087346 l 0.0015,1.5662079 1.011445,-0.9814622 c 0.893485,-0.867 1.053596,-0.9814622 1.372881,-0.9814622 0.481077,0 0.768217,0.2918205 0.768217,0.7807392 0,0.3459175 -0.114592,0.4894148 -1.528173,1.9136527 l -1.528173,1.5396933 0.02817,1.5299377 0.02817,1.529938 1.309322,-0.7331844 c 0.720127,-0.4032512 1.342985,-0.7973585 1.384129,-0.8757939 0.04114,-0.078435 0.314885,-1.0349826 0.608313,-2.1256605 0.293427,-1.090678 0.604357,-2.0631356 0.690953,-2.161017 0.252811,-0.2857541 0.87897,-0.2361323 1.135495,0.089986 0.115924,0.1473734 0.210771,0.3377416 0.210771,0.4230404 0,0.085299 -0.162155,0.7025661 -0.360343,1.3717053 -0.198189,0.6691392 -0.342491,1.2344689 -0.320672,1.2562881 0.02182,0.021819 0.668467,-0.2583993 1.436996,-0.6227079 1.508075,-0.714879 1.95049,-0.8033651 2.294866,-0.4589895 0.254459,0.2544588 0.263143,0.7538068 0.01738,0.9995673 -0.102304,0.1023044 -0.818609,0.5198828 -1.591787,0.9279521 -0.942395,0.4973782 -1.358763,0.7670345 -1.263144,0.8180612 0.07845,0.041864 0.684908,0.2008822 1.347688,0.353373 1.381755,0.3179108 1.620189,0.4757828 1.571926,1.0408048 -0.02227,0.260723 -0.113246,0.426453 -0.31744,0.578283 l -0.286222,0.212824 -2.267564,-0.583363 -2.267565,-0.583363 -1.334445,0.736574 c -0.733946,0.405116 -1.335165,0.766289 -1.336044,0.802605 -0.002,0.08376 2.579849,1.510241 2.733478,1.510241 0.06282,0 1.07344,-0.253583 2.245829,-0.563517 2.00988,-0.531335 2.148509,-0.554781 2.427438,-0.410541 0.322976,0.167017 0.422165,0.342187 0.422165,0.745554 0,0.463441 -0.256193,0.607069 -1.700018,0.953068 -1.601725,0.383838 -1.6329,0.263698 0.342911,1.321497 0.738481,0.395363 1.36738,0.78318 1.397555,0.861814 0.08041,0.209543 -0.03165,0.431559 -0.25334,0.501921 -0.106758,0.03388 -0.240373,0.148062 -0.296926,0.253731 -0.05655,0.10567 -0.25543,0.220756 -0.441949,0.255747 -0.291717,0.05473 -0.550526,-0.05057 -1.85134,-0.753217 -0.831718,-0.44926 -1.527151,-0.801901 -1.545405,-0.783647 -0.01826,0.01825 0.128963,0.580668 0.327152,1.249808 0.415135,1.401611 0.428552,1.549151 0.169907,1.868563 -0.238178,0.294137 -0.863131,0.308395 -1.133783,0.02587 -0.101409,-0.105859 -0.408467,-1.029943 -0.704397,-2.119869 -0.288541,-1.062712 -0.545443,-2.003787 -0.570893,-2.09128 -0.03837,-0.131904 -2.548381,-1.620584 -2.732411,-1.620584 -0.03185,0 -0.05791,0.680363 -0.05791,1.511918 v 1.511919 l 1.627118,1.549282 c 1.550449,1.476282 1.627119,1.567692 1.627119,1.939943 0,0.469581 -0.271863,0.707277 -0.808945,0.707277 -0.315578,0 -0.471937,-0.114598 -1.350253,-0.989618 l -0.993345,-0.989617 v 1.658457 1.658457 l -0.297262,0.297262 c -0.357528,0.357528 -0.779187,0.38887 -1.163599,0.08649 z"
   id="path820"
   inkscape:connector-curvature="0" /><path
   style="fill:#445500;stroke-width:0.10169491"
   d="m 28.149153,17.064407 v -4.983051 h -1.01695 -1.016949 V 9.1343532 6.1873505 l 2.008475,-0.027574 2.008474,-0.027573 0.05274,-0.9661017 c 0.04472,-0.8192825 0.0981,-1.048517 0.35125,-1.5084121 0.527145,-0.9576719 1.316125,-1.4457555 2.457556,-1.5203104 0.61872,-0.040413 0.806486,-0.010397 1.271187,0.2032117 0.29988,0.1378458 0.687744,0.3711834 0.861921,0.5185281 0.287119,0.2428894 0.746833,1.0267551 0.905669,1.5442708 0.04874,0.1587956 0.101479,0.088169 0.240552,-0.3221232 0.713189,-2.1040427 3.323936,-2.7215435 4.889097,-1.156382 0.590755,0.5907545 0.828474,1.1938185 0.893479,2.2666408 l 0.05392,0.8898305 h 1.968946 1.968945 v 2.9491526 2.9491524 h -1.01695 -1.016949 v 5.033898 5.033899 h -7.93221 -7.932203 z M 42.183051,15.99661 V 11.979661 H 40.60678 39.030508 v 3 3 h -2.949152 -2.949153 v -3 -3 H 31.60678 30.081356 v 4.016949 4.016949 h 6.050847 6.050848 z M 37.098305,11.979661 V 7.9118644 h -1.016949 -1.016949 v 4.0677966 4.067797 h 1.016949 1.016949 z M 33.132203,8.9778844 V 7.9083113 l -2.516949,0.0272 -2.516949,0.0272 -0.02898,1.0423728 -0.02898,1.0423729 h 2.545931 2.54593 z m 10.983051,0 V 7.9083113 l -2.516949,0.0272 -2.516949,0.0272 -0.02898,1.0423728 -0.02898,1.0423729 h 2.545931 2.54593 z M 34.657627,5.9973879 c 0,-0.046182 -0.114407,-0.1914477 -0.254237,-0.3228116 -0.173798,-0.1632746 -0.254237,-0.347448 -0.254237,-0.5820991 0,-0.7495399 -0.552775,-1.2373515 -1.253228,-1.1059458 -0.533017,0.099995 -0.789019,0.4487682 -0.853802,1.1632087 -0.08689,0.9582727 -0.125268,0.9316158 1.341126,0.9316158 0.700908,0 1.274378,-0.037786 1.274378,-0.083968 z m 5.491526,-0.5820991 c 0,-0.7902017 -0.176557,-1.188223 -0.605983,-1.3660971 -0.702235,-0.2908753 -1.384738,0.1323633 -1.489729,0.9238216 -0.04263,0.3213906 -0.146326,0.5627182 -0.3064,0.7130996 -0.133076,0.1250188 -0.241956,0.2650926 -0.241956,0.311275 0,0.046182 0.594915,0.083968 1.322034,0.083968 h 1.322034 z"
   id="path822"
   inkscape:connector-curvature="0" /><path
   style="fill:#668000;stroke-width:0.10169491"
   d="m 11.36707,22.365559 -0.353511,-0.189477 -0.02782,-1.742279 c -0.0153,-0.958252 -0.06453,-1.742278 -0.109392,-1.742278 -0.04486,0 -0.192509,0.1358018 -0.328107,0.267127 -0.6442945,0.698093 -1.8406081,1.665077 -2.0599672,1.665077 -0.3186547,0 -0.6780983,-0.404492 -0.6780983,-0.763082 0,-0.298236 0.4306882,-0.765539 2.5169495,-2.73093 l 0.737288,-0.694572 v -1.515878 c 0,-1.008418 -0.03641,-1.515877 -0.108758,-1.515877 -0.05982,0 -0.696233,0.326684 -1.4142579,0.725963 L 8.2358916,14.855318 7.6501418,16.94292 C 7.3011884,18.186585 6.9890241,19.105892 6.8779587,19.216957 6.6131979,19.481717 6.1634971,19.453086 5.8821008,19.153557 5.6124946,18.866574 5.6183962,18.79798 6.0465013,17.242722 6.1965607,16.697574 6.2885508,16.220757 6.250924,16.183131 6.213297,16.145501 5.4718262,16.473514 4.6032105,16.912041 l -1.579301,0.797323 -0.2763616,-0.20546 C 2.552205,17.358672 2.4619783,17.190354 2.4397768,16.929752 2.4102648,16.583338 2.4409833,16.540458 2.9482514,16.219979 3.2451877,16.032382 3.934322,15.634211 4.479661,15.335153 5.025,15.036095 5.4711864,14.758696 5.4711864,14.718711 c 0,-0.03999 -0.3775424,-0.17196 -0.8389831,-0.293276 -2.0883938,-0.549055 -2.1440677,-0.578342 -2.1440677,-1.127846 0,-0.362921 0.2900626,-0.707758 0.595336,-0.707758 0.1236566,0 1.2078261,0.243753 2.4092656,0.541673 l 2.1844353,0.541673 0.8037866,-0.451315 c 1.1482571,-0.644731 1.7698879,-1.046948 1.7698879,-1.145178 0,-0.04684 -0.5834742,-0.415972 -1.2966098,-0.820293 L 7.6576271,10.521263 5.3733664,11.095496 C 3.2545379,11.628142 3.0719249,11.658472 2.8518781,11.514292 2.7214029,11.428801 2.568666,11.237906 2.5124628,11.090081 2.3311671,10.613237 2.6451912,10.349594 3.8536036,9.964108 5.1579125,9.5480314 5.3694915,9.4636649 5.3694915,9.3596522 5.3694915,9.3145542 4.7667164,8.934212 4.0299913,8.5144473 3.2932662,8.0946826 2.5978903,7.62721 2.4847115,7.4756194 L 2.278932,7.2 2.4869206,6.920339 C 2.8609866,6.4173708 3.2772141,6.4808615 4.9372881,7.294114 5.734322,7.6845723 6.3864406,7.9497972 6.3864406,7.8835024 6.3864406,7.8172077 6.2647633,7.2077411 6.1160466,6.529132 5.9673299,5.8505231 5.8733449,5.2231321 5.9071912,5.1349302 5.9410376,5.0467282 6.0852628,4.8982076 6.2276919,4.8048845 6.5488895,4.5944278 6.9369076,4.6753604 7.1474792,4.9967333 c 0.084393,0.1288001 0.4035633,1.113514 0.7092671,2.1882532 0.305704,1.0747391 0.5807972,1.9944765 0.6113184,2.0438608 0.053761,0.086987 2.7396543,1.5304747 2.8477493,1.5304747 0.02952,0 0.05368,-0.681255 0.05368,-1.5138998 V 7.7315223 L 9.834789,6.2199985 C 8.9907027,5.3886603 8.2326395,4.5791401 8.1502043,4.4210647 8.0165547,4.1647821 8.0181356,4.1064678 8.1648015,3.8826273 8.3856378,3.5455885 8.775719,3.4030712 9.0625906,3.5546175 c 0.1221854,0.064547 0.6393209,0.4992994 1.1491904,0.9661162 0.509869,0.4668169 0.949033,0.8487579 0.975921,0.8487579 0.02689,0 0.07605,-0.7661743 0.109251,-1.7026096 0.05624,-1.5863577 0.07544,-1.7148141 0.281108,-1.8813559 0.557379,-0.4513381 1.305939,-0.02531 1.330643,0.757309 0.0076,0.2402543 0.0419,0.9757286 0.07627,1.6343873 l 0.06248,1.1975614 0.981701,-0.9079294 c 0.539936,-0.4993611 1.071603,-0.936463 1.181484,-0.9713376 0.493284,-0.1565625 1.035548,0.3910778 0.878183,0.8868907 -0.03603,0.1135149 -0.723635,0.9028098 -1.528013,1.7539886 l -1.462508,1.5475978 v 1.537664 c 0,0.8457151 0.02141,1.5376641 0.04759,1.5376641 0.02617,0 0.632529,-0.335798 1.347458,-0.746218 l 1.29987,-0.7462175 0.270536,-0.8554771 c 0.148796,-0.4705125 0.436384,-1.4275111 0.639087,-2.1266636 0.481247,-1.6599042 0.836856,-1.9810312 1.480732,-1.3371556 0.327272,0.3272722 0.334413,0.2316013 -0.14792,1.9815322 -0.151643,0.5501698 -0.253901,1.0221226 -0.22724,1.0487839 0.02666,0.026661 0.606265,-0.2067494 1.288009,-0.5186906 1.806491,-0.826585 2.323688,-0.8901957 2.543216,-0.312793 0.18076,0.4754368 -0.019,0.7086897 -1.137062,1.3277147 -1.452596,0.8042407 -1.848058,1.0688507 -1.746153,1.168379 0.0482,0.047079 0.564194,0.2059075 1.146647,0.3529531 1.465402,0.3699545 1.635911,0.4691935 1.635911,0.9521275 0,0.276844 -0.06949,0.451726 -0.245033,0.616637 l -0.245033,0.230197 -2.25299,-0.576789 c -1.239145,-0.317234 -2.330151,-0.547795 -2.424459,-0.512359 -0.485022,0.182247 -2.559921,1.431054 -2.529472,1.522399 0.04976,0.149272 2.520892,1.480793 2.748164,1.480793 0.102921,0 1.066983,-0.228814 2.142358,-0.508475 1.075376,-0.279661 2.050161,-0.508475 2.166191,-0.508475 0.288143,0 0.618049,0.298621 0.696526,0.630476 0.09809,0.414784 -0.272894,0.721508 -1.126788,0.931619 -1.329481,0.327137 -1.790676,0.48139 -1.755428,0.58713 0.01937,0.05811 0.674577,0.462806 1.456015,0.899326 0.812022,0.453603 1.435465,0.866796 1.455031,0.964336 0.0491,0.24476 -0.68087,0.85902 -1.027031,0.864236 -0.154512,0.0023 -0.9668,-0.339274 -1.805085,-0.759115 -0.838283,-0.419841 -1.524152,-0.725235 -1.524152,-0.678654 0,0.04658 0.137288,0.573621 0.305084,1.171199 0.372172,1.325422 0.388485,1.726278 0.07907,1.943003 -0.296682,0.207804 -0.618142,0.200551 -0.87129,-0.01966 -0.223185,-0.194144 -0.43538,-0.802234 -0.983532,-2.818519 -0.19715,-0.725184 -0.438851,-1.397282 -0.537112,-1.493549 -0.247211,-0.242194 -2.379663,-1.509966 -2.539834,-1.509966 -0.100201,0 -0.13035,0.35231 -0.13035,1.523242 v 1.523244 l 1.573996,1.553027 c 0.94217,0.929621 1.59783,1.657665 1.633376,1.813697 0.08935,0.392231 -0.240739,0.746112 -0.695954,0.746112 -0.315726,0 -0.493711,-0.121311 -1.385983,-0.944653 l -1.02374,-0.944654 v 1.617153 1.617153 l -0.279661,0.261838 c -0.394931,0.369763 -0.636179,0.415023 -1.044794,0.19601 z"
   id="path817"
   inkscape:connector-curvature="0" /><path
   style="fill:#668000;stroke-width:0.10169491"
   d="m 28.149153,17.064407 v -4.983051 h -1.01695 -1.016949 V 9.1322034 6.1830509 h 2.01867 2.018671 l 0.06566,-0.9250824 c 0.129651,-1.8265287 0.949061,-2.8125216 2.515364,-3.026727 0.773891,-0.1058361 1.265594,-0.019792 1.852538,0.3241799 0.55669,0.3262426 0.906259,0.7284889 1.211708,1.3943044 0.127297,0.2774813 0.259938,0.5045115 0.294757,0.5045115 0.03482,0 0.154863,-0.2203058 0.266764,-0.4895684 0.448924,-1.0802334 1.346199,-1.745565 2.461735,-1.8253811 0.988093,-0.070698 1.630781,0.1637609 2.309574,0.8425535 0.596181,0.5961814 0.786549,1.0939683 0.90338,2.3622265 l 0.06792,0.7372882 h 1.97273 1.97273 v 2.9491525 2.9491525 h -1.01695 -1.016949 v 5.033898 5.033899 h -7.9322 -7.932203 z M 42.183051,15.99661 V 11.979661 H 40.60678 39.030508 v 3 3 h -2.949152 -2.949153 v -3 -3 H 31.60678 30.081356 v 4.016949 4.016949 h 6.050847 6.050848 z M 37.098305,11.979661 V 7.9118644 h -1.016949 -1.016949 v 4.0677966 4.067797 h 1.016949 1.016949 z M 33.132203,8.9796611 V 7.9118644 H 30.58983 28.047458 v 1.0677967 1.0677969 h 2.542372 2.542373 z m 10.983051,0 V 7.9118644 h -2.542373 -2.542373 v 1.0677967 1.0677969 h 2.542373 2.542373 z M 34.657627,6.0251132 c 0,-0.030933 -0.114407,-0.2246075 -0.254237,-0.4303865 -0.139831,-0.2057792 -0.254237,-0.4757743 -0.254237,-0.5999891 0,-0.9118265 -1.058666,-1.3722917 -1.745051,-0.7590071 -0.283415,0.2532319 -0.330233,0.3688119 -0.369546,0.9123104 -0.0698,0.9649664 -0.115538,0.9333151 1.348693,0.9333151 0.700908,0 1.274378,-0.025309 1.274378,-0.056243 z m 5.491526,-0.6098243 c 0,-0.7139098 -0.175214,-1.1894752 -0.502842,-1.3648166 -0.288628,-0.1544688 -0.843399,-0.1272866 -1.102231,0.054006 -0.258777,0.1812547 -0.530521,0.6582714 -0.530521,0.9312714 0,0.1016582 -0.114406,0.3531977 -0.254237,0.5589769 -0.139831,0.205779 -0.254237,0.399453 -0.254237,0.4303865 0,0.030934 0.594915,0.056243 1.322034,0.056243 h 1.322034 z"
   id="path819"
   inkscape:connector-curvature="0" /></svg>