<?xml version="1.0" encoding="UTF-8" standalone="no"?>
<svg
   xmlns:dc="http://purl.org/dc/elements/1.1/"
   xmlns:cc="http://creativecommons.org/ns#"
   xmlns:rdf="http://www.w3.org/1999/02/22-rdf-syntax-ns#"
   xmlns:svg="http://www.w3.org/2000/svg"
   xmlns="http://www.w3.org/2000/svg"
   xmlns:sodipodi="http://sodipodi.sourceforge.net/DTD/sodipodi-0.dtd"
   xmlns:inkscape="http://www.inkscape.org/namespaces/inkscape"
   width="24"
   height="24"
   viewBox="0 0 24 24"
   version="1.1"
   id="svg10"
   sodipodi:docname="ic-check-box-dark-active.svg"
   inkscape:version="0.92.3 (2405546, 2018-03-11)">
  <metadata
     id="metadata14">
    <rdf:RDF>
      <cc:Work
         rdf:about="">
        <dc:format>image/svg+xml</dc:format>
        <dc:type
           rdf:resource="http://purl.org/dc/dcmitype/StillImage" />
      </cc:Work>
    </rdf:RDF>
  </metadata>
  <sodipodi:namedview
     pagecolor="#ffffff"
     bordercolor="#666666"
     borderopacity="1"
     objecttolerance="10"
     gridtolerance="10"
     guidetolerance="10"
     inkscape:pageopacity="0"
     inkscape:pageshadow="2"
     inkscape:window-width="1845"
     inkscape:window-height="1035"
     id="namedview12"
     showgrid="false"
     inkscape:zoom="9.8333333"
     inkscape:cx="-3.9661017"
     inkscape:cy="12"
     inkscape:window-x="67"
     inkscape:window-y="27"
     inkscape:window-maximized="0"
     inkscape:current-layer="svg10" />
  <defs
     id="defs4">
    <style
       type="text/css"
       id="style2">
            .cls-1{fill:#B088FF;fill-rule:evenodd}.cls-2{fill:none}
        </style>
  </defs>
  <g
     id="check_active"
     transform="translate(-290 -244)">
    <g
       id="Group_8199"
       data-name="Group 8199"
       transform="translate(291 245)">
      <path
         id="check_on_light"
         d="M22.556 3H5.444A2.452 2.452 0 0 0 3 5.444v17.112A2.452 2.452 0 0 0 5.444 25h17.112A2.452 2.452 0 0 0 25 22.556V5.444A2.452 2.452 0 0 0 22.556 3zm-11 17.111l-6.112-5.876 1.712-1.645 4.4 4.231 9.289-8.932 1.711 1.645-11 10.577z"
         class="cls-1"
         transform="translate(-3 -3)" />
    </g>
    <path
       id="Rectangle_4538"
       d="M0 0h24v24H0z"
       class="cls-2"
       data-name="Rectangle 4538"
       transform="translate(290 244)" />
  </g>
  <path
     style="fill:#88aa00;stroke-width:0.10169491"
     d="M 2.4248332,22.730224 C 1.9233791,22.502457 1.2964535,21.794617 1.1594845,21.301561 1.0021785,20.735298 1.0233012,3.1798634 1.1819312,2.6456969 1.3453788,2.0953075 2.0953075,1.3453788 2.6456969,1.1819312 3.1798634,1.0233012 20.735298,1.0021785 21.301561,1.1594845 c 0.493056,0.136969 1.200896,0.7638946 1.428663,1.2653487 0.177485,0.3907509 0.18746,0.8929112 0.189577,9.5428398 0.0025,10.071477 0.03704,9.517445 -0.638514,10.229491 -0.178946,0.188609 -0.508406,0.427859 -0.732134,0.531665 -0.386747,0.179443 -0.85753,0.188738 -9.559322,0.188738 -8.67416,0 -9.174101,-0.0098 -9.5649978,-0.187343 z M 15.436523,12.491699 20.612029,7.5189333 19.722648,6.6800641 18.833268,5.8411951 15.055617,9.479389 c -2.077709,2.001007 -4.167527,4.009868 -4.644042,4.464136 L 9.5451833,14.769467 7.3868118,12.684513 c -1.1871042,-1.146725 -2.1997857,-2.0696 -2.2504031,-2.050835 -0.050617,0.01877 -0.4611754,0.387726 -0.912351,0.819914 l -0.8203193,0.785796 3.0696636,2.950277 3.0696638,2.950277 0.3589755,-0.337738 c 0.1974367,-0.185757 2.6879527,-2.575483 5.5344817,-5.310505 z"
     id="path821"
     inkscape:connector-curvature="0" />
  <path
     style="fill:#000000;stroke-width:0.10169491"
     d="M 4.6595341,22.833181 2.5156783,22.769492 2.1455209,22.486895 C 1.9419343,22.331466 1.6481948,22.037715 1.4927665,21.834116 l -0.282597,-0.370183 -0.08983,-4.097846 c -0.051977,-2.371064 -0.051977,-6.341724 0,-9.4228136 L 1.2101695,2.6183072 1.4906988,2.1947677 C 1.6449899,1.9618209 1.9619025,1.64499 2.194949,1.4906988 L 2.61867,1.2101695 6.3381486,1.1280506 c 4.4134714,-0.097441 14.7406054,-0.00721 15.1067284,0.1319851 0.415537,0.157987 1.151898,0.9038821 1.289067,1.3057581 0.098,0.2871281 0.128515,2.3900484 0.13231,9.1189522 0.0027,4.810169 -0.03335,9.014214 -0.08013,9.34232 -0.07019,0.492213 -0.155384,0.672845 -0.487087,1.032702 -0.75626,0.820443 -0.234837,0.769873 -8.304555,0.805423 -3.955099,0.01742 -8.1558253,0.003 -9.3349459,-0.03201 z M 15.124711,12.854237 c 3.00077,-2.8805081 5.456125,-5.2830505 5.456343,-5.3389827 2.03e-4,-0.055932 -0.3913,-0.4623551 -0.870038,-0.903162 L 18.840582,5.8106251 18.516901,6.1141589 C 18.338877,6.2811024 16.25557,8.2787908 13.887331,10.553466 L 9.5814435,14.689241 8.904281,14.088271 C 8.5318417,13.757738 8.1355932,13.384613 8.0237288,13.259104 7.6387692,12.827193 5.2360913,10.616949 5.1515347,10.616949 c -0.046566,0 -0.4719148,0.362295 -0.945219,0.8051 l -0.860553,0.805099 1.8813559,1.809011 c 1.0347458,0.994956 2.4076271,2.326117 3.0508475,2.958135 0.6432203,0.632019 1.2192856,1.137449 1.2801451,1.123178 0.060859,-0.01427 2.5658298,-2.382726 5.5665998,-5.263235 z"
     id="path817"
     inkscape:connector-curvature="0" />
</svg>
