<?xml version="1.0" encoding="UTF-8" standalone="no"?>
<svg
   xmlns:dc="http://purl.org/dc/elements/1.1/"
   xmlns:cc="http://creativecommons.org/ns#"
   xmlns:rdf="http://www.w3.org/1999/02/22-rdf-syntax-ns#"
   xmlns:svg="http://www.w3.org/2000/svg"
   xmlns="http://www.w3.org/2000/svg"
   xmlns:sodipodi="http://sodipodi.sourceforge.net/DTD/sodipodi-0.dtd"
   xmlns:inkscape="http://www.inkscape.org/namespaces/inkscape"
   width="22px"
   height="22px"
   viewBox="0 0 22 22"
   version="1.1"
   id="svg11"
   sodipodi:docname="ic-check-box-indeterminate.svg"
   inkscape:version="0.92.3 (2405546, 2018-03-11)">
  <metadata
     id="metadata17">
    <rdf:RDF>
      <cc:Work
         rdf:about="">
        <dc:format>image/svg+xml</dc:format>
        <dc:type
           rdf:resource="http://purl.org/dc/dcmitype/StillImage" />
      </cc:Work>
    </rdf:RDF>
  </metadata>
  <defs
     id="defs15" />
  <sodipodi:namedview
     pagecolor="#ffffff"
     bordercolor="#666666"
     borderopacity="1"
     objecttolerance="10"
     gridtolerance="10"
     guidetolerance="10"
     inkscape:pageopacity="0"
     inkscape:pageshadow="2"
     inkscape:window-width="1840"
     inkscape:window-height="1010"
     id="namedview13"
     showgrid="false"
     inkscape:zoom="10.727273"
     inkscape:cx="-3.6355929"
     inkscape:cy="11"
     inkscape:window-x="67"
     inkscape:window-y="27"
     inkscape:window-maximized="0"
     inkscape:current-layer="svg11" />
  <!-- Generator: Sketch 54.1 (76490) - https://sketchapp.com -->
  <title
     id="title2">ic-check-active</title>
  <desc
     id="desc4">Created with Sketch.</desc>
  <g
     id="Page-1"
     stroke="none"
     stroke-width="1"
     fill="none"
     fill-rule="evenodd">
    <g
       id="ic-check-active"
       transform="translate(-1.000000, -1.000000)">
      <g
         id="Group_8199"
         transform="translate(1.000000, 1.000000)"
         fill="#5C4B7D">
        <path
           d="M19.556,0 L2.444,0 C1.09603898,0.0043907874 0.0043907874,1.09603898 4.4408921e-16,2.444 L4.4408921e-16,19.556 C0.0043907874,20.903961 1.09603898,21.9956092 2.444,22 L19.556,22 C20.903961,21.9956092 21.9956092,20.903961 22,19.556 L22,2.444 C21.9956092,1.09603898 20.903961,0.0043907874 19.556,0 Z M3,10 L19,10 L19,13 L3,13 L3,10 Z"
           id="check_on_light" />
      </g>
      <polygon
         id="Rectangle_4538"
         points="0 0 24 0 24 24 0 24" />
    </g>
  </g>
  <path
     style="fill:#445500;stroke-width:0.09322034"
     d="M 1.5288136,21.751033 C 1.0148841,21.517776 0.55311142,21.087452 0.28547526,20.592373 L 0.08389831,20.219492 v -9.228814 c 0,-8.8217688 0.0076555,-9.2432041 0.17357189,-9.5550848 C 0.49975946,0.98015081 0.94941326,0.52310352 1.3889831,0.28547526 L 1.7618644,0.08389831 h 9.2288136 9.228814 l 0.379239,0.20299505 c 0.497581,0.26633854 1.001139,0.83282654 1.194813,1.34412754 0.141973,0.3748115 0.15325,1.2007845 0.129703,9.4994871 -0.0249,8.774616 -0.03203,9.101569 -0.206333,9.45286 -0.230208,0.463976 -0.66957,0.903338 -1.133546,1.133546 -0.351501,0.174403 -0.674596,0.181291 -9.49947,0.202529 -9.023683,0.02172 -9.1407316,0.01965 -9.5550844,-0.16841 z M 19.007627,11.50339 V 9.9652542 H 10.990678 2.9737288 l -0.025838,1.4410008 c -0.014211,0.792551 -0.00495,1.495434 0.020579,1.561962 0.037641,0.09809 1.5582962,0.116456 8.0427862,0.09714 l 7.99637,-0.02383 z"
     id="path824"
     inkscape:connector-curvature="0" />
  <path
     style="fill:#000000;stroke-width:0.09322034"
     d="M 1.4822037,21.676396 C 1.0328855,21.467738 0.70234924,21.167649 0.3720054,20.668466 l -0.24668093,-0.372761 0.0258972,-9.36014 0.0258972,-9.3601416 0.27622267,-0.38357 C 0.60526407,0.98088976 0.93567808,0.6557838 1.187595,0.46939568 L 1.6456256,0.13050819 h 9.3428624 9.342861 l 0.363563,0.26366402 c 0.504501,0.36587574 0.932053,0.87446069 1.045097,1.24317099 0.152909,0.4987405 0.199488,4.8433054 0.129428,12.0721048 l -0.0652,6.727245 -0.282265,0.401507 c -0.155246,0.22083 -0.46297,0.528527 -0.683831,0.683772 l -0.401567,0.282265 -9.290745,0.02266 c -8.8838354,0.02167 -9.3070762,0.01508 -9.6636263,-0.150502 z M 19.054238,11.50339 V 9.9186438 h -8.06356 -8.0635591 v 1.5303672 c 0,1.13707 0.029946,1.542451 0.1165254,1.577386 0.064089,0.02586 3.6926907,0.05033 8.0635597,0.05438 l 7.947034,0.0074 z"
     id="path822"
     inkscape:connector-curvature="0" />
</svg>
