<?xml version="1.0" encoding="UTF-8" standalone="no"?>
<svg
   xmlns:dc="http://purl.org/dc/elements/1.1/"
   xmlns:cc="http://creativecommons.org/ns#"
   xmlns:rdf="http://www.w3.org/1999/02/22-rdf-syntax-ns#"
   xmlns:svg="http://www.w3.org/2000/svg"
   xmlns="http://www.w3.org/2000/svg"
   xmlns:sodipodi="http://sodipodi.sourceforge.net/DTD/sodipodi-0.dtd"
   xmlns:inkscape="http://www.inkscape.org/namespaces/inkscape"
   width="24"
   height="24"
   viewBox="0 0 24 24"
   shape-rendering="geometricPrecision"
   version="1.1"
   id="svg10"
   sodipodi:docname="ic-check-liliac-on.svg"
   inkscape:version="0.92.3 (2405546, 2018-03-11)">
  <metadata
     id="metadata14">
    <rdf:RDF>
      <cc:Work
         rdf:about="">
        <dc:format>image/svg+xml</dc:format>
        <dc:type
           rdf:resource="http://purl.org/dc/dcmitype/StillImage" />
      </cc:Work>
    </rdf:RDF>
  </metadata>
  <sodipodi:namedview
     pagecolor="#ffffff"
     bordercolor="#666666"
     borderopacity="1"
     objecttolerance="10"
     gridtolerance="10"
     guidetolerance="10"
     inkscape:pageopacity="0"
     inkscape:pageshadow="2"
     inkscape:window-width="1851"
     inkscape:window-height="1095"
     id="namedview12"
     showgrid="false"
     inkscape:zoom="9.8333333"
     inkscape:cx="-3.9661017"
     inkscape:cy="12"
     inkscape:window-x="67"
     inkscape:window-y="27"
     inkscape:window-maximized="0"
     inkscape:current-layer="svg10" />
  <defs
     id="defs4">
    <style
       type="text/css"
       id="style2">
            .cls-1{fill:#b088ff;fill-rule:evenodd}.cls-2{fill:none}
        </style>
  </defs>
  <g
     id="check_active"
     transform="translate(-290 -244)">
    <g
       id="Group_8199"
       data-name="Group 8199"
       transform="translate(291 245)">
      <path
         id="check_on_light"
         d="M22.556 3H5.444A2.452 2.452 0 0 0 3 5.444v17.112A2.452 2.452 0 0 0 5.444 25h17.112A2.452 2.452 0 0 0 25 22.556V5.444A2.452 2.452 0 0 0 22.556 3zm-11 17.111l-6.112-5.876 1.712-1.645 4.4 4.231 9.289-8.932 1.711 1.645-11 10.577z"
         class="cls-1"
         transform="translate(-3 -3)" />
    </g>
    <path
       id="Rectangle_4538"
       d="M0 0h24v24H0z"
       class="cls-2"
       data-name="Rectangle 4538"
       transform="translate(290 244)" />
  </g>
  <path
     style="fill:#88aa00;stroke-width:0.10169491"
     d="M 2.4508475,22.728829 C 2.2271186,22.625023 1.8976583,22.385773 1.7187134,22.197164 1.0431538,21.485118 1.0777359,22.03915 1.0801995,11.967673 1.0823154,3.3177444 1.0922912,2.8155841 1.2697757,2.4248332 1.497543,1.9233791 2.2053838,1.2964535 2.6984388,1.1594845 3.2647015,1.0021785 20.820136,1.0233012 21.354303,1.1819312 c 0.550389,0.1634476 1.300318,0.9133763 1.463766,1.4637657 0.15863,0.5341665 0.179752,18.0896011 0.02245,18.6558641 -0.136969,0.493056 -0.763894,1.200896 -1.265348,1.428663 -0.390897,0.177551 -0.890838,0.187343 -9.564998,0.187343 -8.7017921,0 -9.1725752,-0.0093 -9.5593215,-0.188738 z M 15.85794,12.097062 20.620964,7.5178699 19.722347,6.6877442 18.823729,5.8576184 17.755932,6.8904777 C 14.582249,9.9603207 9.6271007,14.702176 9.5766382,14.717696 9.5446323,14.72754 8.6762013,13.923986 7.6467914,12.932023 6.6173816,11.940059 5.6338805,11.009593 5.4612334,10.86432 L 5.1473295,10.600187 4.2798567,11.389856 c -0.47711,0.434318 -0.8550048,0.818007 -0.8397664,0.852643 0.015239,0.03463 1.3949013,1.376627 3.0659174,2.982205 l 3.0382111,2.919232 0.7753482,-0.733842 c 0.426442,-0.403613 2.918709,-2.794477 5.538373,-5.313032 z"
     id="path821"
     inkscape:connector-curvature="0" />
  <path
     style="fill:#000000;stroke-width:0.10169491"
     d="M 4.6881356,22.833181 C 2.6953019,22.77375 2.5312431,22.754298 2.2339195,22.542217 1.59758,22.088313 1.3027825,21.648963 1.2131009,21.020845 1.1667428,20.69616 1.1307449,16.494915 1.1331055,11.684746 1.1364204,4.9300882 1.1665428,2.8540209 1.2654156,2.5657938 1.4038779,2.1621581 2.1287818,1.4296822 2.5787464,1.2387444 2.7840242,1.1516369 5.25977,1.1211843 11.959322,1.1233597 c 9.925338,0.00322 9.414705,-0.026109 10.136145,0.5822471 0.177422,0.1496117 0.426224,0.4861115 0.552895,0.7477773 l 0.230309,0.475756 -6.1e-4,9.1066169 c -4.07e-4,6.569283 -0.0328,9.183055 -0.116154,9.38096 -0.176561,0.419183 -0.846713,1.112622 -1.230526,1.273286 -0.282081,0.11808 -1.621938,0.149284 -7.525423,0.175262 -3.950221,0.01738 -8.1432462,0.0029 -9.3178224,-0.03208 z m 8.6688934,-8.275554 c 2.05302,-1.97161 4.511882,-4.334411 5.464138,-5.2506689 0.952257,-0.9162579 1.731375,-1.7196535 1.731375,-1.7853238 0,-0.06567 -0.379679,-0.4744721 -0.843731,-0.9084485 L 18.86508,5.8241376 18.42083,6.2120688 C 18.176493,6.425431 16.088763,8.4162086 13.781431,10.636019 L 9.5862826,14.672038 8.9499512,14.093646 C 8.599969,13.77553 7.6262687,12.863136 6.7861728,12.066102 5.9460769,11.269068 5.2099262,10.616949 5.1502822,10.616949 c -0.1543955,0 -1.745772,1.538954 -1.7081347,1.651866 0.043529,0.130589 6.0076378,5.866595 6.1038837,5.870436 0.043029,0.0017 1.7579778,-1.610014 3.8109978,-3.581624 z"
     id="path817"
     inkscape:connector-curvature="0" />
</svg>
