<?xml version="1.0" encoding="UTF-8" standalone="no"?>
<svg
   xmlns:dc="http://purl.org/dc/elements/1.1/"
   xmlns:cc="http://creativecommons.org/ns#"
   xmlns:rdf="http://www.w3.org/1999/02/22-rdf-syntax-ns#"
   xmlns:svg="http://www.w3.org/2000/svg"
   xmlns="http://www.w3.org/2000/svg"
   xmlns:sodipodi="http://sodipodi.sourceforge.net/DTD/sodipodi-0.dtd"
   xmlns:inkscape="http://www.inkscape.org/namespaces/inkscape"
   width="24px"
   height="24px"
   viewBox="0 0 24 24"
   version="1.1"
   id="svg13"
   sodipodi:docname="ic-copy-liliac.svg"
   inkscape:version="0.92.3 (2405546, 2018-03-11)">
  <metadata
     id="metadata19">
    <rdf:RDF>
      <cc:Work
         rdf:about="">
        <dc:format>image/svg+xml</dc:format>
        <dc:type
           rdf:resource="http://purl.org/dc/dcmitype/StillImage" />
      </cc:Work>
    </rdf:RDF>
  </metadata>
  <defs
     id="defs17" />
  <sodipodi:namedview
     pagecolor="#ffffff"
     bordercolor="#666666"
     borderopacity="1"
     objecttolerance="10"
     gridtolerance="10"
     guidetolerance="10"
     inkscape:pageopacity="0"
     inkscape:pageshadow="2"
     inkscape:window-width="1853"
     inkscape:window-height="997"
     id="namedview15"
     showgrid="false"
     inkscape:zoom="9.8333333"
     inkscape:cx="12"
     inkscape:cy="12"
     inkscape:window-x="67"
     inkscape:window-y="27"
     inkscape:window-maximized="0"
     inkscape:current-layer="svg13" />
  <!-- Generator: Sketch 55.2 (78181) - https://sketchapp.com -->
  <title
     id="title2">Artboard</title>
  <desc
     id="desc4">Created with Sketch.</desc>
  <g
     id="Artboard"
     stroke="none"
     stroke-width="1"
     fill="none"
     fill-rule="evenodd">
    <g
       id="ic-copy-liliac"
       transform="translate(2.000000, 2.000000)">
      <g
         id="Group_8993"
         transform="translate(3.000000, 2.000000)"
         fill="#B088FF"
         fill-rule="nonzero">
        <polygon
           id="Path_18959"
           points="2.5 13 0.5 13 0.5 0 10.5 0 10.5 2 2.5 2" />
      </g>
      <polygon
         id="Rectangle_4640"
         points="0 0 20 0 20 20 0 20" />
      <g
         id="Group_8994"
         transform="translate(6.000000, 5.000000)"
         fill="#B088FF"
         fill-rule="nonzero">
        <path
           d="M10.5,13 L0.5,13 L0.5,0 L10.5,0 L10.5,13 Z M2.5,11 L8.5,11 L8.5,2 L2.5,2 L2.5,11 Z"
           id="Path_18960" />
      </g>
    </g>
  </g>
  <path
     style="fill:#88aa00;stroke-width:0.10169491"
     d="M 5.4915254,10.505085 V 4.0474576 h 4.9830506 4.983051 V 5.0135593 5.979661 H 11.440678 7.4237288 v 5.491525 5.491526 H 6.4576271 5.4915254 Z"
     id="path826"
     inkscape:connector-curvature="0" />
  <path
     style="fill:#88aa00;stroke-width:0.10169491"
     d="M 8.5423729,13.506052 V 6.9966102 h 4.9838031 4.983804 l -0.02618,6.4830508 -0.02618,6.483051 -4.957627,0.02639 -4.9576271,0.02639 z m 7.9830511,-9.67e-4 V 8.979661 L 13.5,8.952724 10.474576,8.925787 v 4.579298 4.579297 L 13.5,18.057445 l 3.025424,-0.02694 z"
     id="path828"
     inkscape:connector-curvature="0" />
</svg>
