<?xml version="1.0" encoding="UTF-8" standalone="no"?>
<svg
   xmlns:dc="http://purl.org/dc/elements/1.1/"
   xmlns:cc="http://creativecommons.org/ns#"
   xmlns:rdf="http://www.w3.org/1999/02/22-rdf-syntax-ns#"
   xmlns:svg="http://www.w3.org/2000/svg"
   xmlns="http://www.w3.org/2000/svg"
   xmlns:sodipodi="http://sodipodi.sourceforge.net/DTD/sodipodi-0.dtd"
   xmlns:inkscape="http://www.inkscape.org/namespaces/inkscape"
   id="ic_peers_connection"
   width="24"
   height="24"
   viewBox="0 0 24 24"
   shape-rendering="geometricPrecision"
   version="1.1"
   sodipodi:docname="ic-check-peers-off.svg"
   inkscape:version="0.92.3 (2405546, 2018-03-11)">
  <metadata
     id="metadata11">
    <rdf:RDF>
      <cc:Work
         rdf:about="">
        <dc:format>image/svg+xml</dc:format>
        <dc:type
           rdf:resource="http://purl.org/dc/dcmitype/StillImage" />
      </cc:Work>
    </rdf:RDF>
  </metadata>
  <sodipodi:namedview
     pagecolor="#ffffff"
     bordercolor="#666666"
     borderopacity="1"
     objecttolerance="10"
     gridtolerance="10"
     guidetolerance="10"
     inkscape:pageopacity="0"
     inkscape:pageshadow="2"
     inkscape:window-width="1670"
     inkscape:window-height="1030"
     id="namedview9"
     showgrid="false"
     inkscape:zoom="9.8333333"
     inkscape:cx="12"
     inkscape:cy="12"
     inkscape:window-x="67"
     inkscape:window-y="27"
     inkscape:window-maximized="0"
     inkscape:current-layer="ic_peers_connection" />
  <defs
     id="defs4">
    <style
       type="text/css"
       id="style2">
            .cls-1{fill:#7c7687}.cls-2{fill:none}
        </style>
  </defs>
  <path
     id="Path_18890"
     d="M16.333 15L13 12.5V9h2.5V2h-7v7H11v3.5L7.667 15H2v7h7v-5.5l3-2.25 3 2.25V22h7v-7zM10.5 4h3v3h-3zM7 20H4v-3h3zm13 0h-3v-3h3z"
     class="cls-1"
     data-name="Path 18890" />
  <path
     id="Rectangle_4410"
     d="M0 0h24v24H0z"
     class="cls-2"
     data-name="Rectangle 4410" />
  <path
     style="fill:#445500;stroke-width:0.10169491"
     d="M 2.0745763,18.549153 V 15.091525 H 4.8550481 7.6355198 L 9.3296243,13.81888 11.023729,12.546233 V 10.768032 8.9898305 H 9.8033898 8.5830508 V 5.5322034 2.0745763 h 3.4576272 3.457627 v 3.4576271 3.4576271 h -1.271186 -1.271187 v 1.7683435 1.768344 l 1.713692,1.282503 1.713691,1.282504 h 2.813085 2.813085 l -0.02678,3.432204 -0.02678,3.432203 -3.432203,0.02678 -3.432204,0.02678 v -2.745474 -2.745475 l -1.542381,-1.159129 -1.542381,-1.159129 -1.508466,1.13085 -1.5084665,1.13085 v 2.772401 2.772401 H 5.5322034 2.0745763 Z m 4.9830508,-0.05085 V 16.922034 H 5.5322034 4.0067797 v 1.576271 1.576271 h 1.5254237 1.5254237 z m 12.9661019,0 v -1.525424 h -1.525424 -1.525424 l -0.02843,1.418832 c -0.01564,0.780358 -0.0052,1.479467 0.02328,1.553579 0.04039,0.105256 0.380464,0.128585 1.55385,0.106591 l 1.502144,-0.02815 z M 13.566102,5.5322034 V 4.0067797 h -1.576271 -1.576272 v 1.457627 c 0,0.801695 0.03051,1.4881357 0.0678,1.5254238 0.03729,0.037288 0.74661,0.067797 1.576271,0.067797 h 1.508475 z"
     id="path818"
     inkscape:connector-curvature="0" />
</svg>
