<?xml version="1.0" encoding="UTF-8" standalone="no"?>
<svg
   xmlns:dc="http://purl.org/dc/elements/1.1/"
   xmlns:cc="http://creativecommons.org/ns#"
   xmlns:rdf="http://www.w3.org/1999/02/22-rdf-syntax-ns#"
   xmlns:svg="http://www.w3.org/2000/svg"
   xmlns="http://www.w3.org/2000/svg"
   xmlns:sodipodi="http://sodipodi.sourceforge.net/DTD/sodipodi-0.dtd"
   xmlns:inkscape="http://www.inkscape.org/namespaces/inkscape"
   id="ic_check"
   width="16"
   height="16"
   viewBox="0 0 16 16"
   shape-rendering="geometricPrecision"
   version="1.1"
   sodipodi:docname="ic-check-dark.svg"
   inkscape:version="0.92.3 (2405546, 2018-03-11)">
  <metadata
     id="metadata11">
    <rdf:RDF>
      <cc:Work
         rdf:about="">
        <dc:format>image/svg+xml</dc:format>
        <dc:type
           rdf:resource="http://purl.org/dc/dcmitype/StillImage" />
      </cc:Work>
    </rdf:RDF>
  </metadata>
  <sodipodi:namedview
     pagecolor="#ffffff"
     bordercolor="#666666"
     borderopacity="1"
     objecttolerance="10"
     gridtolerance="10"
     guidetolerance="10"
     inkscape:pageopacity="0"
     inkscape:pageshadow="2"
     inkscape:window-width="1839"
     inkscape:window-height="1069"
     id="namedview9"
     showgrid="false"
     inkscape:zoom="14.75"
     inkscape:cx="8"
     inkscape:cy="8"
     inkscape:window-x="67"
     inkscape:window-y="27"
     inkscape:window-maximized="0"
     inkscape:current-layer="ic_check" />
  <defs
     id="defs4">
    <style
       type="text/css"
       id="style2">
            .cls-1{fill:none}.cls-2{fill:#5c4b7d}
        </style>
  </defs>
  <path
     id="Rectangle_3779"
     d="M0 0h16v16H0z"
     class="cls-1"
     data-name="Rectangle 3779" />
  <path
     id="Path_18587"
     d="M13.92 4.125a.655.655 0 0 0-.835 0L5.723 10.8 2.914 8.2a.655.655 0 0 0-.835 0l-.379.33 3.643 3.337a.624.624 0 0 0 .38.133.624.624 0 0 0 .38-.133l8.2-7.341z"
     class="cls-2"
     data-name="Path 18587" />
  <path
     style="fill:#445500;stroke-width:0.06779661"
     d="M 5.2532065,11.725455 C 5.1120785,11.604285 4.2678688,10.835978 3.3771849,10.018104 L 1.7577597,8.5310615 1.9698824,8.3415299 c 0.2401348,-0.2145605 0.48106,-0.2942911 0.7046939,-0.2332083 0.083898,0.022916 0.7932203,0.6362865 1.5762712,1.363046 0.7830508,0.7267594 1.4474728,1.3214874 1.4764932,1.3216164 0.02902,1.36e-4 1.6764781,-1.4727087 3.6610173,-3.272975 1.984538,-1.8002662 3.683685,-3.32569 3.77588,-3.3898305 0.271037,-0.1885616 0.516606,-0.1472903 0.822746,0.1382738 l 0.273259,0.254893 -4.144731,3.7112087 c -4.6342641,4.149539 -4.3406784,3.938759 -4.8623055,3.490901 z"
     id="path818"
     inkscape:connector-curvature="0" />
</svg>
