<?xml version="1.0" encoding="UTF-8" standalone="no"?>
<svg
   xmlns:dc="http://purl.org/dc/elements/1.1/"
   xmlns:cc="http://creativecommons.org/ns#"
   xmlns:rdf="http://www.w3.org/1999/02/22-rdf-syntax-ns#"
   xmlns:svg="http://www.w3.org/2000/svg"
   xmlns="http://www.w3.org/2000/svg"
   xmlns:sodipodi="http://sodipodi.sourceforge.net/DTD/sodipodi-0.dtd"
   xmlns:inkscape="http://www.inkscape.org/namespaces/inkscape"
   width="40px"
   height="40px"
   viewBox="0 0 40 40"
   version="1.1"
   id="svg20"
   sodipodi:docname="ic-combo-box.svg"
   inkscape:version="0.92.3 (2405546, 2018-03-11)">
  <metadata
     id="metadata26">
    <rdf:RDF>
      <cc:Work
         rdf:about="">
        <dc:format>image/svg+xml</dc:format>
        <dc:type
           rdf:resource="http://purl.org/dc/dcmitype/StillImage" />
      </cc:Work>
    </rdf:RDF>
  </metadata>
  <defs
     id="defs24" />
  <sodipodi:namedview
     pagecolor="#ffffff"
     bordercolor="#666666"
     borderopacity="1"
     objecttolerance="10"
     gridtolerance="10"
     guidetolerance="10"
     inkscape:pageopacity="0"
     inkscape:pageshadow="2"
     inkscape:window-width="1613"
     inkscape:window-height="993"
     id="namedview22"
     showgrid="false"
     inkscape:zoom="5.9"
     inkscape:cx="-6.779661"
     inkscape:cy="20"
     inkscape:window-x="67"
     inkscape:window-y="27"
     inkscape:window-maximized="0"
     inkscape:current-layer="svg20" />
  <!-- Generator: Sketch 52.6 (67491) - http://www.bohemiancoding.com/sketch -->
  <title
     id="title2">ComboBox</title>
  <desc
     id="desc4">Created with Sketch.</desc>
  <g
     id="ComboBox"
     stroke="none"
     stroke-width="1"
     fill="none"
     fill-rule="evenodd">
    <g
       id="Group"
       transform="translate(5.000000, 0.000000)">
      <g
         id="ic-arrow-drop-down"
         transform="translate(0.000000, 16.000000)">
        <g
           id="Group_8822"
           transform="translate(4.000000, 7.000000)"
           fill="#5C4B7D">
          <polygon
             id="Path_18879"
             points="8 9.365 0.319 2.233 1.681 0.767 8 6.635 14.319 0.767 15.68 2.233" />
        </g>
        <polygon
           id="Rectangle_4407"
           points="0 0 24 0 24 24 0 24" />
      </g>
      <g
         id="ic-arrow-drop-up">
        <g
           id="ic_arrow_drop_up"
           transform="translate(12.000000, 12.000000) rotate(180.000000) translate(-12.000000, -12.000000) translate(-0.000000, 0.000000)">
          <g
             id="g12"
             transform="translate(4.000000, 7.000000)"
             fill="#5C4B7D">
            <polygon
               id="polygon10"
               points="8 9.365 0.319 2.233 1.681 0.767 8 6.635 14.319 0.767 15.68 2.233" />
          </g>
          <polygon
             id="polygon14"
             points="0 0 24 0 24 24 0 24" />
        </g>
      </g>
    </g>
  </g>
  <path
     style="fill:#445500;stroke-width:0.16949153"
     d="M 13.178665,28.731657 9.4251272,25.237288 10.037055,24.599689 c 0.336561,-0.350679 0.664095,-0.617628 0.727854,-0.59322 0.06376,0.02441 1.497945,1.329335 3.18708,2.899837 l 3.071154,2.855459 2.412158,-2.253219 c 1.326686,-1.23927 2.735838,-2.558713 3.131449,-2.932094 l 0.719293,-0.678876 0.594267,0.575986 c 0.326846,0.316792 0.594266,0.631401 0.594266,0.69913 0,0.113756 -6.715832,6.439138 -7.288135,6.864413 -0.207474,0.154172 -0.944654,-0.453823 -4.007776,-3.305448 z"
     id="path833"
     inkscape:connector-curvature="0" />
  <path
     style="fill:#445500;stroke-width:0.16949153"
     d=""
     id="path835"
     inkscape:connector-curvature="0" />
  <path
     style="fill:#445500;stroke-width:0.16949153"
     d="M 10.053429,15.438031 9.4458416,14.764449 13.153208,11.314428 c 2.039052,-1.8975117 3.767977,-3.4500212 3.842056,-3.4500212 0.172368,0 7.479312,6.7727232 7.479312,6.9324882 0,0.06581 -0.26659,0.378048 -0.592422,0.693857 l -0.592422,0.574198 -0.4669,-0.425185 c -0.256795,-0.233851 -1.631814,-1.50694 -3.055599,-2.829085 -1.423785,-1.322145 -2.672431,-2.4039 -2.77477,-2.4039 -0.10234,0 -1.263696,1.006534 -2.580793,2.236743 -1.317096,1.230209 -2.699806,2.513796 -3.072687,2.852417 l -0.677966,0.615673 z"
     id="path837"
     inkscape:connector-curvature="0" />
  <path
     style="fill:#000000;stroke-width:0.16949153"
     d="m 15.916333,31.144068 c -1.631281,-1.416824 -6.3231127,-5.792921 -6.3231127,-5.897603 0,-0.05237 0.261391,-0.348572 0.5808687,-0.658222 l 0.580869,-0.563001 0.902182,0.831378 c 0.4962,0.457258 1.904816,1.764623 3.130258,2.905256 l 2.228075,2.073878 3.078487,-2.883979 c 1.693168,-1.586188 3.13601,-2.883978 3.206316,-2.883978 0.157211,0 1.038707,0.90599 1.038707,1.06757 0,0.217685 -7.066877,6.898531 -7.297141,6.898531 -0.05554,0 -0.562023,-0.400423 -1.125509,-0.88983 z"
     id="path827"
     inkscape:connector-curvature="0" />
  <path
     style="fill:#000000;stroke-width:0.16949153"
     d="M 10.006121,15.309721 9.5313311,14.687239 10.126499,14.165654 c 0.327342,-0.286873 1.979158,-1.799129 3.670702,-3.360569 1.691544,-1.5614409 3.125434,-2.8389833 3.186421,-2.8389833 0.263686,0 7.355361,6.6138743 7.355361,6.8597943 0,0.107486 -0.2283,0.414154 -0.507333,0.681485 l -0.507334,0.486056 -0.465882,-0.411973 c -0.256236,-0.226585 -1.038679,-0.945871 -1.738762,-1.598413 -0.700084,-0.652543 -1.904971,-1.741628 -2.677528,-2.420189 -1.311549,-1.151977 -1.427831,-1.217511 -1.754423,-0.988757 -0.192376,0.134745 -1.595547,1.395441 -3.118158,2.801545 -1.522612,1.406104 -2.840445,2.556553 -2.928518,2.556553 -0.08807,0 -0.373789,-0.280117 -0.634924,-0.622482 z"
     id="path829"
     inkscape:connector-curvature="0" />
</svg>
