<?xml version="1.0" encoding="UTF-8" standalone="no"?>
<svg
   xmlns:dc="http://purl.org/dc/elements/1.1/"
   xmlns:cc="http://creativecommons.org/ns#"
   xmlns:rdf="http://www.w3.org/1999/02/22-rdf-syntax-ns#"
   xmlns:svg="http://www.w3.org/2000/svg"
   xmlns="http://www.w3.org/2000/svg"
   xmlns:sodipodi="http://sodipodi.sourceforge.net/DTD/sodipodi-0.dtd"
   xmlns:inkscape="http://www.inkscape.org/namespaces/inkscape"
   width="30px"
   height="22px"
   viewBox="0 0 30 22"
   version="1.1"
   id="svg10"
   sodipodi:docname="ic-clear-liliac.svg"
   inkscape:version="0.92.3 (2405546, 2018-03-11)">
  <metadata
     id="metadata16">
    <rdf:RDF>
      <cc:Work
         rdf:about="">
        <dc:format>image/svg+xml</dc:format>
        <dc:type
           rdf:resource="http://purl.org/dc/dcmitype/StillImage" />
      </cc:Work>
    </rdf:RDF>
  </metadata>
  <defs
     id="defs14" />
  <sodipodi:namedview
     pagecolor="#ffffff"
     bordercolor="#666666"
     borderopacity="1"
     objecttolerance="10"
     gridtolerance="10"
     guidetolerance="10"
     inkscape:pageopacity="0"
     inkscape:pageshadow="2"
     inkscape:window-width="1832"
     inkscape:window-height="950"
     id="namedview12"
     showgrid="false"
     inkscape:zoom="10.727273"
     inkscape:cx="15"
     inkscape:cy="11"
     inkscape:window-x="67"
     inkscape:window-y="27"
     inkscape:window-maximized="0"
     inkscape:current-layer="svg10" />
  <!-- Generator: Sketch 52.6 (67491) - http://www.bohemiancoding.com/sketch -->
  <title
     id="title2">Clear Purple</title>
  <desc
     id="desc4">Created with Sketch.</desc>
  <g
     id="Clear-Purple"
     stroke="none"
     stroke-width="1"
     fill="none"
     fill-rule="evenodd">
    <g
       id="ic-clear-purple"
       transform="translate(5.000000, 3.000000)">
      <polygon
         id="Path_18950"
         fill="#b088ff"
         points="13.707 3.707 12.293 2.293 8 6.586 3.707 2.293 2.293 3.707 6.586 8 2.293 12.293 3.707 13.707 8 9.414 12.293 13.707 13.707 12.293 9.414 8" />
      <polygon
         id="Rectangle_4602"
         points="0 0 16 0 16 16 0 16" />
    </g>
  </g>
  <path
     style="fill:#88aa00;stroke-width:0.09322034"
     d="M 8.0115164,15.953187 7.338716,15.275867 9.4820856,13.134017 11.625455,10.992167 9.480567,8.8458207 7.3356788,6.6994749 8.0138044,6.0258751 8.6919299,5.3522753 10.83378,7.4956449 l 2.14185,2.1433697 2.146346,-2.1448883 2.146346,-2.1448882 0.69607,0.7007466 0.69607,0.7007467 -2.141759,2.1432783 -2.141759,2.1432783 2.142526,2.144046 2.142526,2.144046 -0.675088,0.675088 -0.675087,0.675087 -2.144046,-2.142526 -2.144046,-2.142526 -2.121507,2.120003 c -1.1668286,1.166001 -2.1431964,2.120002 -2.1697059,2.120002 -0.026509,0 -0.3509594,-0.304794 -0.7209997,-0.677321 z"
     id="path823"
     inkscape:connector-curvature="0" />
</svg>
