<?xml version="1.0" encoding="UTF-8" standalone="no"?>
<svg
   xmlns:dc="http://purl.org/dc/elements/1.1/"
   xmlns:cc="http://creativecommons.org/ns#"
   xmlns:rdf="http://www.w3.org/1999/02/22-rdf-syntax-ns#"
   xmlns:svg="http://www.w3.org/2000/svg"
   xmlns="http://www.w3.org/2000/svg"
   xmlns:sodipodi="http://sodipodi.sourceforge.net/DTD/sodipodi-0.dtd"
   xmlns:inkscape="http://www.inkscape.org/namespaces/inkscape"
   width="24"
   height="24"
   viewBox="0 0 24 24"
   version="1.1"
   id="svg10"
   sodipodi:docname="ic-check-active.svg"
   inkscape:version="0.92.3 (2405546, 2018-03-11)">
  <metadata
     id="metadata14">
    <rdf:RDF>
      <cc:Work
         rdf:about="">
        <dc:format>image/svg+xml</dc:format>
        <dc:type
           rdf:resource="http://purl.org/dc/dcmitype/StillImage" />
      </cc:Work>
    </rdf:RDF>
  </metadata>
  <sodipodi:namedview
     pagecolor="#ffffff"
     bordercolor="#666666"
     borderopacity="1"
     objecttolerance="10"
     gridtolerance="10"
     guidetolerance="10"
     inkscape:pageopacity="0"
     inkscape:pageshadow="2"
     inkscape:window-width="1613"
     inkscape:window-height="993"
     id="namedview12"
     showgrid="false"
     inkscape:zoom="9.8333333"
     inkscape:cx="-4.0677967"
     inkscape:cy="12"
     inkscape:window-x="67"
     inkscape:window-y="27"
     inkscape:window-maximized="0"
     inkscape:current-layer="svg10" />
  <defs
     id="defs4">
    <style
       type="text/css"
       id="style2">
            .cls-1{fill:#5c4b7d;fill-rule:evenodd}.cls-2{fill:none}
        </style>
  </defs>
  <g
     id="check_active"
     transform="translate(-290 -244)">
    <g
       id="Group_8199"
       data-name="Group 8199"
       transform="translate(291 245)">
      <path
         id="check_on_light"
         d="M22.556 3H5.444A2.452 2.452 0 0 0 3 5.444v17.112A2.452 2.452 0 0 0 5.444 25h17.112A2.452 2.452 0 0 0 25 22.556V5.444A2.452 2.452 0 0 0 22.556 3zm-11 17.111l-6.112-5.876 1.712-1.645 4.4 4.231 9.289-8.932 1.711 1.645-11 10.577z"
         class="cls-1"
         transform="translate(-3 -3)" />
    </g>
    <path
       id="Rectangle_4538"
       d="M0 0h24v24H0z"
       class="cls-2"
       data-name="Rectangle 4538"
       transform="translate(290 244)" />
  </g>
  <path
     style="fill:#445500;stroke-width:0.10169491"
     d="M 2.5242997,22.777787 C 2.0074842,22.552747 1.5032947,22.038956 1.2722605,21.501902 L 1.0544312,20.995544 1.0814529,11.857551 1.1084746,2.7195585 1.4162477,2.2217896 C 1.6069651,1.9133378 1.9133378,1.6069651 2.2217896,1.4162477 l 0.4977689,-0.3077731 9.1379925,-0.027022 9.137993,-0.027022 0.506358,0.2178293 c 0.548514,0.2359641 1.058415,0.7436331 1.280312,1.2747043 0.115165,0.2756319 0.139426,1.9445879 0.137587,9.4650228 -0.0025,10.256291 0.04788,9.576489 -0.762542,10.288046 -0.748015,0.656766 -0.181122,0.622382 -10.189586,0.61802 -7.4016081,-0.0032 -9.1896472,-0.02979 -9.4433733,-0.140266 z M 15.192384,12.754774 c 2.936901,-2.8233495 5.351513,-5.1580064 5.365805,-5.1881271 0.01429,-0.030121 -0.360828,-0.4395697 -0.833601,-0.9098866 l -0.859587,-0.8551218 -2.166399,2.087119 c -1.19152,1.1479155 -3.287116,3.1639775 -4.656881,4.4801375 l -2.4904826,2.393019 -2.18435,-2.10965 -2.18435,-2.10965 -0.8934209,0.823932 c -0.4913816,0.453164 -0.8817748,0.848571 -0.8675404,0.878684 0.014234,0.03011 1.3929533,1.370218 3.0638198,2.978012 2.6369081,2.537368 3.0596698,2.906207 3.2025539,2.794078 0.090538,-0.07105 2.5675332,-2.439198 5.5044332,-5.262546 z"
     id="path821"
     inkscape:connector-curvature="0" />
  <path
     style="fill:#000000;stroke-width:0.10169491"
     d="M 3.0955605,22.789084 C 2.2653251,22.715207 1.7846087,22.374273 1.3461728,21.548381 L 1.0550575,21 1.1039954,11.834357 1.1529332,2.6687137 1.4682437,2.2104257 C 1.6416644,1.9583672 1.9987443,1.6096016 2.2617545,1.4353909 l 0.4782003,-0.3167468 9.2113782,9.539e-4 9.211379,9.539e-4 0.533767,0.3061126 c 0.313111,0.1795681 0.649431,0.480909 0.813559,0.7289467 l 0.279792,0.4228339 v 9.4141669 c 0,7.001379 -0.03068,9.482539 -0.119703,9.680942 -0.06584,0.146727 -0.323997,0.43418 -0.573691,0.638786 -0.404496,0.331454 -0.54666,0.382665 -1.304026,0.46974 -0.906589,0.104234 -16.5346785,0.110417 -17.6968495,0.007 z M 13.994042,13.932203 c 2.356127,-2.265254 4.816842,-4.625372 5.468256,-5.2447066 l 1.18439,-1.126063 -0.8781,-0.9078353 -0.8781,-0.9078353 -0.846939,0.8163879 c -4.768871,4.5968473 -8.4568824,8.1327643 -8.4825872,8.1327643 -0.017317,0 -0.991141,-0.926695 -2.1640533,-2.059322 -1.1729123,-1.132627 -2.1706886,-2.058267 -2.2172805,-2.056977 -0.046592,0.0013 -0.4736958,0.367818 -0.9491196,0.814507 l -0.8644067,0.812162 1.9322033,1.893196 c 2.3966007,2.348216 4.2156227,4.022363 4.3272027,3.982566 0.046568,-0.01661 2.0124073,-1.883589 4.3685343,-4.148844 z"
     id="path817"
     inkscape:connector-curvature="0" />
</svg>
