<?xml version="1.0" encoding="UTF-8" standalone="no"?>
<!-- Generator: Adobe Illustrator 24.0.1, SVG Export Plug-In . SVG Version: 6.00 Build 0)  -->

<svg
   xmlns:dc="http://purl.org/dc/elements/1.1/"
   xmlns:cc="http://creativecommons.org/ns#"
   xmlns:rdf="http://www.w3.org/1999/02/22-rdf-syntax-ns#"
   xmlns:svg="http://www.w3.org/2000/svg"
   xmlns="http://www.w3.org/2000/svg"
   xmlns:sodipodi="http://sodipodi.sourceforge.net/DTD/sodipodi-0.dtd"
   xmlns:inkscape="http://www.inkscape.org/namespaces/inkscape"
   version="1.1"
   id="ic-transaction-staked"
   x="0px"
   y="0px"
   viewBox="0 0 24 24"
   style="enable-background:new 0 0 24 24;"
   xml:space="preserve"
   sodipodi:docname="ic-check-tor-off.svg"
   inkscape:version="0.92.3 (2405546, 2018-03-11)"><metadata
   id="metadata18"><rdf:RDF><cc:Work
       rdf:about=""><dc:format>image/svg+xml</dc:format><dc:type
         rdf:resource="http://purl.org/dc/dcmitype/StillImage" /></cc:Work></rdf:RDF></metadata><defs
   id="defs16" /><sodipodi:namedview
   pagecolor="#ffffff"
   bordercolor="#666666"
   borderopacity="1"
   objecttolerance="10"
   gridtolerance="10"
   guidetolerance="10"
   inkscape:pageopacity="0"
   inkscape:pageshadow="2"
   inkscape:window-width="1324"
   inkscape:window-height="903"
   id="namedview14"
   showgrid="false"
   inkscape:zoom="9.8333333"
   inkscape:cx="12"
   inkscape:cy="12"
   inkscape:window-x="67"
   inkscape:window-y="27"
   inkscape:window-maximized="0"
   inkscape:current-layer="ic-transaction-staked" />
<style
   type="text/css"
   id="style2">
	.st0{fill:none;}
	.st1{fill:#7c7687;}
</style>
<path
   id="Rectangle_4527"
   class="st0"
   d="M0,0h24v24H0V0z" />
<g
   id="g11">
	<g
   id="g9">
		<path
   class="st1"
   d="M16.5,12c-0.7-0.6-1.6-1.1-2.5-1.6c-0.4-0.2-1.6-1.2-1.2-2.6l-0.9-0.1c1.2-1.9,2.9-3.9,4.9-5.7    c-1.6,0.5-2.9,1.3-4,2.8c0.6-1.3,1.6-2.5,2.7-3.8C14,2,12.7,3.3,11.9,4.9l0.6-2.3c-0.9,1.5-1.5,3.1-1.7,4.7L9.7,6.5L9.5,6.7    c1,1.9,0.5,2.9,0,3.2c-1,0.7-2.6,1.6-3.3,2.4c-1.5,1.5-1.9,2.9-1.7,4.8c0.1,2.4,1.9,4.4,4.2,5.2c1,0.3,2,0.4,3,0.4    c1.7,0,3.4-0.5,4.7-1.5c1.3-1.1,2.1-2.8,2.1-4.6C18.5,14.9,17.8,13.2,16.5,12z M9.9,7L9.9,7L9.9,7C9.9,7,9.9,7,9.9,7z M13.6,20.7    c-0.3,0.7-0.9,1.4-1.3,1.7c-0.2,0-0.5,0-0.7,0c-0.6,0-1.3-0.1-1.9-0.2c-0.7-0.2-1.2-0.5-1.6-1c0,0-0.1-0.1-0.1-0.1    c-0.7-0.8-1.5-2.1-1.9-3.3C6,17.4,5.9,17,6.1,16.5c0.6-2,1.8-2.7,3-3.6c0.3-0.2,0.6-0.3,0.9-0.5c0.5-0.4,0.8-1.5,1.1-2.4    c-0.1,0.7-0.3,2.1-1,2.6c-0.3,0.2-0.6,0.4-0.9,0.6c-1.2,0.8-2.4,1.5-2.9,3.4c-0.1,0.4,0,0.8,0.1,1.2c0.3,1.2,1.1,2.4,1.8,3.1    c0,0,0.1,0.1,0.1,0.1c0.4,0.5,0.6,0.7,1.6,1c-0.2-0.1-0.4-0.2-0.6-0.4c-1.1-0.8-1.7-1.8-1.8-3.2c-0.1-1.1,0.6-2.3,2-3    c0.9-0.5,1.2-1.2,1.5-2.1c-0.2,1-0.4,1.7-1.4,2.2c-1.1,0.7-2,2-1.9,2.9c0.1,1.1,0.9,2.3,1.7,3.1c0.4,0.4,1.1,0.6,1.8,0.7    c0,0,0,0,0,0c-0.2-0.1-0.5-0.3-0.7-0.6c-0.2-0.2-0.3-0.6-0.4-0.9C10,20.3,9.8,20,9.8,19.7c0-0.7,0.1-1.5,0.6-2.1    c0.4-0.5,0.6-0.6,0.8-1.1c0-1.7,0-3.2,0-4.5c0-1.4,0-2.5,0-3.2c0-0.7,0-1.1,0-1.1l0.1,0c0,0.2,0,0.7,0,1.5c0,0.8,0,1.9,0,3.3    c0,1.4,0,3,0,4.7c0,1.2,0,2.4,0,3.7c0,0.4,0,0.8,0,1.1c0,0,0,0,0,0c0.3-0.5,0.4-1.5,0.5-2.1c0-0.5,0.1-1,0-1.6    c-0.1-0.7-0.3-1.5-0.3-2c0.1,0.5,0.4,1.3,0.5,2c0.1,0.6,0.1,1.1,0.1,1.6c0,0.5-0.1,0.9-0.1,1.3c-0.1,0.3-0.3,0.7-0.6,1v0l0,0h0    c0,0,0,0,0,0c0,0,0,0,0,0c0,0,0,0,0,0c0.6-0.4,1-1.1,1.1-1.9c0.2-1,0.2-1.9,0.2-2.4c0-0.4-0.2-1.1-0.4-1.7c-0.1-0.5-0.6-1-0.7-1.3    c-0.2-0.6-0.1-1-0.1-1.9c0.1,0.8,0.1,1.4,0.3,1.7c0.2,0.3,0.4,0.7,0.6,1.2c0.3,0.8,0.5,1.7,0.5,2.1c0,0.7-0.1,1.8-0.3,2.6    c-0.1,0.3-0.2,0.5-0.3,0.8c0.2-0.4,0.4-0.9,0.5-1.3c0.3-1.5,0.6-3,0.4-3.9c0-0.2-0.1-0.9-0.4-1.7c-0.4-1.1-1-2-1.1-2.2    c-0.2-0.6-0.3-2.2-0.3-3c0,1,0.2,2.5,0.4,2.8c0.1,0.2,0.7,1.2,1.2,2.3c0.3,0.7,0.4,1.4,0.4,1.6c0.2,2,0,2.8-0.5,4.6    c-0.1,0.4-0.4,0.8-0.6,1.2c0.5-0.5,0.9-1.2,1-1.7c0.5-2.2,0.7-5.1,0-7.3c-0.4-1.1-1.3-2.1-1.5-2.8c-0.2-0.6-0.1-0.9-0.1-1.8    c0,1,0.3,1.7,0.4,2.1c0.1,0.2,0.9,1.2,1.3,2.3c0.3,0.7,0.6,2.5,0.6,2.6C14.3,17.2,14.2,19.1,13.6,20.7z"
   id="path5" />
		<path
   class="st1"
   d="M11.2,16.5c-0.1,0.6-0.2,0.7-0.6,1.2c-0.5,0.8-0.6,1.5-0.5,2c0,0.3,0.2,0.6,0.3,0.8c0.1,0.3,0.3,0.6,0.5,0.9    c0.1,0.2,0.2,0.3,0.4,0.4c0-1.7,0-3.5,0-5.1C11.2,16.7,11.2,16.6,11.2,16.5z"
   id="path7" />
	</g>
</g>
<path
   style="fill:#000000;stroke-width:0.10169491"
   d="M 10.251884,22.578842 C 7.9990072,22.293142 6.0691093,21.037139 5.1695402,19.271186 4.7381209,18.424263 4.6109672,17.934811 4.5222725,16.779661 4.3360501,14.354319 5.3935658,12.672349 8.3397519,10.707994 9.0952595,10.204263 9.7805214,9.7112452 9.8625561,9.6123994 9.9491004,9.5081199 10.027654,9.1497715 10.049693,8.7587127 10.085276,8.1273491 9.9938893,7.7169051 9.6109403,6.7881356 9.4953982,6.5079104 9.7349768,6.5724877 10.271186,6.9661017 c 0.266683,0.1957627 0.507172,0.3559322 0.534422,0.3559322 0.02725,0 0.08005,-0.2299861 0.117342,-0.5110803 0.124194,-0.9362204 1.149026,-3.6967204 1.254704,-3.3796863 0.01995,0.059865 -0.03474,0.3829087 -0.121534,0.717875 -0.0868,0.3349661 -0.157809,0.6481866 -0.157801,0.6960453 7e-6,0.047859 0.233534,-0.2790859 0.518947,-0.7265435 0.490167,-0.7684602 2.20584,-2.5932204 2.438194,-2.5932204 0.115083,0 0.11987,-0.00728 -0.737901,1.1215535 -0.573172,0.754296 -1.304,1.8993901 -1.304,2.0431662 0,0.041244 0.377543,-0.3014258 0.838983,-0.7614893 0.683055,-0.6810156 1.018683,-0.9253717 1.805865,-1.3147701 0.531786,-0.2630599 0.990729,-0.4782908 1.019874,-0.4782908 0.02915,0 -0.451714,0.5172218 -1.068577,1.1493818 -0.616863,0.63216 -1.37953,1.4673295 -1.694817,1.8559322 -0.68131,0.8397397 -1.812225,2.4041657 -1.814778,2.5104333 -9.92e-4,0.041288 0.181247,0.1043404 0.404976,0.1401162 l 0.406779,0.065047 v 0.4888569 c 0,1.0536199 0.42799,1.5819599 2.064656,2.5487554 2.546326,1.504141 3.63026,3.200735 3.63026,5.682155 0,3.527577 -2.528532,5.8962 -6.457627,6.049237 -0.559322,0.02179 -1.323094,8.13e-4 -1.697269,-0.04667 z m 2.53149,-0.587317 c 0.950444,-1.029531 1.373252,-2.45022 1.384635,-4.652542 0.01361,-2.634047 -0.524832,-4.749397 -1.656682,-6.508475 C 12.08223,10.163623 11.803448,9.3472797 11.784398,8.7018813 l -0.01221,-0.4137457 -0.100283,0.4149079 c -0.151402,0.6264098 0.05296,1.4105115 0.597302,2.2917825 0.255113,0.413015 0.592773,1.005655 0.750357,1.316978 0.52651,1.040171 0.786588,2.987957 0.646812,4.844117 l -0.08271,1.098316 -0.07651,-1.309545 c -0.09628,-1.64783 -0.237259,-2.133593 -1.099749,-3.789273 -0.640989,-1.230477 -0.708725,-1.421665 -0.856794,-2.418333 -0.08843,-0.595225 -0.160779,-1.5128859 -0.160779,-2.0392477 0,-0.528317 -0.04555,-0.9851758 -0.101695,-1.0198722 -0.06721,-0.041537 -0.101695,1.454326 -0.101695,4.4109919 v 4.473843 l -0.516804,0.642328 c -0.641758,0.797633 -0.8049367,1.17536 -0.870573,2.01521 -0.043677,0.55887 -0.00608,0.78366 0.243275,1.454672 0.162215,0.436509 0.413225,0.928458 0.5578,1.09322 0.334581,0.381295 0.143749,0.399303 -0.593518,0.05601 -1.0142063,-0.472247 -2.2173374,-2.37494 -2.2237874,-3.516809 -0.00554,-0.98087 0.7074178,-1.98619 2.0757224,-2.926912 0.587711,-0.404057 0.974037,-0.997039 1.076078,-1.651703 0.04927,-0.316096 0.02605,-0.293332 -0.20746,0.203389 -0.321685,0.684288 -0.747495,1.138161 -1.4404218,1.535352 -0.7691343,0.440873 -1.4842838,1.26815 -1.7062164,1.973732 -0.3549464,1.128467 0.1087223,2.668015 1.1029706,3.662264 0.6507708,0.65077 0.5765341,0.754483 -0.096192,0.134385 -1.3488791,-1.243354 -2.4495108,-3.485663 -2.2449237,-4.573568 0.1168067,-0.621127 0.6589828,-1.607629 1.1575579,-2.106205 0.2698822,-0.269882 0.9735714,-0.81467 1.563754,-1.210639 0.5901826,-0.395969 1.1937014,-0.86332 1.3411534,-1.038557 0.291359,-0.34626 0.556535,-1.110879 0.636181,-1.834391 0.04706,-0.42752 0.03161,-0.407327 -0.23491,0.30693 -0.378445,1.014216 -0.631857,1.43 -1.0213486,1.675775 -1.2024468,0.758762 -1.5900855,1.03636 -2.1320954,1.526851 -1.0111342,0.915024 -1.6769831,2.174763 -1.6721607,3.16361 0.00687,1.409662 1.9123463,4.365765 3.1527378,4.891082 0.458931,0.194361 1.7903589,0.41208 2.6032519,0.425691 0.59116,0.0099 0.608162,0.0022 1.046862,-0.47299 z"
   id="path3724"
   inkscape:connector-curvature="0" /><path
   style="fill:#000000;stroke-width:0.10169491"
   d="m 12.927651,18.291037 c -0.01487,-0.931936 -0.365897,-2.225665 -0.881894,-3.250298 -0.251543,-0.499497 -0.380542,-0.918654 -0.429141,-1.394408 -0.06599,-0.645998 -0.07272,-0.659759 -0.133705,-0.27345 -0.03532,0.223729 -0.06513,-0.233898 -0.06625,-1.016949 -0.0017,-1.17828 0.01295,-1.321189 0.08486,-0.828944 0.05742,0.393049 0.273678,0.962171 0.637603,1.677966 0.302892,0.59575 0.648286,1.400436 0.767542,1.788192 0.290583,0.944814 0.361335,2.236933 0.178566,3.261091 l -0.145186,0.81356 z"
   id="path3726"
   inkscape:connector-curvature="0" /><path
   style="fill:#000000;stroke-width:0.10169491"
   d="m 11.002856,21.483051 c -0.108589,-0.153814 -0.347616,-0.577119 -0.531172,-0.940678 -0.5349069,-1.059459 -0.420794,-2.070524 0.347353,-3.077616 0.140636,-0.184383 0.300815,-0.448281 0.355954,-0.58644 0.07009,-0.175618 0.102192,0.521402 0.106699,2.316598 0.0035,1.412288 -0.01332,2.567797 -0.03748,2.567797 -0.02416,0 -0.132768,-0.125848 -0.241357,-0.279661 z"
   id="path3728"
   inkscape:connector-curvature="0" /><path
   style="fill:#000000;stroke-width:0.10169491"
   d="m 11.411485,17.949153 c -4.59e-4,-2.01356 0.03354,-3.516803 0.07555,-3.340541 0.04201,0.176261 0.220435,0.55458 0.396491,0.840707 0.176056,0.286128 0.411573,0.850316 0.523371,1.253752 0.334636,1.207574 0.242529,3.40188 -0.183862,4.380217 -0.17088,0.392076 -0.172192,0.382416 -0.172192,-1.26783 0,-1.454416 -0.03153,-1.777672 -0.251495,-2.57817 -0.307779,-1.120089 -0.386959,-0.894403 -0.149297,0.425543 0.193626,1.075374 0.156245,2.383994 -0.09678,3.388016 -0.12793,0.507637 -0.141032,0.221018 -0.141791,-3.101694 z"
   id="path3730"
   inkscape:connector-curvature="0" /></svg>