<?xml version="1.0" encoding="UTF-8" standalone="no"?>
<svg
   xmlns:dc="http://purl.org/dc/elements/1.1/"
   xmlns:cc="http://creativecommons.org/ns#"
   xmlns:rdf="http://www.w3.org/1999/02/22-rdf-syntax-ns#"
   xmlns:svg="http://www.w3.org/2000/svg"
   xmlns="http://www.w3.org/2000/svg"
   xmlns:sodipodi="http://sodipodi.sourceforge.net/DTD/sodipodi-0.dtd"
   xmlns:inkscape="http://www.inkscape.org/namespaces/inkscape"
   id="ic_mint_on"
   width="24"
   height="24"
   viewBox="0 0 24 24"
   shape-rendering="geometricPrecision"
   version="1.1"
   sodipodi:docname="ic-check-mint-off.svg"
   inkscape:version="0.92.3 (2405546, 2018-03-11)">
  <metadata
     id="metadata14">
    <rdf:RDF>
      <cc:Work
         rdf:about="">
        <dc:format>image/svg+xml</dc:format>
        <dc:type
           rdf:resource="http://purl.org/dc/dcmitype/StillImage" />
      </cc:Work>
    </rdf:RDF>
  </metadata>
  <sodipodi:namedview
     pagecolor="#ffffff"
     bordercolor="#666666"
     borderopacity="1"
     objecttolerance="10"
     gridtolerance="10"
     guidetolerance="10"
     inkscape:pageopacity="0"
     inkscape:pageshadow="2"
     inkscape:window-width="1613"
     inkscape:window-height="985"
     id="namedview12"
     showgrid="false"
     inkscape:zoom="9.8333333"
     inkscape:cx="-4.0677967"
     inkscape:cy="12"
     inkscape:window-x="67"
     inkscape:window-y="27"
     inkscape:window-maximized="0"
     inkscape:current-layer="ic_mint_on" />
  <defs
     id="defs4">
    <style
       type="text/css"
       id="style2">
            .cls-1{fill:#7c7687}.cls-2{fill:none}
        </style>
  </defs>
  <g
     id="Group_9004"
     data-name="Group 9004">
    <path
       id="Path_18964"
       d="M6 5h12v2.586l-.793-.793-1.414 1.414L19 11.414l3.207-3.207-1.414-1.414-.793.793V3H4v7h2z"
       class="cls-1"
       data-name="Path 18964" />
    <path
       id="Path_18965"
       d="M12 8a4 4 0 1 0 4 4 4 4 0 0 0-4-4zm0 6a2 2 0 1 1 2-2 2 2 0 0 1-2 2z"
       class="cls-1"
       data-name="Path 18965" />
    <path
       id="Path_18966"
       d="M18 19H6v-2.586l.793.793 1.414-1.414L5 12.586l-3.207 3.207 1.414 1.414.793-.793V21h16v-7h-2z"
       class="cls-1"
       data-name="Path 18966" />
  </g>
  <path
     id="Rectangle_4647"
     d="M0 0h24v24H0z"
     class="cls-2"
     data-name="Rectangle 4647" />
  <path
     style="fill:#445500;stroke-width:0.10169491"
     d="m 4.0271186,18.681056 v -2.308774 l -0.4087241,0.399108 -0.4087243,0.399109 -0.6834099,-0.68341 -0.68341,-0.68341 1.5743676,-1.57683 1.5743677,-1.576829 1.5754123,1.575412 1.5754121,1.575412 -0.6557388,0.66162 -0.6557389,0.66162 -0.3638217,-0.355262 C 6.2670087,16.573427 6.0708964,16.413559 6.0313055,16.413559 c -0.039591,0 -0.071983,0.594916 -0.071983,1.322034 v 1.322034 h 6.0508475 6.050847 v -2.491525 -2.491526 h 0.966102 0.966101 v 3.457627 3.457628 H 12.010169 4.0271186 Z"
     id="path821"
     inkscape:connector-curvature="0" />
  <path
     style="fill:#445500;stroke-width:0.10169491"
     d="M 10.680323,15.725653 C 7.9388022,14.747698 7.1864394,11.229887 9.275275,9.1560917 9.4930263,8.9399082 9.9686441,8.6195692 10.332203,8.4442273 c 0.60563,-0.2920905 0.746408,-0.3188036 1.680105,-0.3188036 0.943666,0 1.06864,0.024395 1.688644,0.3296217 0.806371,0.3969752 1.520495,1.1243451 1.901076,1.9363376 0.238665,0.509205 0.272548,0.707927 0.272548,1.598448 0,0.901138 -0.03267,1.087646 -0.286912,1.637753 -0.348167,0.753345 -1.12706,1.547129 -1.899528,1.935845 -0.738492,0.371619 -2.199861,0.450436 -3.007813,0.162224 z m 2.230352,-1.920486 c 0.744663,-0.376942 1.082545,-0.951933 1.082545,-1.842223 0,-1.157518 -0.835885,-1.958138 -2.040582,-1.954491 -1.793302,0.0054 -2.6466233,2.130033 -1.368745,3.407911 0.648653,0.648653 1.524358,0.794983 2.326782,0.388803 z"
     id="path823"
     inkscape:connector-curvature="0" />
  <path
     style="fill:#445500;stroke-width:0.10169491"
     d="M 17.451723,9.7534194 15.878751,8.1779875 16.534079,7.5167822 17.189407,6.855577 17.553229,7.2108394 c 0.200101,0.1953942 0.396213,0.3552623 0.435804,0.3552623 0.03959,0 0.07198,-0.5949153 0.07198,-1.3220339 V 4.9220339 H 12.010169 5.959322 V 7.4644068 10.00678 H 4.9932203 4.0271186 V 6.5491525 3.0915254 h 7.9830504 7.983051 v 2.2579269 2.257927 l 0.384852,-0.3757972 0.384851,-0.3757972 0.682286,0.6875551 0.682287,0.6875552 -1.5514,1.5489781 -1.551401,1.5489777 z"
     id="path825"
     inkscape:connector-curvature="0" />
  <path
     style="fill:#000000;stroke-width:0.10169491"
     d="m 4.0271186,18.69116 v -2.29867 l -0.3594708,0.315619 c -0.1977089,0.173591 -0.393633,0.31562 -0.4353868,0.31562 -0.041754,0 -0.3452092,-0.272133 -0.6743455,-0.60474 L 1.9594861,15.81425 3.4117979,14.283396 c 0.7987714,-0.841969 1.5048152,-1.530854 1.568986,-1.530854 0.064171,0 0.7933226,0.677779 1.6203369,1.506174 l 1.5036627,1.506173 -0.603279,0.654844 -0.6032789,0.654843 -0.4126412,-0.330508 c -0.2269525,-0.18178 -0.4382059,-0.330509 -0.4694518,-0.330509 -0.031246,0 -0.056811,0.594916 -0.056811,1.322034 v 1.322034 h 6.0508474 6.050848 v -2.491525 -2.491526 h 0.966102 0.966101 v 3.457627 3.457628 H 12.010169 4.0271186 Z"
     id="path820"
     inkscape:connector-curvature="0" />
  <path
     style="fill:#000000;stroke-width:0.10169491"
     d="M 11.211914,15.798411 C 9.2173988,15.463744 7.8104914,13.393501 8.1874086,11.347898 8.4268912,10.048179 9.1471027,9.0896117 10.327232,8.4998942 c 0.600551,-0.3000991 0.722883,-0.323623 1.682937,-0.323623 0.947682,0 1.087168,0.025913 1.647987,0.3061576 0.685535,0.342566 1.507119,1.1475913 1.874681,1.8368972 0.213917,0.401169 0.240044,0.58299 0.240044,1.670505 0,1.415963 -0.119277,1.739165 -0.976231,2.645268 -0.668738,0.707092 -1.322961,1.047273 -2.244083,1.166872 -0.410183,0.05326 -0.768669,0.09286 -0.796635,0.08801 -0.02797,-0.0049 -0.272774,-0.04606 -0.544018,-0.09157 z m 1.470469,-1.880328 c 0.872556,-0.307855 1.310837,-0.952833 1.310837,-1.929037 0,-1.299621 -0.868935,-2.061554 -2.238122,-1.962516 -1.719366,0.124368 -2.4163172,2.144722 -1.169844,3.391195 0.636844,0.636844 1.277231,0.789635 2.097129,0.500358 z"
     id="path822"
     inkscape:connector-curvature="0" />
  <path
     style="fill:#000000;stroke-width:0.10169491"
     d="M 17.494522,9.7358359 C 16.715416,8.9156303 16.077966,8.2094502 16.077966,8.1665468 c 0,-0.1190089 0.964921,-1.2106146 1.070118,-1.2106146 0.05076,0 0.248659,0.1372882 0.439769,0.3050848 0.191109,0.1677966 0.375752,0.3050847 0.410318,0.3050847 0.03457,0 0.06285,-0.5949152 0.06285,-1.3220339 V 4.9220339 H 12.010169 5.959322 V 7.4644068 10.00678 H 4.9932203 4.0271186 V 6.5491526 3.0915255 h 7.9811054 7.981105 l 0.02737,2.2392413 0.02737,2.2392412 0.388705,-0.3204998 0.388706,-0.3205 0.407948,0.394818 c 0.22437,0.2171499 0.501975,0.5251866 0.616898,0.6845261 l 0.208952,0.2897082 -1.461916,1.4645291 c -0.804054,0.8054914 -1.511499,1.4645294 -1.572099,1.4645294 -0.0606,0 -0.747634,-0.671078 -1.52674,-1.4912831 z"
     id="path824"
     inkscape:connector-curvature="0" />
</svg>
