<?xml version="1.0" encoding="UTF-8" standalone="no"?>
<svg
   xmlns:dc="http://purl.org/dc/elements/1.1/"
   xmlns:cc="http://creativecommons.org/ns#"
   xmlns:rdf="http://www.w3.org/1999/02/22-rdf-syntax-ns#"
   xmlns:svg="http://www.w3.org/2000/svg"
   xmlns="http://www.w3.org/2000/svg"
   xmlns:sodipodi="http://sodipodi.sourceforge.net/DTD/sodipodi-0.dtd"
   xmlns:inkscape="http://www.inkscape.org/namespaces/inkscape"
   id="ic_error_sync"
   width="24"
   height="24"
   viewBox="0 0 24 24"
   shape-rendering="geometricPrecision"
   version="1.1"
   sodipodi:docname="ic-check-sync-off.svg"
   inkscape:version="0.92.3 (2405546, 2018-03-11)">
  <metadata
     id="metadata19">
    <rdf:RDF>
      <cc:Work
         rdf:about="">
        <dc:format>image/svg+xml</dc:format>
        <dc:type
           rdf:resource="http://purl.org/dc/dcmitype/StillImage" />
      </cc:Work>
    </rdf:RDF>
  </metadata>
  <sodipodi:namedview
     pagecolor="#ffffff"
     bordercolor="#666666"
     borderopacity="1"
     objecttolerance="10"
     gridtolerance="10"
     guidetolerance="10"
     inkscape:pageopacity="0"
     inkscape:pageshadow="2"
     inkscape:window-width="1613"
     inkscape:window-height="993"
     id="namedview17"
     showgrid="false"
     inkscape:zoom="9.8333333"
     inkscape:cx="-4.0677967"
     inkscape:cy="12"
     inkscape:window-x="67"
     inkscape:window-y="27"
     inkscape:window-maximized="0"
     inkscape:current-layer="ic_error_sync" />
  <defs
     id="defs4">
    <style
       type="text/css"
       id="style2">
            .cls-1{fill:#7c7687}.cls-2{fill:none}
        </style>
  </defs>
  <g
     id="Group_8889"
     data-name="Group 8889">
    <g
       id="Group_8887"
       data-name="Group 8887">
      <path
         id="Path_18905"
         d="M19.611 16.782A8.933 8.933 0 0 0 21 12h-2a6.95 6.95 0 0 1-.844 3.328z"
         class="cls-1"
         data-name="Path 18905" />
      <path
         id="Path_18906"
         d="M15.328 18.156A6.993 6.993 0 0 1 6.257 16H9v-2H3v6h2v-2.372a8.942 8.942 0 0 0 11.782 1.983z"
         class="cls-1"
         data-name="Path 18906" />
    </g>
    <g
       id="Group_8888"
       data-name="Group 8888">
      <path
         id="Path_18907"
         d="M8.672 5.844A7 7 0 0 1 17.745 8H15v2h6V4h-2v2.37A8.944 8.944 0 0 0 7.218 4.389z"
         class="cls-1"
         data-name="Path 18907" />
      <path
         id="Path_18908"
         d="M4.389 7.218A8.933 8.933 0 0 0 3 12h2a6.95 6.95 0 0 1 .844-3.328z"
         class="cls-1"
         data-name="Path 18908" />
    </g>
  </g>
  <g
     id="Group_8890"
     data-name="Group 8890">
    <path
       id="Rectangle_4442"
       d="M0 0h2v22.627H0z"
       class="cls-1"
       data-name="Rectangle 4442"
       transform="rotate(-45 7.328 -1.622)" />
  </g>
  <path
     id="Rectangle_4443"
     d="M0 0h24v24H0z"
     class="cls-2"
     data-name="Rectangle 4443" />
  <path
     style="fill:#668000;stroke-width:0.10169491"
     d="m 11.311962,12.644167 -7.9587382,-7.9592227 0.6637247,-0.657825 0.6637246,-0.657825 7.9804559,7.9799707 7.980456,7.979971 -0.631414,0.637077 c -0.347277,0.350392 -0.655727,0.637077 -0.685442,0.637077 -0.02972,0 -3.63546,-3.58165 -8.012767,-7.959223 z"
     id="path826"
     inkscape:connector-curvature="0" />
  <path
     style="fill:#668000;stroke-width:0.10169491"
     d="m 15.050847,8.9621919 v -0.963232 l 1.398306,-0.028294 1.398305,-0.028294 -0.81356,-0.8135593 C 15.754953,5.8498678 14.534006,5.246356 12.779987,5.0261117 11.667021,4.8863618 10.427252,5.0529515 9.3554582,5.4862713 L 8.6949153,5.7533247 7.9938922,5.0527287 7.2928691,4.3521326 8.1464345,3.9392722 c 2.3502905,-1.1368101 5.2042845,-1.1653086 7.5629895,-0.07552 1.009614,0.4664704 1.583001,0.8706179 2.51939,1.7757732 l 0.788135,0.761847 V 5.2142455 4.0271186 h 0.966102 0.966102 V 6.9762712 9.9254237 H 18 15.050847 Z"
     id="path828"
     inkscape:connector-curvature="0" />
  <path
     style="fill:#668000;stroke-width:0.10169491"
     d="M 3.0923382,11.19187 C 3.1814108,10.20892 3.56304,8.8945634 4.0267048,7.9738481 L 4.3910248,7.2504053 5.1034786,7.9628591 5.8159323,8.6753128 5.5966161,9.1052081 C 5.3117768,9.6635393 4.9830508,10.956205 4.9830508,11.517962 v 0.44136 H 4.0029222 3.0227936 Z"
     id="path830"
     inkscape:connector-curvature="0" />
  <path
     style="fill:#668000;stroke-width:0.10169491"
     d="M 10.118644,20.758048 C 8.522581,20.406861 7.0487849,19.600841 5.7716518,18.380676 l -0.788601,-0.753425 v 1.182985 1.182984 H 4.0169492 3.0508475 v -3 -3 H 6 8.9491525 v 0.966102 0.966102 H 7.5726932 6.1962338 l 0.1223378,0.22859 c 0.067286,0.125725 0.3806517,0.486904 0.6963687,0.802621 2.0450072,2.045007 5.0743187,2.624306 7.8049057,1.492541 l 0.541455,-0.224421 0.658332,0.652482 c 0.362084,0.358864 0.658333,0.679322 0.658333,0.712128 0,0.07797 -1.203256,0.675721 -1.755482,0.872078 -1.256847,0.446901 -3.49323,0.584982 -4.80384,0.296605 z"
     id="path832"
     inkscape:connector-curvature="0" />
  <path
     style="fill:#668000;stroke-width:0.10169491"
     d="m 18.894755,15.945873 -0.666189,-0.681466 0.24575,-0.528113 c 0.273561,-0.587878 0.538164,-1.710109 0.540867,-2.293921 l 0.0018,-0.381356 h 0.980129 0.980128 l -0.06803,0.750711 c -0.03742,0.412891 -0.160612,1.084813 -0.273771,1.493159 -0.216492,0.781237 -0.812307,2.16043 -0.977386,2.262455 -0.05339,0.033 -0.396863,-0.246663 -0.763267,-0.621469 z"
     id="path834"
     inkscape:connector-curvature="0" />
  <path
     style="fill:#000000;stroke-width:0.10169491"
     d="M 9.8237288,20.644223 C 8.3278627,20.241975 6.9632106,19.443563 5.5779661,18.160172 L 4.9423728,17.571313 v 1.180445 1.180445 H 4.0271186 3.1118644 v -2.949152 -2.949153 h 2.8983051 2.898305 v 0.915255 0.915254 H 7.5355932 c -0.8127,0 -1.3728814,0.03998 -1.3728814,0.09797 0,0.219002 1.3026137,1.469806 2.024539,1.944015 0.4246392,0.278932 1.1381729,0.629639 1.5856305,0.779348 0.7251147,0.242608 0.9683377,0.272498 2.2372877,0.274948 1.349971,0.0026 1.473488,-0.01455 2.384197,-0.331121 l 0.960469,-0.33387 0.662389,0.662389 0.662389,0.662389 -0.860146,0.401591 c -1.313945,0.613465 -1.875446,0.733751 -3.656755,0.783356 -1.352797,0.03767 -1.684404,0.01482 -2.3389832,-0.161203 z"
     id="path827"
     inkscape:connector-curvature="0" />
  <path
     style="fill:#000000;stroke-width:0.10169491"
     d="M 3.1416283,11.191416 C 3.221147,10.242918 3.5503244,9.0690364 4.0071352,8.104927 L 4.3830508,7.311549 5.0785629,8.0149257 5.7740749,8.7183025 5.56054,9.1368655 C 5.3154078,9.6173644 4.9441389,11.079057 4.9430853,11.567797 l -7.125e-4,0.330508 H 4.0123691 3.0823653 Z"
     id="path829"
     inkscape:connector-curvature="0" />
  <path
     style="fill:#000000;stroke-width:0.10169491"
     d="M 11.320167,12.62302 3.3661017,4.6847452 4.0020819,4.0463924 4.6380622,3.4080395 l 7.9806658,7.9801795 7.980665,7.98018 -0.379357,0.392115 c -0.208647,0.215663 -0.506808,0.484065 -0.66258,0.596448 l -0.283223,0.204332 z"
     id="path831"
     inkscape:connector-curvature="0" />
  <path
     style="fill:#000000;stroke-width:0.10169491"
     d="M 15.111864,8.9491526 V 8.0338983 h 1.316033 c 0.723817,0 1.341554,-0.041297 1.372749,-0.091772 C 17.876363,7.819615 16.482748,6.526483 15.752939,6.0420633 15.433255,5.829869 14.780691,5.5162251 14.302797,5.345077 13.480072,5.0504347 13.355538,5.0342459 11.959322,5.0404401 10.61052,5.0464238 10.41969,5.0709191 9.7220339,5.3276224 9.3025423,5.4819748 8.8906779,5.6297552 8.8067796,5.6560233 8.6610009,5.7016659 7.2886322,4.4267879 7.3887446,4.3387231 7.4135791,4.3168772 7.8034652,4.133611 8.255158,3.9314649 c 1.2189138,-0.5455003 2.38812,-0.7924161 3.741131,-0.7900612 2.458568,0.00428 4.2315,0.7043076 6.029901,2.3808593 l 1.000929,0.933111 0.02865,-1.1937887 0.02865,-1.1937886 h 0.912027 0.912027 v 2.898305 2.8983051 h -2.898306 -2.898305 z"
     id="path833"
     inkscape:connector-curvature="0" />
  <path
     style="fill:#000000;stroke-width:0.10169491"
     d="m 18.880972,15.895421 -0.62108,-0.590336 0.271295,-0.661017 c 0.149213,-0.363559 0.343504,-1.084322 0.431758,-1.601695 l 0.160463,-0.940678 h 0.892533 0.892534 l -7.69e-4,0.279661 c -0.0032,1.164098 -0.8799,3.93335 -1.287188,4.065859 -0.06516,0.0212 -0.397951,-0.22711 -0.739546,-0.551794 z"
     id="path835"
     inkscape:connector-curvature="0" />
</svg>
