<?xml version="1.0" encoding="UTF-8" standalone="no"?>
<svg
   xmlns:dc="http://purl.org/dc/elements/1.1/"
   xmlns:cc="http://creativecommons.org/ns#"
   xmlns:rdf="http://www.w3.org/1999/02/22-rdf-syntax-ns#"
   xmlns:svg="http://www.w3.org/2000/svg"
   xmlns="http://www.w3.org/2000/svg"
   xmlns:sodipodi="http://sodipodi.sourceforge.net/DTD/sodipodi-0.dtd"
   xmlns:inkscape="http://www.inkscape.org/namespaces/inkscape"
   width="24"
   height="24"
   viewBox="0 0 24 24"
   version="1.1"
   id="svg12"
   sodipodi:docname="ic-exit.svg"
   inkscape:version="0.92.3 (2405546, 2018-03-11)">
  <metadata
     id="metadata16">
    <rdf:RDF>
      <cc:Work
         rdf:about="">
        <dc:format>image/svg+xml</dc:format>
        <dc:type
           rdf:resource="http://purl.org/dc/dcmitype/StillImage" />
      </cc:Work>
    </rdf:RDF>
  </metadata>
  <sodipodi:namedview
     pagecolor="#ffffff"
     bordercolor="#666666"
     borderopacity="1"
     objecttolerance="10"
     gridtolerance="10"
     guidetolerance="10"
     inkscape:pageopacity="0"
     inkscape:pageshadow="2"
     inkscape:window-width="1810"
     inkscape:window-height="1141"
     id="namedview14"
     showgrid="false"
     inkscape:zoom="9.8333333"
     inkscape:cx="11.491525"
     inkscape:cy="12"
     inkscape:window-x="67"
     inkscape:window-y="27"
     inkscape:window-maximized="0"
     inkscape:current-layer="ic_exit" />
  <defs
     id="defs4">
    <style
       type="text/css"
       id="style2">
            .cls-1{opacity:.7}.cls-2{fill:none}.cls-3{fill:#fff}
        </style>
  </defs>
  <g
     id="ic_exit"
     class="cls-1">
    <g
       id="Group_9069"
       data-name="Group 9069">
      <path
         id="Path_19023"
         d="M0 0h24v24H0z"
         class="cls-2"
         data-name="Path 19023" />
    </g>
    <g
       id="Group_9070"
       data-name="Group 9070"
       style="fill-opacity:1;fill:#445500">
      <path
         id="Path_19024"
         d="M17 8.544V2H2v17.819l12 2.4V20h3v-6.456h-2V18h-1V4.181L13.1 4H15v4.544zM12 19.78l-8-1.6V4.22l8 1.6z"
         class="cls-3"
         data-name="Path 19024"
         style="fill-opacity:1;fill:#445500" />
      <path
         id="Path_19025"
         d="M18.707 7.337l-1.414 1.414 1.293 1.293H15v2h3.586l-1.293 1.293 1.414 1.414 3.707-3.707z"
         class="cls-3"
         data-name="Path 19025"
         style="fill-opacity:1;fill:#445500" />
    </g>
    <path
       style="fill:none;stroke-width:0.10169491"
       d="M 9.3813559,5.2690615 8.5423729,5.114492 V 3.6100182 2.1055443 l -0.5338983,-0.03735 c -0.323701,-0.022645 -0.1494051,-0.044757 0.4427094,-0.056162 0.5371342,-0.010346 1.2578969,0.010589 1.601695,0.046523 l 0.625087,0.065335 v 1.663479 c 0,1.9231032 0.152625,1.7486919 -1.2966101,1.4816922 z"
       id="path839"
       inkscape:connector-curvature="0" />
  </g>
</svg>
