<?xml version="1.0" encoding="UTF-8" standalone="no"?>
<svg
   xmlns:dc="http://purl.org/dc/elements/1.1/"
   xmlns:cc="http://creativecommons.org/ns#"
   xmlns:rdf="http://www.w3.org/1999/02/22-rdf-syntax-ns#"
   xmlns:svg="http://www.w3.org/2000/svg"
   xmlns="http://www.w3.org/2000/svg"
   xmlns:sodipodi="http://sodipodi.sourceforge.net/DTD/sodipodi-0.dtd"
   xmlns:inkscape="http://www.inkscape.org/namespaces/inkscape"
   width="24px"
   height="24px"
   viewBox="0 0 24 24"
   version="1.1"
   id="svg11"
   sodipodi:docname="ic-label.svg"
   inkscape:version="0.92.3 (2405546, 2018-03-11)">
  <metadata
     id="metadata17">
    <rdf:RDF>
      <cc:Work
         rdf:about="">
        <dc:format>image/svg+xml</dc:format>
        <dc:type
           rdf:resource="http://purl.org/dc/dcmitype/StillImage" />
      </cc:Work>
    </rdf:RDF>
  </metadata>
  <defs
     id="defs15" />
  <sodipodi:namedview
     pagecolor="#ffffff"
     bordercolor="#666666"
     borderopacity="1"
     objecttolerance="10"
     gridtolerance="10"
     guidetolerance="10"
     inkscape:pageopacity="0"
     inkscape:pageshadow="2"
     inkscape:window-width="1613"
     inkscape:window-height="953"
     id="namedview13"
     showgrid="false"
     inkscape:zoom="9.8333333"
     inkscape:cx="-4.0677967"
     inkscape:cy="12"
     inkscape:window-x="67"
     inkscape:window-y="27"
     inkscape:window-maximized="0"
     inkscape:current-layer="svg11" />
  <!-- Generator: Sketch 55.2 (78181) - https://sketchapp.com -->
  <title
     id="title2">Artboard</title>
  <desc
     id="desc4">Created with Sketch.</desc>
  <g
     id="Artboard"
     stroke="none"
     stroke-width="1"
     fill="none"
     fill-rule="evenodd">
    <g
       id="ic-label"
       transform="translate(2.000000, 2.000000)">
      <g
         id="Group_8996"
         transform="translate(5.000000, 2.000000)"
         fill="#5C4B7D"
         fill-rule="nonzero">
        <path
           d="M10,16.414 L5,11.414 L0,16.414 L0,0 L10,0 L10,16.414 Z M5,8.586 L8,11.586 L8,2 L2,2 L2,11.586 L5,8.586 Z"
           id="Path_18961" />
      </g>
      <polygon
         id="Rectangle_4641"
         points="0 0 20 0 20 20 0 20" />
    </g>
  </g>
  <path
     style="fill:#445500;stroke-width:0.10169491"
     d="M 7.0372881,12.177188 V 4.0677966 h 4.9830509 4.983051 v 8.0847454 c 0,4.446611 -0.03468,8.084746 -0.07707,8.084746 -0.04239,0 -1.174663,-1.098312 -2.51617,-2.440694 L 11.971049,15.355901 9.5041686,17.82124 7.0372881,20.286579 Z m 3.5326259,1.934297 1.450425,-1.447837 1.450425,1.447837 c 0.797733,0.79631 1.484174,1.447837 1.525424,1.447837 0.04125,0 0.075,-2.150847 0.075,-4.779661 V 6 H 12.020339 8.9694915 v 4.779661 c 0,2.628814 0.033749,4.779661 0.074999,4.779661 0.041249,0 0.7276901,-0.651527 1.5254235,-1.447837 z"
     id="path824"
     inkscape:connector-curvature="0" />
  <path
     style="fill:#000000;stroke-width:0.10169491"
     d="M 7.0779661,12.126324 V 4.0677967 h 4.9322029 4.932204 v 8.0338983 c 0,4.418644 -0.03214,8.033898 -0.07141,8.033898 -0.03928,0 -1.160917,-1.086053 -2.492536,-2.41345 l -2.421125,-2.41345 -2.4396682,2.43808 -2.4396677,2.438078 z m 3.6047189,1.91825 1.316583,-1.324725 1.477294,1.445161 1.477294,1.44516 0.07314,-0.40678 c 0.04023,-0.223729 0.07578,-2.386017 0.079,-4.805085 L 15.111864,6 H 12.010169 8.9084745 v 3.8487839 c 0,2.1168311 0.029593,4.2656971 0.065763,4.7752561 0.057453,0.809402 0.086366,0.915023 0.2288135,0.835866 0.089678,-0.04983 0.7555132,-0.686733 1.479634,-1.415332 z"
     id="path822"
     inkscape:connector-curvature="0" />
</svg>
