<?xml version="1.0" encoding="UTF-8" standalone="no"?>
<svg
   xmlns:dc="http://purl.org/dc/elements/1.1/"
   xmlns:cc="http://creativecommons.org/ns#"
   xmlns:rdf="http://www.w3.org/1999/02/22-rdf-syntax-ns#"
   xmlns:svg="http://www.w3.org/2000/svg"
   xmlns="http://www.w3.org/2000/svg"
   xmlns:sodipodi="http://sodipodi.sourceforge.net/DTD/sodipodi-0.dtd"
   xmlns:inkscape="http://www.inkscape.org/namespaces/inkscape"
   width="24px"
   height="24px"
   viewBox="0 0 24 24"
   version="1.1"
   id="svg11"
   sodipodi:docname="ic-label-liliac.svg"
   inkscape:version="0.92.3 (2405546, 2018-03-11)">
  <metadata
     id="metadata17">
    <rdf:RDF>
      <cc:Work
         rdf:about="">
        <dc:format>image/svg+xml</dc:format>
        <dc:type
           rdf:resource="http://purl.org/dc/dcmitype/StillImage" />
      </cc:Work>
    </rdf:RDF>
  </metadata>
  <defs
     id="defs15" />
  <sodipodi:namedview
     pagecolor="#ffffff"
     bordercolor="#666666"
     borderopacity="1"
     objecttolerance="10"
     gridtolerance="10"
     guidetolerance="10"
     inkscape:pageopacity="0"
     inkscape:pageshadow="2"
     inkscape:window-width="1613"
     inkscape:window-height="933"
     id="namedview13"
     showgrid="false"
     inkscape:zoom="9.8333333"
     inkscape:cx="-4.0677967"
     inkscape:cy="12"
     inkscape:window-x="67"
     inkscape:window-y="27"
     inkscape:window-maximized="0"
     inkscape:current-layer="svg11" />
  <!-- Generator: Sketch 55.2 (78181) - https://sketchapp.com -->
  <title
     id="title2">Artboard</title>
  <desc
     id="desc4">Created with Sketch.</desc>
  <g
     id="Artboard"
     stroke="none"
     stroke-width="1"
     fill="none"
     fill-rule="evenodd">
    <g
       id="ic-label-liliac"
       transform="translate(2.000000, 2.000000)">
      <g
         id="Group_8996"
         transform="translate(5.000000, 2.000000)"
         fill="#B088FF"
         fill-rule="nonzero">
        <path
           d="M10,16.414 L5,11.414 L0,16.414 L0,0 L10,0 L10,16.414 Z M5,8.586 L8,11.586 L8,2 L2,2 L2,11.586 L5,8.586 Z"
           id="Path_18961" />
      </g>
      <polygon
         id="Rectangle_4641"
         points="0 0 20 0 20 20 0 20" />
    </g>
  </g>
  <path
     style="fill:#88aa00;stroke-width:0.10169491"
     d="M 6.9966102,12.228051 V 4.0677966 h 4.9830508 4.983051 v 8.1099074 8.109908 l -2.465597,-2.465597 -2.465597,-2.465597 -2.5174537,2.515944 -2.5174541,2.515943 z m 3.5326258,1.883434 1.450425,-1.447837 1.450425,1.447837 c 0.797734,0.79631 1.484174,1.447837 1.525424,1.447837 0.04125,0 0.075,-2.150847 0.075,-4.779661 V 6 H 11.979661 8.9288136 v 4.779661 c 0,2.628814 0.03375,4.779661 0.074999,4.779661 0.041249,0 0.7276901,-0.651527 1.5254234,-1.447837 z"
     id="path824"
     inkscape:connector-curvature="0" />
  <path
     style="fill:#4d4d4d;stroke-width:0.10169491"
     d="M 7.0779661,12.177188 V 4.0677967 h 4.9322029 4.932204 v 8.0585273 8.058527 l -2.440686,-2.439096 -2.440686,-2.439097 -2.4915177,2.48996 -2.4915172,2.489961 z m 3.4888739,1.963185 1.443329,-1.41895 1.44557,1.439481 c 0.795064,0.791715 1.471075,1.413977 1.502247,1.382805 0.03117,-0.03117 0.08599,-2.19126 0.12182,-4.800193 L 15.144947,6 H 12.026711 8.9084745 v 4.779661 c 0,3.29123 0.033482,4.779661 0.1075184,4.779661 0.059135,0 0.7570166,-0.638527 1.5508471,-1.418949 z"
     id="path822"
     inkscape:connector-curvature="0" />
</svg>
