<?xml version="1.0" encoding="UTF-8" standalone="no"?>
<svg
   xmlns:dc="http://purl.org/dc/elements/1.1/"
   xmlns:cc="http://creativecommons.org/ns#"
   xmlns:rdf="http://www.w3.org/1999/02/22-rdf-syntax-ns#"
   xmlns:svg="http://www.w3.org/2000/svg"
   xmlns="http://www.w3.org/2000/svg"
   xmlns:sodipodi="http://sodipodi.sourceforge.net/DTD/sodipodi-0.dtd"
   xmlns:inkscape="http://www.inkscape.org/namespaces/inkscape"
   width="24px"
   height="40px"
   viewBox="0 0 24 40"
   version="1.1"
   id="svg14"
   sodipodi:docname="ic-nav-dashboard.svg"
   inkscape:version="0.92.3 (2405546, 2018-03-11)">
  <metadata
     id="metadata20">
    <rdf:RDF>
      <cc:Work
         rdf:about="">
        <dc:format>image/svg+xml</dc:format>
        <dc:type
           rdf:resource="http://purl.org/dc/dcmitype/StillImage" />
      </cc:Work>
    </rdf:RDF>
  </metadata>
  <defs
     id="defs18" />
  <sodipodi:namedview
     pagecolor="#ffffff"
     bordercolor="#666666"
     borderopacity="1"
     objecttolerance="10"
     gridtolerance="10"
     guidetolerance="10"
     inkscape:pageopacity="0"
     inkscape:pageshadow="2"
     inkscape:window-width="1815"
     inkscape:window-height="992"
     id="namedview16"
     showgrid="false"
     inkscape:zoom="5.9"
     inkscape:cx="12"
     inkscape:cy="20"
     inkscape:window-x="67"
     inkscape:window-y="27"
     inkscape:window-maximized="0"
     inkscape:current-layer="svg14" />
  <!-- Generator: Sketch 52.6 (67491) - http://www.bohemiancoding.com/sketch -->
  <title
     id="title2">Dashboard</title>
  <desc
     id="desc4">Created with Sketch.</desc>
  <g
     id="Dashboard"
     stroke="none"
     stroke-width="1"
     fill="none"
     fill-rule="evenodd">
    <g
       id="Group"
       transform="translate(1.000000, 11.000000)"
       fill="#938DA5"
       fill-rule="nonzero">
      <g
         id="Group_8812">
        <path
           d="M10,8 L0,8 L0,0 L10,0 L10,8 Z M2,6 L8,6 L8,2 L2,2 L2,6 Z"
           id="Path_18866" />
      </g>
      <g
         id="Group_8813"
         transform="translate(12.000000, 0.000000)">
        <path
           d="M10,22 L0,22 L0,0 L10,0 L10,22 Z M2,20 L8,20 L8,2 L2,2 L2,20 Z"
           id="Path_18867" />
      </g>
      <g
         id="Group_8814"
         transform="translate(0.000000, 10.000000)">
        <path
           d="M10,12 L0,12 L0,0 L10,0 L10,12 Z M2,10 L8,10 L8,2 L2,2 L2,10 Z"
           id="Path_18868" />
      </g>
    </g>
  </g>
  <path
     style="fill:#668000;stroke-width:0.16949153"
     d="M 1.0508475,27 V 21.152542 H 5.9661017 10.881356 V 27 32.847458 H 5.9661017 1.0508475 Z m 7.8813559,0 V 22.932203 H 5.9661017 3 l -0.045654,3.894638 c -0.02511,2.14205 -0.00774,3.993435 0.038596,4.114188 0.065445,0.170547 0.7376594,0.209196 3.0117557,0.173159 l 2.9275063,-0.04639 z"
     id="path827"
     inkscape:connector-curvature="0" />
  <path
     style="fill:#668000;stroke-width:0.16949153"
     d="M 13.084746,22 V 11.152542 H 18 22.915254 V 22 32.847458 H 18 13.084746 Z m 7.881356,0 V 12.932203 H 18 15.033898 l -0.04406,8.898305 c -0.02424,4.894068 -0.0069,8.995453 0.0386,9.114189 0.06351,0.165857 0.761038,0.205132 3.010166,0.169491 l 2.927507,-0.04639 z"
     id="path829"
     inkscape:connector-curvature="0" />
  <path
     style="fill:#668000;stroke-width:0.16949153"
     d="m 1.0508475,15.050847 v -3.898305 h 4.9152542 4.9152543 v 3.898305 3.898306 H 5.9661017 1.0508475 Z m 7.9289456,-0.04237 -0.04759,-2.076272 H 5.9661017 3 l -0.04759,2.076272 -0.04759,2.076271 h 3.061281 3.061281 z"
     id="path831"
     inkscape:connector-curvature="0" />
</svg>
