<?xml version="1.0" encoding="UTF-8" standalone="no"?>
<!-- Generator: Adobe Illustrator 23.1.1, SVG Export Plug-In . SVG Version: 6.00 Build 0)  -->

<svg
   xmlns:dc="http://purl.org/dc/elements/1.1/"
   xmlns:cc="http://creativecommons.org/ns#"
   xmlns:rdf="http://www.w3.org/1999/02/22-rdf-syntax-ns#"
   xmlns:svg="http://www.w3.org/2000/svg"
   xmlns="http://www.w3.org/2000/svg"
   xmlns:sodipodi="http://sodipodi.sourceforge.net/DTD/sodipodi-0.dtd"
   xmlns:inkscape="http://www.inkscape.org/namespaces/inkscape"
   version="1.1"
   id="Layer_1"
   x="0px"
   y="0px"
   width="24px"
   height="31px"
   viewBox="0 0 24 30"
   style="enable-background:new 0 0 24 30;"
   xml:space="preserve"
   sodipodi:docname="ic-nav-cold-staking-active.svg"
   inkscape:version="0.92.3 (2405546, 2018-03-11)"><metadata
   id="metadata15"><rdf:RDF><cc:Work
       rdf:about=""><dc:format>image/svg+xml</dc:format><dc:type
         rdf:resource="http://purl.org/dc/dcmitype/StillImage" /></cc:Work></rdf:RDF></metadata><defs
   id="defs13" /><sodipodi:namedview
   pagecolor="#ffffff"
   bordercolor="#666666"
   borderopacity="1"
   objecttolerance="10"
   gridtolerance="10"
   guidetolerance="10"
   inkscape:pageopacity="0"
   inkscape:pageshadow="2"
   inkscape:window-width="1851"
   inkscape:window-height="1029"
   id="namedview11"
   showgrid="false"
   inkscape:zoom="7.6129032"
   inkscape:cx="12"
   inkscape:cy="15.5"
   inkscape:window-x="67"
   inkscape:window-y="27"
   inkscape:window-maximized="0"
   inkscape:current-layer="Layer_1" />
<style
   type="text/css"
   id="style2">
	.st0{fill:#B088FF;}
</style>
	<title
   id="title4">Cold Staking</title>
	<desc
   id="desc6">Created with Sketch.</desc>
	<path
   class="st0"
   d="M21.7,22.1l-3-1.6l2.7-0.5c0.5,0,0.8-0.5,0.5-1.1c0-0.5-0.5-0.8-1.1-0.5l-4.3,1.1l-3-1.6l3-1.6l4.3,1.1h0.3  c0.3,0,0.8-0.3,0.8-0.5c0-0.5-0.3-0.8-0.5-1.1l-2.7-0.5l3-1.6c0.5-0.3,0.5-0.8,0.3-1.1c-0.3-0.3-0.8-0.5-1.1-0.3l-3,1.6l0.8-2.4  c0-0.5-0.3-0.8-0.5-1.1c-0.5,0-1.1,0.3-1.1,0.5L16,14.8l-3,1.6v-3.3l3.3-3c0.3-0.3,0.3-0.8,0-1.1c-0.3-0.3-0.8-0.3-1.4,0L13.1,11  V7.8c0-0.5-0.3-0.8-0.8-0.8c-0.5,0-0.8,0.3-0.8,0.8V11L9.3,8.9C9,8.6,8.5,8.6,7.9,8.9c-0.3,0.3-0.3,0.8,0,1.1l3.3,3v3.3l-3-1.6  l-1.1-4.1c0-0.5-0.5-0.8-1.1-0.5c-0.5,0-0.8,0.5-0.5,1.1l0.8,2.4l-3-1.6c-0.5-0.3-1.1,0-1.1,0.3c-0.3,0.3,0,0.8,0.3,1.1l3,1.6  l-2.7,0.5c-0.5,0-0.8,0.5-0.5,1.1C2.2,16.7,2.8,17,3,17h0.3l4.3-1.1l3,1.6l-3,1.6l-4.3-1.1c-0.5,0-1.1,0.3-1.1,0.5  c0,0.5,0.3,0.8,0.5,1.1l2.7,0.5l-3,1.6c-0.5,0.3-0.5,0.8-0.3,1.1c0.3,0.3,0.5,0.5,0.8,0.5s0.3,0,0.5,0l2.7-1.6l-0.8,2.7  c0,0.5,0.3,0.8,0.5,1.1h0.3c0.3,0,0.8-0.3,0.8-0.5l1.1-4.1l3-1.6v3.3l-3.3,3c-0.3,0.3-0.3,0.8,0,1.1s0.8,0.3,1.4,0l1.9-1.9v3.3  c0,0.5,0.3,0.8,0.8,0.8c0.5,0,0.8-0.3,0.8-0.8v-3.3l1.9,1.9C15,27,15,27,15.2,27c0.3,0,0.5,0,0.5-0.3c0.3-0.3,0.3-0.8,0-1.1l-3.3-3  v-3.5l3,1.6l1.1,4.1c0,0.3,0.5,0.5,0.8,0.5h0.3c0.5,0,0.8-0.5,0.5-1.1v-2.4l3,1.6c0.3,0,0.3,0,0.5,0c0.3,0,0.5-0.3,0.8-0.5  C22.6,23,22.3,22.4,21.7,22.1z"
   id="path8" />
<path
   style="fill:#88aa00;stroke-width:0.13135593"
   d="M 11.234383,29.112227 C 11.066242,28.944088 11.027966,28.562224 11.027966,27.052911 V 25.20001 l -1.1004756,1.074148 c -0.9649057,0.94182 -1.1587168,1.074147 -1.573243,1.074147 -0.3568177,0 -0.5245057,-0.07896 -0.6837225,-0.321959 -0.1160254,-0.177077 -0.1770565,-0.428295 -0.135625,-0.558262 0.041432,-0.129968 0.8443209,-0.934113 1.7841982,-1.786991 l 1.7088679,-1.550687 v -1.698645 -1.698644 l -1.2807202,0.677961 c -0.7043962,0.37288 -1.3970751,0.756149 -1.5392864,0.851712 -0.1863189,0.125202 -0.4152089,0.751923 -0.8191764,2.24298 -0.5720108,2.111309 -0.7277659,2.39762 -1.304322,2.39762 -0.3370504,0 -0.7048,-0.449593 -0.7048,-0.861654 0,-0.152778 0.1714851,-0.848947 0.3810779,-1.547045 0.2095928,-0.698096 0.3480706,-1.269267 0.3077285,-1.269267 -0.040342,0 -0.6801239,0.354661 -1.4217372,0.788135 C 3.2089728,23.853931 2.9766983,23.917756 2.5200743,23.597925 1.6228154,22.969459 1.8801507,22.510708 3.652685,21.578816 5.6727609,20.516783 5.6499955,20.58512 4.0755199,20.309549 2.8133494,20.088638 2.699639,20.043382 2.4707264,19.670853 2.1532238,19.154154 2.2041998,18.921851 2.6857296,18.691059 3.044266,18.519218 3.2571978,18.549228 5.3468345,19.066112 l 2.2713845,0.561841 0.949577,-0.493771 c 0.5222672,-0.271574 1.2063184,-0.641759 1.520113,-0.822634 L 10.658446,17.982685 9.1193266,17.163383 7.5802071,16.34408 5.3464825,16.92927 C 3.4077532,17.437178 3.0627303,17.493738 2.7339454,17.357551 2.3161562,17.184497 2.1076164,16.6648 2.3203804,16.326915 2.4074418,16.188655 2.9508028,16.023715 3.9176535,15.842056 4.7235825,15.690631 5.4093079,15.54041 5.4414874,15.50823 5.4736669,15.476051 4.8422681,15.097507 4.0383788,14.667022 3.2344895,14.236537 2.4622993,13.728873 2.3224004,13.538879 2.0070631,13.110625 2.116551,12.671976 2.583052,12.494613 c 0.2849847,-0.108351 0.5719582,-0.0013 1.9743113,0.736662 0.9024719,0.474893 1.6613073,0.842992 1.6863011,0.817999 C 6.268658,14.02428 6.0833483,13.369294 5.831865,12.59375 5.3008376,10.956125 5.3383082,10.740565 6.1786812,10.598585 c 0.2968533,-0.05015 0.5939695,-0.03695 0.6602583,0.02934 0.066289,0.06629 0.3923163,1.130546 0.7245056,2.365016 l 0.6039805,2.244491 1.4987615,0.8012 c 0.8243189,0.44066 1.5270509,0.801201 1.5616259,0.801201 0.03458,0 0.06117,-0.753655 0.05909,-1.674789 l -0.0038,-1.674788 -1.014233,-0.904392 C 7.6141058,10.218585 7.3790063,9.8858501 8.0360071,9.4256687 8.6409212,9.0019705 8.9903879,9.1475781 10.224963,10.337712 c 0.63702,0.614089 1.194847,1.116525 1.239616,1.116525 0.04477,0 0.09784,-0.810594 0.117943,-1.8013195 0.03646,-1.7970561 0.03737,-1.8017828 0.385545,-1.9969955 0.280642,-0.1573493 0.415716,-0.1652779 0.689619,-0.04048 l 0.340619,0.1551965 v 1.8417991 c 0,1.0129904 0.03843,1.8417994 0.08541,1.8417994 0.04698,0 0.534634,-0.473247 1.083686,-1.05166 0.883372,-0.930613 1.051949,-1.0515678 1.46459,-1.0508482 0.573111,9.983e-4 0.782939,0.1945336 0.777045,0.7167032 -0.0039,0.345638 -0.236976,0.608005 -1.697844,1.911229 l -1.69332,1.510593 -0.0098,1.726747 -0.0098,1.726745 1.474553,-0.782161 c 0.811004,-0.430187 1.496058,-0.803664 1.522341,-0.829947 0.0428,-0.0428 0.393191,-1.227607 0.998089,-3.374888 0.188242,-0.668226 0.258383,-0.761344 0.677725,-0.899739 0.409998,-0.135312 0.490875,-0.124374 0.655053,0.08859 0.359494,0.466316 0.350668,0.81423 -0.05104,2.011995 -0.218857,0.652561 -0.34043,1.186474 -0.270161,1.186474 0.07027,0 0.77761,-0.354661 1.571868,-0.788136 0.794259,-0.433474 1.546966,-0.788135 1.672681,-0.788135 0.636619,0 1.052497,0.792037 0.635063,1.209472 -0.09756,0.09756 -0.836442,0.526596 -1.641949,0.953402 -0.805508,0.426807 -1.46456,0.813795 -1.46456,0.859974 0,0.04618 0.586755,0.186657 1.3039,0.312174 1.094397,0.191546 1.33711,0.2789 1.510593,0.54367 0.32871,0.501674 0.265175,0.925381 -0.165514,1.103777 -0.31904,0.132151 -0.698999,0.07216 -2.659958,-0.419961 l -2.28775,-0.574134 -1.477754,0.79133 c -0.812765,0.435232 -1.476984,0.823495 -1.476043,0.862806 9.45e-4,0.03931 0.671461,0.422249 1.490046,0.850976 l 1.488333,0.779502 2.467718,-0.62637 c 2.772835,-0.703818 2.786589,-0.702433 2.92024,0.29401 0.08701,0.648742 0.06144,0.662692 -1.833091,0.999821 -0.704396,0.125345 -1.279861,0.26677 -1.27881,0.314277 0.0011,0.04751 0.631737,0.411481 1.401526,0.808833 0.769788,0.397352 1.596559,0.891212 1.837269,1.097466 l 0.437654,0.375009 -0.316465,0.24893 c -0.514463,0.4047 -1.029739,0.306747 -2.490898,-0.473526 -0.744091,-0.397351 -1.429032,-0.722457 -1.522091,-0.722457 -0.13142,0 -0.158273,0.355901 -0.120266,1.593987 0.05646,1.838972 -0.0089,1.966964 -0.892314,1.748429 L 16.612187,25.575 16.020288,23.368034 15.42839,21.161068 13.983475,20.384432 c -0.794704,-0.42715 -1.489248,-0.778772 -1.543433,-0.781382 -0.05418,-0.0026 -0.09852,0.78454 -0.09852,1.749221 v 1.753967 l 1.710672,1.552033 c 0.940869,0.853618 1.743867,1.684296 1.784439,1.845949 0.09556,0.380753 -0.292973,0.975441 -0.637302,0.975441 -0.155318,0 -0.745586,-0.470749 -1.429808,-1.140297 l -1.165289,-1.140295 v 1.767848 c 0,1.387446 -0.044,1.830667 -0.204482,2.059787 -0.24283,0.346689 -0.858989,0.391907 -1.165372,0.08552 z"
   id="path825"
   inkscape:connector-curvature="0"
   transform="translate(0,-0.5)" /></svg>