<?xml version="1.0" encoding="UTF-8" standalone="no"?>
<!-- Generator: Adobe Illustrator 23.1.1, SVG Export Plug-In . SVG Version: 6.00 Build 0)  -->

<svg
   xmlns:dc="http://purl.org/dc/elements/1.1/"
   xmlns:cc="http://creativecommons.org/ns#"
   xmlns:rdf="http://www.w3.org/1999/02/22-rdf-syntax-ns#"
   xmlns:svg="http://www.w3.org/2000/svg"
   xmlns="http://www.w3.org/2000/svg"
   xmlns:sodipodi="http://sodipodi.sourceforge.net/DTD/sodipodi-0.dtd"
   xmlns:inkscape="http://www.inkscape.org/namespaces/inkscape"
   version="1.1"
   id="Layer_1"
   x="0px"
   y="0px"
   width="24px"
   height="31px"
   viewBox="0 0 24 30"
   style="enable-background:new 0 0 24 30;"
   xml:space="preserve"
   sodipodi:docname="ic-nav-cold-staking.svg"
   inkscape:version="0.92.3 (2405546, 2018-03-11)"><metadata
   id="metadata15"><rdf:RDF><cc:Work
       rdf:about=""><dc:format>image/svg+xml</dc:format><dc:type
         rdf:resource="http://purl.org/dc/dcmitype/StillImage" /></cc:Work></rdf:RDF></metadata><defs
   id="defs13" /><sodipodi:namedview
   pagecolor="#ffffff"
   bordercolor="#666666"
   borderopacity="1"
   objecttolerance="10"
   gridtolerance="10"
   guidetolerance="10"
   inkscape:pageopacity="0"
   inkscape:pageshadow="2"
   inkscape:window-width="1837"
   inkscape:window-height="1058"
   id="namedview11"
   showgrid="false"
   inkscape:zoom="7.6129032"
   inkscape:cx="12"
   inkscape:cy="15.5"
   inkscape:window-x="67"
   inkscape:window-y="27"
   inkscape:window-maximized="0"
   inkscape:current-layer="Layer_1" />
<style
   type="text/css"
   id="style2">
	.st0{fill:#938DA5;}
</style>
	<title
   id="title4">Cold Staking</title>
	<desc
   id="desc6">Created with Sketch.</desc>
	<path
   class="st0"
   d="M21.7,22.1l-3-1.6l2.7-0.5c0.5,0,0.8-0.5,0.5-1.1c0-0.5-0.5-0.8-1.1-0.5l-4.3,1.1l-3-1.6l3-1.6l4.3,1.1h0.3  c0.3,0,0.8-0.3,0.8-0.5c0-0.5-0.3-0.8-0.5-1.1l-2.7-0.5l3-1.6c0.5-0.3,0.5-0.8,0.3-1.1c-0.3-0.3-0.8-0.5-1.1-0.3l-3,1.6l0.8-2.4  c0-0.5-0.3-0.8-0.5-1.1c-0.5,0-1.1,0.3-1.1,0.5L16,14.8l-3,1.6v-3.3l3.3-3c0.3-0.3,0.3-0.8,0-1.1c-0.3-0.3-0.8-0.3-1.4,0L13.1,11  V7.8c0-0.5-0.3-0.8-0.8-0.8c-0.5,0-0.8,0.3-0.8,0.8V11L9.3,8.9C9,8.6,8.5,8.6,7.9,8.9c-0.3,0.3-0.3,0.8,0,1.1l3.3,3v3.3l-3-1.6  l-1.1-4.1c0-0.5-0.5-0.8-1.1-0.5c-0.5,0-0.8,0.5-0.5,1.1l0.8,2.4l-3-1.6c-0.5-0.3-1.1,0-1.1,0.3c-0.3,0.3,0,0.8,0.3,1.1l3,1.6  l-2.7,0.5c-0.5,0-0.8,0.5-0.5,1.1C2.2,16.7,2.8,17,3,17h0.3l4.3-1.1l3,1.6l-3,1.6l-4.3-1.1c-0.5,0-1.1,0.3-1.1,0.5  c0,0.5,0.3,0.8,0.5,1.1l2.7,0.5l-3,1.6c-0.5,0.3-0.5,0.8-0.3,1.1c0.3,0.3,0.5,0.5,0.8,0.5s0.3,0,0.5,0l2.7-1.6l-0.8,2.7  c0,0.5,0.3,0.8,0.5,1.1h0.3c0.3,0,0.8-0.3,0.8-0.5l1.1-4.1l3-1.6v3.3l-3.3,3c-0.3,0.3-0.3,0.8,0,1.1s0.8,0.3,1.4,0l1.9-1.9v3.3  c0,0.5,0.3,0.8,0.8,0.8c0.5,0,0.8-0.3,0.8-0.8v-3.3l1.9,1.9C15,27,15,27,15.2,27c0.3,0,0.5,0,0.5-0.3c0.3-0.3,0.3-0.8,0-1.1l-3.3-3  v-3.5l3,1.6l1.1,4.1c0,0.3,0.5,0.5,0.8,0.5h0.3c0.5,0,0.8-0.5,0.5-1.1v-2.4l3,1.6c0.3,0,0.3,0,0.5,0c0.3,0,0.5-0.3,0.8-0.5  C22.6,23,22.3,22.4,21.7,22.1z"
   id="path8" />
<path
   style="fill:#668000;stroke-width:0.13135593"
   d=""
   id="path825"
   inkscape:connector-curvature="0"
   transform="translate(0,-0.5)" /><path
   style="fill:#668000;stroke-width:0.13135593"
   d="m 11.190215,29.038296 c -0.07479,-0.139741 -0.135978,-1.026394 -0.135978,-1.970339 0,-0.943944 -0.04009,-1.716262 -0.08909,-1.716262 -0.049,0 -0.544646,0.443326 -1.1014411,0.985169 -0.8643024,0.841092 -1.0788201,0.98517 -1.4668272,0.98517 -0.6022998,0 -0.9879316,-0.402245 -0.8146979,-0.849795 0.067361,-0.174029 0.8761299,-1.00315 1.7972634,-1.842493 l 1.6747878,-1.526078 v -1.634462 c 0,-0.921049 -0.05337,-1.63446 -0.122265,-1.63446 -0.06724,0 -0.760976,0.343929 -1.5416236,0.764287 l -1.419359,0.764287 -0.59291,2.145238 C 6.8017834,25.593687 6.7728496,25.659605 6.3455053,25.861009 5.9303194,26.056685 5.8952641,26.05376 5.71586,25.808475 5.3528861,25.312209 5.3601951,24.926756 5.7586062,23.55417 5.9749277,22.808911 6.122549,22.199153 6.0866536,22.199153 c -0.035895,0 -0.6720389,0.354661 -1.4136522,0.788135 -0.7416132,0.433475 -1.4896888,0.788136 -1.6623902,0.788136 -0.1784502,0 -0.4794188,-0.172657 -0.697184,-0.399955 C 1.9524522,22.998691 1.9415124,22.955877 2.1246567,22.636686 2.249819,22.418548 2.867834,22.011244 3.8596894,21.493209 4.7070313,21.050651 5.4015758,20.653257 5.4031216,20.610109 5.4046676,20.566962 4.8191224,20.428583 4.1019104,20.302601 2.7314097,20.061866 2.4741849,19.914068 2.3148908,19.275802 2.2336845,18.950421 2.2731665,18.893586 2.7060531,18.712714 3.1689304,18.519312 3.2728558,18.533773 5.3951277,19.086892 l 2.2075892,0.575355 1.533106,-0.813524 C 10.262204,18.251024 10.624207,18.000484 10.500354,17.904341 10.407638,17.832368 9.7259519,17.455754 8.9854956,17.06742 L 7.6392116,16.361359 5.3732075,16.91877 c -1.2463022,0.306575 -2.3398918,0.556096 -2.430199,0.55449 -0.2794777,-0.005 -0.6896187,-0.511753 -0.6896187,-0.852113 0,-0.421948 0.2109707,-0.518564 1.7076271,-0.78202 C 4.6473517,15.718312 5.296566,15.589151 5.4037156,15.552103 5.5184686,15.512426 4.9346769,15.131912 3.9831977,14.626212 2.2391542,13.699273 1.956579,13.406176 2.2294891,12.807203 c 0.238841,-0.524199 0.764413,-0.423929 2.4097896,0.459746 1.3214027,0.70968 1.686145,0.871543 1.686145,0.748267 0,-0.02193 -0.2070385,-0.654653 -0.4600857,-1.406056 -0.2530471,-0.751403 -0.4268079,-1.471036 -0.3861352,-1.599184 0.040673,-0.128148 0.3093684,-0.30353 0.5971015,-0.389737 0.4372163,-0.130993 0.555453,-0.124438 0.719797,0.03991 0.1081553,0.108155 0.4368947,1.10837 0.730532,2.2227 0.2936372,1.114329 0.5812308,2.114719 0.6390966,2.223087 0.1326641,0.248447 2.9481381,1.735567 3.0648611,1.618844 0.0475,-0.0475 0.08636,-0.783417 0.08636,-1.635379 V 13.540376 L 9.5441532,11.925909 C 8.1288202,10.636979 7.7712547,10.241846 7.7708481,9.9662957 7.7702439,9.5569699 7.9798037,9.356624 8.5219793,9.2481889 c 0.3615023,-0.0723 0.5177678,0.030153 1.6951077,1.1113771 l 1.296896,1.191019 0.0367,-1.7929713 c 0.02146,-1.0484775 0.09632,-1.8648057 0.180279,-1.9659705 0.179491,-0.216273 0.924996,-0.226361 1.135985,-0.015372 0.107634,0.1076336 0.157647,0.7429675 0.157691,2.003178 l 6.3e-5,1.8455508 1.083623,-1.150006 c 0.921765,-0.9782336 1.145987,-1.1499107 1.501147,-1.1493646 0.493586,7.618e-4 0.830358,0.2929991 0.830358,0.7205596 0,0.31634 -0.494402,0.834227 -2.524826,2.644758 l -1.014233,0.904392 -0.0038,1.674788 c -0.0021,0.921134 0.02619,1.674788 0.06281,1.674788 0.03662,0 0.742785,-0.358227 1.569254,-0.796061 l 1.502672,-0.796062 0.195217,-0.681693 c 0.107369,-0.374931 0.353043,-1.243239 0.545939,-1.929574 0.371673,-1.322427 0.587068,-1.660328 1.102853,-1.7301 0.244385,-0.03306 0.378125,0.05672 0.569551,0.382329 l 0.25017,0.425534 -0.405356,1.21674 c -0.222947,0.669207 -0.405358,1.263266 -0.405358,1.320131 0,0.05686 0.76333,-0.297943 1.696288,-0.788461 l 1.696289,-0.891851 0.372567,0.275891 c 0.800248,0.592592 0.509854,0.986729 -1.481619,2.010926 -1.735106,0.89235 -1.729793,0.851038 -0.14566,1.132477 1.239911,0.220284 1.405007,0.282555 1.59304,0.600869 0.319881,0.541515 0.265058,0.850913 -0.183714,1.036801 -0.346056,0.14334 -0.661125,0.09629 -2.613721,-0.390344 -1.221127,-0.304332 -2.300149,-0.533059 -2.397825,-0.508281 -0.406405,0.103095 -2.873771,1.479826 -2.839013,1.584101 0.02079,0.06237 0.685904,0.457727 1.478032,0.878574 l 1.440231,0.765177 2.427207,-0.629227 c 1.679937,-0.435505 2.496123,-0.592344 2.651056,-0.509426 0.320315,0.171427 0.473547,1.17405 0.208996,1.367495 -0.110463,0.08077 -0.854665,0.255924 -1.653783,0.389229 -0.799119,0.133304 -1.424657,0.28814 -1.390084,0.344079 0.03457,0.05594 0.757031,0.466955 1.605464,0.913371 0.848432,0.446414 1.660825,0.927839 1.805317,1.069832 0.262476,0.257938 0.262382,0.258454 -0.105842,0.578779 -0.202704,0.176335 -0.463337,0.32061 -0.579182,0.32061 -0.115846,0 -0.885873,-0.354661 -1.71117,-0.788136 -0.825299,-0.433475 -1.562876,-0.788136 -1.639062,-0.788136 -0.093,0 -0.117281,0.515653 -0.0739,1.569086 0.04162,1.010557 0.01531,1.618401 -0.07392,1.707628 -0.190074,0.190074 -0.90714,0.174426 -1.175541,-0.02565 -0.136498,-0.101754 -0.433276,-0.974624 -0.780402,-2.295293 l -0.56014,-2.131097 -1.444236,-0.758733 c -0.794329,-0.417303 -1.488874,-0.778437 -1.543432,-0.802518 -0.05456,-0.02408 -0.09612,0.773905 -0.09237,1.773305 l 0.0068,1.81709 1.689115,1.510593 c 0.929014,0.830827 1.720764,1.623093 1.759443,1.760593 0.09108,0.323766 -0.257911,0.997882 -0.516602,0.997882 -0.37719,0 -0.910231,-0.375042 -1.759614,-1.238046 -0.467511,-0.475006 -0.896059,-0.863649 -0.952331,-0.863649 -0.05627,0 -0.102311,0.81572 -0.102311,1.812712 0,1.234746 -0.05026,1.86297 -0.157628,1.970339 -0.256683,0.256684 -0.995441,0.194795 -1.15131,-0.09645 z"
   id="path827"
   inkscape:connector-curvature="0"
   transform="translate(0,-0.5)" /></svg>