<?xml version="1.0" encoding="UTF-8" standalone="no"?>
<!-- Generator: Adobe Illustrator 23.1.1, SVG Export Plug-In . SVG Version: 6.00 Build 0)  -->

<svg
   xmlns:dc="http://purl.org/dc/elements/1.1/"
   xmlns:cc="http://creativecommons.org/ns#"
   xmlns:rdf="http://www.w3.org/1999/02/22-rdf-syntax-ns#"
   xmlns:svg="http://www.w3.org/2000/svg"
   xmlns="http://www.w3.org/2000/svg"
   xmlns:sodipodi="http://sodipodi.sourceforge.net/DTD/sodipodi-0.dtd"
   xmlns:inkscape="http://www.inkscape.org/namespaces/inkscape"
   version="1.1"
   id="Layer_1"
   x="0px"
   y="0px"
   width="24px"
   height="31px"
   viewBox="0 0 24 30"
   style="enable-background:new 0 0 24 30;"
   xml:space="preserve"
   sodipodi:docname="ic-nav-cold-staking.svg"
   inkscape:version="0.92.3 (2405546, 2018-03-11)"><metadata
   id="metadata15"><rdf:RDF><cc:Work
       rdf:about=""><dc:format>image/svg+xml</dc:format><dc:type
         rdf:resource="http://purl.org/dc/dcmitype/StillImage" /></cc:Work></rdf:RDF></metadata><defs
   id="defs13" /><sodipodi:namedview
   pagecolor="#ffffff"
   bordercolor="#666666"
   borderopacity="1"
   objecttolerance="10"
   gridtolerance="10"
   guidetolerance="10"
   inkscape:pageopacity="0"
   inkscape:pageshadow="2"
   inkscape:window-width="1613"
   inkscape:window-height="993"
   id="namedview11"
   showgrid="false"
   inkscape:zoom="7.6129032"
   inkscape:cx="-8.7542373"
   inkscape:cy="15.5"
   inkscape:window-x="67"
   inkscape:window-y="27"
   inkscape:window-maximized="0"
   inkscape:current-layer="Layer_1" />
<style
   type="text/css"
   id="style2">
	.st0{fill:#938DA5;}
</style>
	<title
   id="title4">Cold Staking</title>
	<desc
   id="desc6">Created with Sketch.</desc>
	<path
   class="st0"
   d="M21.7,22.1l-3-1.6l2.7-0.5c0.5,0,0.8-0.5,0.5-1.1c0-0.5-0.5-0.8-1.1-0.5l-4.3,1.1l-3-1.6l3-1.6l4.3,1.1h0.3  c0.3,0,0.8-0.3,0.8-0.5c0-0.5-0.3-0.8-0.5-1.1l-2.7-0.5l3-1.6c0.5-0.3,0.5-0.8,0.3-1.1c-0.3-0.3-0.8-0.5-1.1-0.3l-3,1.6l0.8-2.4  c0-0.5-0.3-0.8-0.5-1.1c-0.5,0-1.1,0.3-1.1,0.5L16,14.8l-3,1.6v-3.3l3.3-3c0.3-0.3,0.3-0.8,0-1.1c-0.3-0.3-0.8-0.3-1.4,0L13.1,11  V7.8c0-0.5-0.3-0.8-0.8-0.8c-0.5,0-0.8,0.3-0.8,0.8V11L9.3,8.9C9,8.6,8.5,8.6,7.9,8.9c-0.3,0.3-0.3,0.8,0,1.1l3.3,3v3.3l-3-1.6  l-1.1-4.1c0-0.5-0.5-0.8-1.1-0.5c-0.5,0-0.8,0.5-0.5,1.1l0.8,2.4l-3-1.6c-0.5-0.3-1.1,0-1.1,0.3c-0.3,0.3,0,0.8,0.3,1.1l3,1.6  l-2.7,0.5c-0.5,0-0.8,0.5-0.5,1.1C2.2,16.7,2.8,17,3,17h0.3l4.3-1.1l3,1.6l-3,1.6l-4.3-1.1c-0.5,0-1.1,0.3-1.1,0.5  c0,0.5,0.3,0.8,0.5,1.1l2.7,0.5l-3,1.6c-0.5,0.3-0.5,0.8-0.3,1.1c0.3,0.3,0.5,0.5,0.8,0.5s0.3,0,0.5,0l2.7-1.6l-0.8,2.7  c0,0.5,0.3,0.8,0.5,1.1h0.3c0.3,0,0.8-0.3,0.8-0.5l1.1-4.1l3-1.6v3.3l-3.3,3c-0.3,0.3-0.3,0.8,0,1.1s0.8,0.3,1.4,0l1.9-1.9v3.3  c0,0.5,0.3,0.8,0.8,0.8c0.5,0,0.8-0.3,0.8-0.8v-3.3l1.9,1.9C15,27,15,27,15.2,27c0.3,0,0.5,0,0.5-0.3c0.3-0.3,0.3-0.8,0-1.1l-3.3-3  v-3.5l3,1.6l1.1,4.1c0,0.3,0.5,0.5,0.8,0.5h0.3c0.5,0,0.8-0.5,0.5-1.1v-2.4l3,1.6c0.3,0,0.3,0,0.5,0c0.3,0,0.5-0.3,0.8-0.5  C22.6,23,22.3,22.4,21.7,22.1z"
   id="path8" />
<path
   style="fill:#668000;stroke-width:0.13135593"
   d=""
   id="path825"
   inkscape:connector-curvature="0"
   transform="translate(0,-0.5)" /><path
   style="fill:#668000;stroke-width:0.13135593"
   d="m 11.190215,29.038296 c -0.07479,-0.139741 -0.135978,-1.026394 -0.135978,-1.970339 0,-0.943944 -0.04009,-1.716262 -0.08909,-1.716262 -0.049,0 -0.544646,0.443326 -1.1014411,0.985169 -0.8643024,0.841092 -1.0788201,0.98517 -1.4668272,0.98517 -0.6022998,0 -0.9879316,-0.402245 -0.8146979,-0.849795 0.067361,-0.174029 0.8761299,-1.00315 1.7972634,-1.842493 l 1.6747878,-1.526078 v -1.634462 c 0,-0.921049 -0.05337,-1.63446 -0.122265,-1.63446 -0.06724,0 -0.760976,0.343929 -1.5416236,0.764287 l -1.419359,0.764287 -0.59291,2.145238 C 6.8017834,25.593687 6.7728496,25.659605 6.3455053,25.861009 5.9303194,26.056685 5.8952641,26.05376 5.71586,25.808475 5.3528861,25.312209 5.3601951,24.926756 5.7586062,23.55417 5.9749277,22.808911 6.122549,22.199153 6.0866536,22.199153 c -0.035895,0 -0.6720389,0.354661 -1.4136522,0.788135 -0.7416132,0.433475 -1.4896888,0.788136 -1.6623902,0.788136 -0.1784502,0 -0.4794188,-0.172657 -0.697184,-0.399955 C 1.9524522,22.998691 1.9415124,22.955877 2.1246567,22.636686 2.249819,22.418548 2.867834,22.011244 3.8596894,21.493209 4.7070313,21.050651 5.4015758,20.653257 5.4031216,20.610109 5.4046676,20.566962 4.8191224,20.428583 4.1019104,20.302601 2.7314097,20.061866 2.4741849,19.914068 2.3148908,19.275802 2.2336845,18.950421 2.2731665,18.893586 2.7060531,18.712714 3.1689304,18.519312 3.2728558,18.533773 5.3951277,19.086892 l 2.2075892,0.575355 1.533106,-0.813524 C 10.262204,18.251024 10.624207,18.000484 10.500354,17.904341 10.407638,17.832368 9.7259519,17.455754 8.9854956,17.06742 L 7.6392116,16.361359 5.3732075,16.91877 c -1.2463022,0.306575 -2.3398918,0.556096 -2.430199,0.55449 -0.2794777,-0.005 -0.6896187,-0.511753 -0.6896187,-0.852113 0,-0.421948 0.2109707,-0.518564 1.7076271,-0.78202 C 4.6473517,15.718312 5.296566,15.589151 5.4037156,15.552103 5.5184686,15.512426 4.9346769,15.131912 3.9831977,14.626212 2.2391542,13.699273 1.956579,13.406176 2.2294891,12.807203 c 0.238841,-0.524199 0.764413,-0.423929 2.4097896,0.459746 1.3214027,0.70968 1.686145,0.871543 1.686145,0.748267 0,-0.02193 -0.2070385,-0.654653 -0.4600857,-1.406056 -0.2530471,-0.751403 -0.4268079,-1.471036 -0.3861352,-1.599184 0.040673,-0.128148 0.3093684,-0.30353 0.5971015,-0.389737 0.4372163,-0.130993 0.555453,-0.124438 0.719797,0.03991 0.1081553,0.108155 0.4368947,1.10837 0.730532,2.2227 0.2936372,1.114329 0.5812308,2.114719 0.6390966,2.223087 0.1326641,0.248447 2.9481381,1.735567 3.0648611,1.618844 0.0475,-0.0475 0.08636,-0.783417 0.08636,-1.635379 V 13.540376 L 9.5441532,11.925909 C 8.1288202,10.636979 7.7712547,10.241846 7.7708481,9.9662957 7.7702439,9.5569699 7.9798037,9.356624 8.5219793,9.2481889 c 0.3615023,-0.0723 0.5177678,0.030153 1.6951077,1.1113771 l 1.296896,1.191019 0.0367,-1.7929713 c 0.02146,-1.0484775 0.09632,-1.8648057 0.180279,-1.9659705 0.179491,-0.216273 0.924996,-0.226361 1.135985,-0.015372 0.107634,0.1076336 0.157647,0.7429675 0.157691,2.003178 l 6.3e-5,1.8455508 1.083623,-1.150006 c 0.921765,-0.9782336 1.145987,-1.1499107 1.501147,-1.1493646 0.493586,7.618e-4 0.830358,0.2929991 0.830358,0.7205596 0,0.31634 -0.494402,0.834227 -2.524826,2.644758 l -1.014233,0.904392 -0.0038,1.674788 c -0.0021,0.921134 0.02619,1.674788 0.06281,1.674788 0.03662,0 0.742785,-0.358227 1.569254,-0.796061 l 1.502672,-0.796062 0.195217,-0.681693 c 0.107369,-0.374931 0.353043,-1.243239 0.545939,-1.929574 0.371673,-1.322427 0.587068,-1.660328 1.102853,-1.7301 0.244385,-0.03306 0.378125,0.05672 0.569551,0.382329 l 0.25017,0.425534 -0.405356,1.21674 c -0.222947,0.669207 -0.405358,1.263266 -0.405358,1.320131 0,0.05686 0.76333,-0.297943 1.696288,-0.788461 l 1.696289,-0.891851 0.372567,0.275891 c 0.800248,0.592592 0.509854,0.986729 -1.481619,2.010926 -1.735106,0.89235 -1.729793,0.851038 -0.14566,1.132477 1.239911,0.220284 1.405007,0.282555 1.59304,0.600869 0.319881,0.541515 0.265058,0.850913 -0.183714,1.036801 -0.346056,0.14334 -0.661125,0.09629 -2.613721,-0.390344 -1.221127,-0.304332 -2.300149,-0.533059 -2.397825,-0.508281 -0.406405,0.103095 -2.873771,1.479826 -2.839013,1.584101 0.02079,0.06237 0.685904,0.457727 1.478032,0.878574 l 1.440231,0.765177 2.427207,-0.629227 c 1.679937,-0.435505 2.496123,-0.592344 2.651056,-0.509426 0.320315,0.171427 0.473547,1.17405 0.208996,1.367495 -0.110463,0.08077 -0.854665,0.255924 -1.653783,0.389229 -0.799119,0.133304 -1.424657,0.28814 -1.390084,0.344079 0.03457,0.05594 0.757031,0.466955 1.605464,0.913371 0.848432,0.446414 1.660825,0.927839 1.805317,1.069832 0.262476,0.257938 0.262382,0.258454 -0.105842,0.578779 -0.202704,0.176335 -0.463337,0.32061 -0.579182,0.32061 -0.115846,0 -0.885873,-0.354661 -1.71117,-0.788136 -0.825299,-0.433475 -1.562876,-0.788136 -1.639062,-0.788136 -0.093,0 -0.117281,0.515653 -0.0739,1.569086 0.04162,1.010557 0.01531,1.618401 -0.07392,1.707628 -0.190074,0.190074 -0.90714,0.174426 -1.175541,-0.02565 -0.136498,-0.101754 -0.433276,-0.974624 -0.780402,-2.295293 l -0.56014,-2.131097 -1.444236,-0.758733 c -0.794329,-0.417303 -1.488874,-0.778437 -1.543432,-0.802518 -0.05456,-0.02408 -0.09612,0.773905 -0.09237,1.773305 l 0.0068,1.81709 1.689115,1.510593 c 0.929014,0.830827 1.720764,1.623093 1.759443,1.760593 0.09108,0.323766 -0.257911,0.997882 -0.516602,0.997882 -0.37719,0 -0.910231,-0.375042 -1.759614,-1.238046 -0.467511,-0.475006 -0.896059,-0.863649 -0.952331,-0.863649 -0.05627,0 -0.102311,0.81572 -0.102311,1.812712 0,1.234746 -0.05026,1.86297 -0.157628,1.970339 -0.256683,0.256684 -0.995441,0.194795 -1.15131,-0.09645 z"
   id="path827"
   inkscape:connector-curvature="0"
   transform="translate(0,-0.5)" /><path
   style="fill:#ffffff;stroke-width:0.13135593"
   d="m 11.475812,29.16467 c -0.253507,-0.102517 -0.281274,-0.249947 -0.361286,-1.918285 -0.04767,-0.993977 -0.113961,-1.834521 -0.147313,-1.867872 -0.03335,-0.03335 -0.49143,0.338244 -1.0179521,0.825769 -1.1161497,1.033482 -1.4293726,1.188921 -1.9217643,0.953684 -0.6994888,-0.334174 -0.5468666,-0.605897 1.371971,-2.4426 l 1.8003014,-1.72324 -0.08205,-1.531055 c -0.04513,-0.842079 -0.118055,-1.567058 -0.162059,-1.611062 -0.04401,-0.044 -0.743228,0.269198 -1.5538313,0.696005 L 7.9280045,21.322027 7.4235338,23.172666 C 7.1460749,24.190518 6.8376182,25.185002 6.7380745,25.382631 6.5031573,25.849024 5.9314344,26.007794 5.687613,25.674348 5.4325123,25.325478 5.4683842,24.782347 5.8343885,23.452039 6.012243,22.805595 6.1355201,22.254447 6.1083375,22.227264 6.0811551,22.200081 5.5070891,22.474639 4.8326354,22.83739 3.0102025,23.817577 2.9671334,23.828501 2.4941109,23.430479 1.7852455,22.834008 1.9509643,22.618827 4.0017587,21.472846 4.7596049,21.049364 5.379661,20.66002 5.379661,20.607638 c 0,-0.05238 -0.1921081,-0.134793 -0.4269068,-0.183137 C 3.1085241,20.044782 2.7407989,19.928067 2.5555963,19.663654 2.28677,19.27985 2.3081437,18.951434 2.6125509,18.78852 3.0171662,18.571976 3.3780502,18.620314 5.5711932,19.184808 l 2.0679314,0.532266 1.3988699,-0.773282 c 0.7693783,-0.425305 1.3988695,-0.855875 1.3988695,-0.956822 0,-0.100947 -0.6206564,-0.518286 -1.3792369,-0.927418 L 7.6783898,16.315674 5.313983,16.878007 C 2.803607,17.475057 2.5619089,17.474868 2.4115372,16.875739 2.2792317,16.348593 2.4318835,16.18691 3.2039257,16.036473 3.6058767,15.95815 4.2631522,15.830082 4.6645379,15.751876 5.0893323,15.66911 5.3740868,15.548955 5.3458924,15.464372 5.3192518,15.38445 4.7461941,15.008631 4.0724309,14.629218 2.573333,13.785038 2.2271186,13.493872 2.2271186,13.077311 c 0,-0.763196 0.7114085,-0.664562 2.6489621,0.367269 0.6983485,0.3719 1.3141172,0.631812 1.3683745,0.577582 0.054258,-0.05423 -0.089762,-0.704442 -0.3200436,-1.444915 -0.2302814,-0.740473 -0.4175011,-1.410714 -0.416044,-1.489425 0.00344,-0.185731 0.5828671,-0.447991 0.9897771,-0.447991 0.3388603,0 0.456747,0.303154 1.251457,3.21822 0.1575661,0.577966 0.3352054,1.143314 0.3947541,1.256328 0.1090881,0.207033 2.9885402,1.769392 3.0843812,1.673551 0.02832,-0.02832 0.0907,-0.758233 0.138622,-1.622038 l 0.08714,-1.570553 -1.154351,-1.04757 C 8.275765,10.71065 7.8754237,10.282096 7.8754237,9.9521723 c 0,-0.4202287 0.2352924,-0.6259175 0.7158898,-0.6258191 0.3180935,6.52e-5 0.6577337,0.2316113 1.6485165,1.1238588 l 1.247882,1.123777 0.100341,-1.8134774 c 0.08255,-1.491988 0.140769,-1.8436242 0.32839,-1.98353 0.205271,-0.1530673 0.772431,-0.1171744 0.950237,0.060136 0.03627,0.03617 0.08639,0.8884627 0.111383,1.8939839 0.02499,1.0055215 0.06949,1.8282205 0.09889,1.8282205 0.0294,0 0.480997,-0.450089 1.003546,-1.000197 0.52255,-0.550108 1.083927,-1.0510817 1.247506,-1.1132741 0.387314,-0.147257 0.908191,0.053963 1.015585,0.3923318 0.126261,0.3978153 -0.190837,0.7829923 -1.912493,2.3230833 l -1.564151,1.399196 v 1.692227 c 0,0.938821 0.05364,1.692226 0.120488,1.692226 0.06627,0 0.790428,-0.351875 1.609243,-0.781944 l 1.488755,-0.781945 0.375306,-1.352589 c 0.531113,-1.914116 0.851552,-2.711474 1.154925,-2.873834 0.329545,-0.176368 0.565085,-0.08967 0.822109,0.302596 0.18453,0.281628 0.169527,0.405417 -0.187914,1.550492 -0.21365,0.684435 -0.389114,1.289183 -0.389921,1.343884 -7.88e-4,0.0547 0.768828,-0.286537 1.710298,-0.758308 1.690032,-0.846877 1.715808,-0.85481 2.030434,-0.624881 0.17527,0.128087 0.353181,0.317972 0.395359,0.421966 0.12187,0.300483 -0.547925,0.848571 -1.937345,1.585315 -0.704396,0.373508 -1.28072,0.728963 -1.28072,0.789901 0,0.136466 0.227375,0.205461 1.293437,0.392483 1.182802,0.207502 1.401325,0.315926 1.599113,0.793428 0.157172,0.37945 0.149978,0.441101 -0.07027,0.602152 -0.356638,0.26078 -0.701366,0.226964 -2.873525,-0.281883 -1.075749,-0.252004 -2.075579,-0.458189 -2.221845,-0.458189 -0.264295,0 -1.917259,0.847516 -2.632995,1.350002 l -0.374308,0.262785 0.571342,0.353413 c 0.314237,0.194378 0.9948,0.575025 1.512361,0.845883 l 0.941018,0.492469 1.522709,-0.40637 c 2.394174,-0.638941 3.369761,-0.820623 3.559768,-0.66293 0.22095,0.183372 0.329117,0.796895 0.187235,1.062003 -0.06897,0.12887 -0.440788,0.276544 -0.940125,0.373385 -1.693011,0.328339 -2.073913,0.425875 -2.073913,0.531056 0,0.05934 0.683811,0.48299 1.519581,0.941445 0.835769,0.458456 1.641736,0.946733 1.791036,1.085063 0.26466,0.245214 0.265258,0.25614 0.02385,0.436532 -0.60331,0.450826 -0.636906,0.445486 -2.277709,-0.362039 -0.878104,-0.432161 -1.652431,-0.785747 -1.720725,-0.785747 -0.0713,0 -0.12417,0.692537 -0.12417,1.626629 0,1.51979 -0.01737,1.631171 -0.264483,1.695793 -0.145467,0.03804 -0.421625,0.02714 -0.613686,-0.02423 -0.397107,-0.106203 -0.60626,-0.611703 -1.17099,-2.830147 -0.182746,-0.717891 -0.386685,-1.406937 -0.453196,-1.531214 -0.100758,-0.188269 -2.829578,-1.695309 -3.06972,-1.695309 -0.04193,0 -0.07623,0.817083 -0.07623,1.81574 v 1.815738 l 1.642878,1.481831 c 0.928427,0.837415 1.677334,1.619111 1.722108,1.797507 0.112012,0.446292 -0.25244,0.969836 -0.610031,0.876324 -0.151151,-0.03953 -0.749179,-0.50738 -1.328952,-1.039673 -0.579772,-0.532293 -1.102579,-0.967806 -1.161793,-0.967806 -0.05921,0 -0.128107,0.82975 -0.153096,1.84389 -0.03599,1.46041 -0.08641,1.869769 -0.24247,1.968327 -0.234827,0.148308 -0.369148,0.148445 -0.734357,7.88e-4 z"
   id="path817"
   inkscape:connector-curvature="0"
   transform="translate(0,-0.5)" /></svg>