<?xml version="1.0" encoding="UTF-8" standalone="no"?>
<svg
   xmlns:dc="http://purl.org/dc/elements/1.1/"
   xmlns:cc="http://creativecommons.org/ns#"
   xmlns:rdf="http://www.w3.org/1999/02/22-rdf-syntax-ns#"
   xmlns:svg="http://www.w3.org/2000/svg"
   xmlns="http://www.w3.org/2000/svg"
   xmlns:sodipodi="http://sodipodi.sourceforge.net/DTD/sodipodi-0.dtd"
   xmlns:inkscape="http://www.inkscape.org/namespaces/inkscape"
   width="24px"
   height="40px"
   viewBox="0 0 24 40"
   version="1.1"
   id="svg13"
   sodipodi:docname="ic-nav-send-active.svg"
   inkscape:version="0.92.3 (2405546, 2018-03-11)">
  <metadata
     id="metadata19">
    <rdf:RDF>
      <cc:Work
         rdf:about="">
        <dc:format>image/svg+xml</dc:format>
        <dc:type
           rdf:resource="http://purl.org/dc/dcmitype/StillImage" />
      </cc:Work>
    </rdf:RDF>
  </metadata>
  <defs
     id="defs17" />
  <sodipodi:namedview
     pagecolor="#ffffff"
     bordercolor="#666666"
     borderopacity="1"
     objecttolerance="10"
     gridtolerance="10"
     guidetolerance="10"
     inkscape:pageopacity="0"
     inkscape:pageshadow="2"
     inkscape:window-width="1836"
     inkscape:window-height="993"
     id="namedview15"
     showgrid="false"
     inkscape:zoom="5.9"
     inkscape:cx="12"
     inkscape:cy="20"
     inkscape:window-x="67"
     inkscape:window-y="27"
     inkscape:window-maximized="0"
     inkscape:current-layer="svg13" />
  <!-- Generator: Sketch 52.6 (67491) - http://www.bohemiancoding.com/sketch -->
  <title
     id="title2">Send</title>
  <desc
     id="desc4">Created with Sketch.</desc>
  <g
     id="Send"
     stroke="none"
     stroke-width="1"
     fill="none"
     fill-rule="evenodd">
    <g
       id="ic-send"
       transform="translate(-1.000000, 11.000000)">
      <g
         id="Group_8811"
         transform="translate(1.000000, 1.000000)"
         fill="#B088FF">
        <polygon
           id="Path_18865"
           points="0.352 9.1 7.562 13.606 9.014 12.154 4.914 9.59 19.714 4.283 14.407 19.083 11.842 14.983 10.391 16.434 14.9 23.648 23.025 0.975" />
        <g
           id="Group_8810"
           transform="translate(8.000000, 8.000000)">
          <polygon
             id="Rectangle_4394"
             transform="translate(3.823718, 4.176339) rotate(-45.000000) translate(-3.823718, -4.176339) "
             points="-0.176282346 3.17633883 7.82371765 3.17633883 7.82371765 5.17633883 -0.176282346 5.17633883" />
        </g>
      </g>
      <polygon
         id="Rectangle_4395"
         points="0 0 26 0 26 26 0 26" />
    </g>
  </g>
  <path
     style="fill:#88aa00;stroke-width:0.16949153"
     d="m 9.0067077,26.990737 -0.6286652,-0.643812 2.7935805,-2.789731 2.79358,-2.789731 0.634314,0.634314 0.634314,0.634314 -2.799229,2.799229 -2.799229,2.799229 z"
     id="path826"
     inkscape:connector-curvature="0" />
  <path
     style="fill:#88aa00;stroke-width:0.16949153"
     d=""
     id="path828"
     inkscape:connector-curvature="0" />
  <path
     style="fill:#88aa00;stroke-width:0.16949153"
     d="m 12.713961,32.030959 c -1.175729,-1.876145 -2.13769,-3.466503 -2.13769,-3.534126 0,-0.06762 0.291549,-0.407642 0.647886,-0.755596 l 0.647885,-0.632643 1.177028,1.893975 c 0.647365,1.041687 1.243868,1.901999 1.325562,1.911806 0.152593,0.01832 5.413526,-14.47085 5.2967,-14.587675 -0.119179,-0.11918 -14.5058262,5.111289 -14.5324264,5.283469 -0.014402,0.09322 0.8240193,0.697859 1.8631578,1.34364 l 1.8893427,1.174149 -0.6326434,0.647885 C 7.910809,25.13218 7.570791,25.423729 7.5031673,25.423729 c -0.1660739,0 -6.95904061,-4.262082 -6.89372633,-4.325301 C 0.7870721,20.926495 22.643631,13.197303 22.724242,13.277914 c 0.08096,0.08096 -7.650649,21.938255 -7.821934,22.112645 -0.02786,0.02837 -1.012618,-1.483452 -2.188347,-3.3596 z"
     id="path830"
     inkscape:connector-curvature="0" />
</svg>
