<?xml version="1.0" encoding="UTF-8" standalone="no"?>
<svg
   xmlns:dc="http://purl.org/dc/elements/1.1/"
   xmlns:cc="http://creativecommons.org/ns#"
   xmlns:rdf="http://www.w3.org/1999/02/22-rdf-syntax-ns#"
   xmlns:svg="http://www.w3.org/2000/svg"
   xmlns="http://www.w3.org/2000/svg"
   xmlns:sodipodi="http://sodipodi.sourceforge.net/DTD/sodipodi-0.dtd"
   xmlns:inkscape="http://www.inkscape.org/namespaces/inkscape"
   width="24px"
   height="40px"
   viewBox="0 0 24 40"
   version="1.1"
   id="svg13"
   sodipodi:docname="ic-nav-send.svg"
   inkscape:version="0.92.3 (2405546, 2018-03-11)">
  <metadata
     id="metadata19">
    <rdf:RDF>
      <cc:Work
         rdf:about="">
        <dc:format>image/svg+xml</dc:format>
        <dc:type
           rdf:resource="http://purl.org/dc/dcmitype/StillImage" />
      </cc:Work>
    </rdf:RDF>
  </metadata>
  <defs
     id="defs17" />
  <sodipodi:namedview
     pagecolor="#ffffff"
     bordercolor="#666666"
     borderopacity="1"
     objecttolerance="10"
     gridtolerance="10"
     guidetolerance="10"
     inkscape:pageopacity="0"
     inkscape:pageshadow="2"
     inkscape:window-width="1820"
     inkscape:window-height="1051"
     id="namedview15"
     showgrid="false"
     inkscape:zoom="5.9"
     inkscape:cx="12"
     inkscape:cy="20"
     inkscape:window-x="67"
     inkscape:window-y="27"
     inkscape:window-maximized="0"
     inkscape:current-layer="svg13" />
  <!-- Generator: Sketch 52.6 (67491) - http://www.bohemiancoding.com/sketch -->
  <title
     id="title2">Send Off Copy</title>
  <desc
     id="desc4">Created with Sketch.</desc>
  <g
     id="Send-Off-Copy"
     stroke="none"
     stroke-width="1"
     fill="none"
     fill-rule="evenodd">
    <g
       id="ic-send-off"
       transform="translate(0.000000, 11.000000)">
      <g
         id="Group_8811"
         transform="translate(0.000000, 1.000000)"
         fill="#938DA5">
        <polygon
           id="Path_18865"
           points="0.352 9.1 7.562 13.606 9.014 12.154 4.914 9.59 19.714 4.283 14.407 19.083 11.842 14.983 10.391 16.434 14.9 23.648 23.025 0.975" />
        <g
           id="Group_8810"
           transform="translate(8.000000, 8.000000)">
          <polygon
             id="Rectangle_4394"
             transform="translate(3.823718, 4.176339) rotate(-45.000000) translate(-3.823718, -4.176339) "
             points="-0.176282346 3.17633883 7.82371765 3.17633883 7.82371765 5.17633883 -0.176282346 5.17633883" />
        </g>
      </g>
      <polygon
         id="Rectangle_4395"
         points="1 0 27 0 27 26 1 26" />
    </g>
  </g>
  <path
     style="fill:#668000;stroke-width:0.16949153"
     d="m 12.745763,32.083083 c -1.165255,-1.870181 -2.13991,-3.482934 -2.165902,-3.583895 -0.02599,-0.10096 0.242391,-0.466399 0.596406,-0.812085 l 0.643663,-0.62852 1.264269,2.025288 c 0.695349,1.113909 1.313753,1.970219 1.374232,1.902912 0.17088,-0.190173 5.254081,-14.479208 5.199833,-14.616896 -0.05472,-0.138888 -14.7097176,5.081581 -14.7079832,5.239343 6.206e-4,0.05645 0.875479,0.636533 1.9441299,1.289075 1.0686508,0.652542 1.9452618,1.228165 1.9480242,1.279161 0.00276,0.051 -0.2838752,0.374823 -0.6369729,0.719613 L 7.5634663,25.523971 4.1376654,23.387516 C 2.2534749,22.212466 0.71226939,21.2022 0.71276437,21.14248 0.71371281,21.02805 22.754407,13.099017 22.828366,13.186499 c 0.03199,0.03784 -7.66364,21.605857 -7.917845,22.190801 -0.02536,0.05836 -0.999504,-1.424036 -2.164758,-3.294217 z"
     id="path826"
     inkscape:connector-curvature="0" />
  <path
     style="fill:#668000;stroke-width:0.16949153"
     d="m 8.9691819,26.919225 -0.6250377,-0.640096 2.7909668,-2.787122 2.790968,-2.787122 0.684114,0.66802 0.684115,0.66802 -2.755397,2.759199 c -1.515468,1.517559 -2.7979883,2.759198 -2.8500442,2.759198 -0.052056,0 -0.3759142,-0.288044 -0.7196849,-0.640097 z"
     id="path828"
     inkscape:connector-curvature="0" />
</svg>
