<?xml version="1.0" encoding="UTF-8" standalone="no"?>
<svg
   xmlns:dc="http://purl.org/dc/elements/1.1/"
   xmlns:cc="http://creativecommons.org/ns#"
   xmlns:rdf="http://www.w3.org/1999/02/22-rdf-syntax-ns#"
   xmlns:svg="http://www.w3.org/2000/svg"
   xmlns="http://www.w3.org/2000/svg"
   xmlns:sodipodi="http://sodipodi.sourceforge.net/DTD/sodipodi-0.dtd"
   xmlns:inkscape="http://www.inkscape.org/namespaces/inkscape"
   width="24px"
   height="40px"
   viewBox="0 0 24 40"
   version="1.1"
   id="svg13"
   sodipodi:docname="ic-nav-receive-active.svg"
   inkscape:version="0.92.3 (2405546, 2018-03-11)">
  <metadata
     id="metadata19">
    <rdf:RDF>
      <cc:Work
         rdf:about="">
        <dc:format>image/svg+xml</dc:format>
        <dc:type
           rdf:resource="http://purl.org/dc/dcmitype/StillImage" />
      </cc:Work>
    </rdf:RDF>
  </metadata>
  <defs
     id="defs17" />
  <sodipodi:namedview
     pagecolor="#ffffff"
     bordercolor="#666666"
     borderopacity="1"
     objecttolerance="10"
     gridtolerance="10"
     guidetolerance="10"
     inkscape:pageopacity="0"
     inkscape:pageshadow="2"
     inkscape:window-width="1842"
     inkscape:window-height="1058"
     id="namedview15"
     showgrid="false"
     inkscape:zoom="5.9"
     inkscape:cx="12"
     inkscape:cy="20"
     inkscape:window-x="67"
     inkscape:window-y="27"
     inkscape:window-maximized="0"
     inkscape:current-layer="svg13" />
  <!-- Generator: Sketch 52.6 (67491) - http://www.bohemiancoding.com/sketch -->
  <title
     id="title2">Receive off</title>
  <desc
     id="desc4">Created with Sketch.</desc>
  <g
     id="Receive-off"
     stroke="none"
     stroke-width="1"
     fill="none"
     fill-rule="evenodd">
    <g
       id="ic-receive-on"
       transform="translate(-1.000000, 11.000000)">
      <polygon
         id="Rectangle_4413"
         points="0 0 26 0 26 26 0 26" />
      <g
         id="Group_8987"
         transform="translate(2.000000, 2.000000)"
         fill="#B088FF">
        <g
           id="Group_8986">
          <polygon
             id="Path_18953"
             points="18.178 10.734 16.822 9.265 12 13.716 12 0 10 0 10 13.716 5.178 9.266 3.822 10.734 11 17.361" />
          <polygon
             id="Path_18954"
             points="20 15 20 20 2 20 2 15 0 15 0 22 22 22 22 15" />
        </g>
      </g>
    </g>
  </g>
  <path
     style="fill:#88aa00;stroke-width:0.16949153"
     d="m 1.1186441,31.525424 v -3.389831 h 0.9322034 0.9322033 v 2.457627 2.457627 h 9.0677962 9.067797 V 30.59322 28.135593 h 0.932203 0.932204 v 3.389831 3.38983 H 12.050847 1.1186441 Z"
     id="path826"
     inkscape:connector-curvature="0" />
  <path
     style="fill:#88aa00;stroke-width:0.16949153"
     d="M 8.4968931,27.048307 C 6.6354385,25.333519 5.0940033,23.866061 5.0714816,23.787289 c -0.022522,-0.07877 0.215258,-0.442806 0.5283995,-0.808966 l 0.5693481,-0.665746 2.3130805,2.148796 c 1.2721942,1.181838 2.3858123,2.148796 2.4747073,2.148796 0.09981,0 0.161627,-2.592806 0.161627,-6.779661 v -6.779661 h 0.930302 0.930302 l 0.04428,6.839921 0.04427,6.83992 2.365516,-2.183776 2.365517,-2.183775 0.656116,0.656116 0.656116,0.656116 -1.07248,1.015503 c -2.820851,2.670986 -5.910409,5.478448 -6.027251,5.476926 -0.07149,-8.47e-4 -1.652983,-1.404703 -3.5144389,-3.119491 z"
     id="path828"
     inkscape:connector-curvature="0" />
</svg>
