<?xml version="1.0" encoding="UTF-8" standalone="no"?>
<svg
   xmlns:dc="http://purl.org/dc/elements/1.1/"
   xmlns:cc="http://creativecommons.org/ns#"
   xmlns:rdf="http://www.w3.org/1999/02/22-rdf-syntax-ns#"
   xmlns:svg="http://www.w3.org/2000/svg"
   xmlns="http://www.w3.org/2000/svg"
   xmlns:sodipodi="http://sodipodi.sourceforge.net/DTD/sodipodi-0.dtd"
   xmlns:inkscape="http://www.inkscape.org/namespaces/inkscape"
   width="24px"
   height="40px"
   viewBox="0 0 24 40"
   version="1.1"
   id="svg10"
   sodipodi:docname="ic-nav-privacy-active.svg"
   inkscape:version="0.92.3 (2405546, 2018-03-11)">
  <metadata
     id="metadata16">
    <rdf:RDF>
      <cc:Work
         rdf:about="">
        <dc:format>image/svg+xml</dc:format>
        <dc:type
           rdf:resource="http://purl.org/dc/dcmitype/StillImage" />
      </cc:Work>
    </rdf:RDF>
  </metadata>
  <defs
     id="defs14" />
  <sodipodi:namedview
     pagecolor="#ffffff"
     bordercolor="#666666"
     borderopacity="1"
     objecttolerance="10"
     gridtolerance="10"
     guidetolerance="10"
     inkscape:pageopacity="0"
     inkscape:pageshadow="2"
     inkscape:window-width="1727"
     inkscape:window-height="967"
     id="namedview12"
     showgrid="false"
     inkscape:zoom="5.9"
     inkscape:cx="12"
     inkscape:cy="20"
     inkscape:window-x="67"
     inkscape:window-y="27"
     inkscape:window-maximized="0"
     inkscape:current-layer="svg10" />
  <!-- Generator: Sketch 52.6 (67491) - http://www.bohemiancoding.com/sketch -->
  <title
     id="title2">Privacy Active</title>
  <desc
     id="desc4">Created with Sketch.</desc>
  <g
     id="Privacy-Active"
     stroke="none"
     stroke-width="1"
     fill="none"
     fill-rule="evenodd">
    <g
       id="Group"
       transform="translate(1.000000, 13.000000)"
       fill="#B088FF"
       fill-rule="nonzero">
      <path
         d="M20.025,10.116 L17.771,0.009 L11,1.156 L4.229,0 L1.975,10.116 L0,10.116 L0,12.116 L22,12.116 L22,10.116 L20.025,10.116 Z M5.771,2.294 L11,3.183 L16.229,2.283 L17.976,10.116 L4.024,10.116 L5.771,2.294 Z"
         id="Path_18869" />
      <path
         d="M12,16.116 L10,16.116 L10,14.116 L1,14.116 L1,17.854 C1.08087292,20.2726593 3.08016383,22.1830929 5.5,22.154 C7.77023475,22.0683766 9.65187105,20.366305 9.964,18.116 L12.036,18.116 C12.3490129,20.3655153 14.2304203,22.0665369 16.5,22.152 C18.9198362,22.1810929 20.9191271,20.2706593 21,17.852 L21,14.116 L12,14.116 L12,16.116 Z M8,17.854 C7.90893564,19.1676128 6.81676551,20.186691 5.5,20.186691 C4.18323449,20.186691 3.09106436,19.1676128 3,17.854 L3,16.116 L8,16.116 L8,17.854 Z M14,16.116 L19,16.116 L19,17.854 C18.9089356,19.1676128 17.8167655,20.186691 16.5,20.186691 C15.1832345,20.186691 14.0910644,19.1676128 14,17.854 L14,16.116 Z"
         id="Path_18870" />
    </g>
  </g>
  <path
     style="fill:#88aa00;stroke-width:0.16949153"
     d="m 1.1186441,24.127102 v -0.923745 l 0.962353,-0.05083 0.9623529,-0.05083 1.1004731,-5 c 0.6052601,-2.75 1.1065233,-5.011576 1.1139181,-5.025723 0.00739,-0.01415 1.5344647,0.239176 3.3934888,0.562942 l 3.380043,0.588666 3.357245,-0.581628 c 1.846485,-0.319895 3.357245,-0.549254 3.357245,-0.509686 0,0.03957 0.495762,2.274011 1.101695,4.965429 0.605932,2.691418 1.101695,4.93652 1.101695,4.989116 0,0.0526 0.457627,0.09563 1.016949,0.09563 h 1.016949 v 0.932203 0.932203 H 12.050847 1.1186441 Z M 19.004075,22.974576 c -0.03852,-0.116525 -0.426958,-1.851695 -0.863202,-3.855932 -0.436244,-2.004237 -0.840895,-3.696995 -0.899225,-3.761684 -0.05833,-0.06469 -1.240838,0.07928 -2.627795,0.319935 l -2.52174,0.437552 -2.6408515,-0.43983 C 7.9987931,15.432711 6.7894693,15.255728 6.7638753,15.281323 c -0.06227,0.06227 -1.7469261,7.524232 -1.7469261,7.73778 0,0.107432 2.5161577,0.167338 7.0285788,0.167338 5.547219,0 7.013819,-0.04465 6.958547,-0.211865 z"
     id="path823"
     inkscape:connector-curvature="0" />
  <path
     style="fill:#88aa00;stroke-width:0.16949153"
     d="M 4.5932203,34.6469 C 3.5746776,34.165383 2.9519342,33.53273 2.4882903,32.508475 2.1975029,31.866084 2.1424507,31.391484 2.1393156,29.5 l -0.00372,-2.245763 h 4.4067797 4.4067797 v 0.932204 0.932203 h 1.016949 1.016949 v -0.932203 -0.932204 h 4.507779 4.507778 l -0.06301,2.330509 c -0.07284,2.694238 -0.276031,3.266235 -1.562555,4.398677 -1.839124,1.618863 -4.470076,1.386364 -6.170376,-0.545278 -0.405792,-0.461004 -0.81474,-1.151618 -0.942845,-1.592234 l -0.226229,-0.778114 -1.033572,-0.05024 -1.033572,-0.05024 -0.173967,0.646062 C 10.556207,32.490861 9.7451429,33.733146 9.1160969,34.181066 7.7933032,35.122978 5.9925724,35.308444 4.5932203,34.6469 Z M 7.85594,32.821265 c 0.771319,-0.476701 1.2203032,-1.47651 1.2250834,-2.728045 l 0.00372,-0.974576 H 6.5423729 4 l 6.271e-4,1.144068 c 4.746e-4,0.842443 0.089428,1.289703 0.3374339,1.696464 0.7302858,1.197765 2.337467,1.59162 3.5178726,0.862089 z m 10.892467,0.05602 c 0.824617,-0.431665 1.353288,-1.516758 1.353288,-2.777609 V 29.11864 h -2.56032 -2.560319 l 0.06079,1.33866 c 0.04721,1.039691 0.136392,1.423643 0.399302,1.719182 0.900027,1.011729 2.190797,1.285241 3.307257,0.700803 z"
     id="path825"
     inkscape:connector-curvature="0" />
</svg>
