<?xml version="1.0" encoding="UTF-8" standalone="no"?>
<svg
   xmlns:dc="http://purl.org/dc/elements/1.1/"
   xmlns:cc="http://creativecommons.org/ns#"
   xmlns:rdf="http://www.w3.org/1999/02/22-rdf-syntax-ns#"
   xmlns:svg="http://www.w3.org/2000/svg"
   xmlns="http://www.w3.org/2000/svg"
   xmlns:sodipodi="http://sodipodi.sourceforge.net/DTD/sodipodi-0.dtd"
   xmlns:inkscape="http://www.inkscape.org/namespaces/inkscape"
   width="24px"
   height="40px"
   viewBox="0 0 24 40"
   version="1.1"
   id="svg13"
   sodipodi:docname="ic-nav-receive.svg"
   inkscape:version="0.92.3 (2405546, 2018-03-11)">
  <metadata
     id="metadata19">
    <rdf:RDF>
      <cc:Work
         rdf:about="">
        <dc:format>image/svg+xml</dc:format>
        <dc:type
           rdf:resource="http://purl.org/dc/dcmitype/StillImage" />
      </cc:Work>
    </rdf:RDF>
  </metadata>
  <defs
     id="defs17" />
  <sodipodi:namedview
     pagecolor="#ffffff"
     bordercolor="#666666"
     borderopacity="1"
     objecttolerance="10"
     gridtolerance="10"
     guidetolerance="10"
     inkscape:pageopacity="0"
     inkscape:pageshadow="2"
     inkscape:window-width="1836"
     inkscape:window-height="1042"
     id="namedview15"
     showgrid="false"
     inkscape:zoom="5.9"
     inkscape:cx="-10.457627"
     inkscape:cy="20"
     inkscape:window-x="67"
     inkscape:window-y="27"
     inkscape:window-maximized="0"
     inkscape:current-layer="svg13" />
  <!-- Generator: Sketch 52.6 (67491) - http://www.bohemiancoding.com/sketch -->
  <title
     id="title2">Receive off</title>
  <desc
     id="desc4">Created with Sketch.</desc>
  <g
     id="Receive-off"
     stroke="none"
     stroke-width="1"
     fill="none"
     fill-rule="evenodd">
    <g
       id="ic-receive-on"
       transform="translate(-1.000000, 11.000000)">
      <polygon
         id="Rectangle_4413"
         points="0 0 26 0 26 26 0 26" />
      <g
         id="Group_8987"
         transform="translate(2.000000, 2.000000)"
         fill="#938DA5">
        <g
           id="Group_8986">
          <polygon
             id="Path_18953"
             points="18.178 10.734 16.822 9.265 12 13.716 12 0 10 0 10 13.716 5.178 9.266 3.822 10.734 11 17.361" />
          <polygon
             id="Path_18954"
             points="20 15 20 20 2 20 2 15 0 15 0 22 22 22 22 15" />
        </g>
      </g>
    </g>
  </g>
  <path
     style="fill:#668000;stroke-width:0.16949153"
     d="m 8.400722,26.941059 -3.4465739,-3.194534 0.6076717,-0.70063 0.6076717,-0.700631 2.3728814,2.18786 2.3728811,2.187859 0.04427,-6.852017 0.04427,-6.852017 h 0.930302 0.930302 v 6.864407 c 0,3.775424 0.0572,6.860955 0.127118,6.856737 0.06992,-0.0042 1.189922,-0.992171 2.488902,-2.195449 l 2.361784,-2.187779 0.55489,0.627652 c 0.30519,0.345209 0.558065,0.678512 0.561945,0.740673 0.0099,0.158427 -6.781197,6.412403 -6.96312,6.412403 -0.08175,0 -1.699588,-1.43754 -3.595204,-3.194534 z"
     id="path826"
     inkscape:connector-curvature="0" />
  <path
     style="fill:#668000;stroke-width:0.16949153"
     d="m 1,31.491525 v -3.38983 h 0.9322034 0.9322034 v 2.457627 2.457627 H 11.932203 21 v -2.457627 -2.457627 h 0.932203 0.932204 v 3.38983 3.389831 H 11.932203 1 Z"
     id="path828"
     inkscape:connector-curvature="0" />
</svg>
