<?xml version="1.0" encoding="UTF-8" standalone="no"?>
<svg
   xmlns:dc="http://purl.org/dc/elements/1.1/"
   xmlns:cc="http://creativecommons.org/ns#"
   xmlns:rdf="http://www.w3.org/1999/02/22-rdf-syntax-ns#"
   xmlns:svg="http://www.w3.org/2000/svg"
   xmlns="http://www.w3.org/2000/svg"
   xmlns:sodipodi="http://sodipodi.sourceforge.net/DTD/sodipodi-0.dtd"
   xmlns:inkscape="http://www.inkscape.org/namespaces/inkscape"
   width="24px"
   height="40px"
   viewBox="0 0 24 40"
   version="1.1"
   id="svg10"
   sodipodi:docname="ic-nav-privacy.svg"
   inkscape:version="0.92.3 (2405546, 2018-03-11)">
  <metadata
     id="metadata16">
    <rdf:RDF>
      <cc:Work
         rdf:about="">
        <dc:format>image/svg+xml</dc:format>
        <dc:type
           rdf:resource="http://purl.org/dc/dcmitype/StillImage" />
      </cc:Work>
    </rdf:RDF>
  </metadata>
  <defs
     id="defs14" />
  <sodipodi:namedview
     pagecolor="#ffffff"
     bordercolor="#666666"
     borderopacity="1"
     objecttolerance="10"
     gridtolerance="10"
     guidetolerance="10"
     inkscape:pageopacity="0"
     inkscape:pageshadow="2"
     inkscape:window-width="1800"
     inkscape:window-height="983"
     id="namedview12"
     showgrid="false"
     inkscape:zoom="5.9"
     inkscape:cx="12"
     inkscape:cy="20"
     inkscape:window-x="67"
     inkscape:window-y="27"
     inkscape:window-maximized="0"
     inkscape:current-layer="svg10" />
  <!-- Generator: Sketch 52.6 (67491) - http://www.bohemiancoding.com/sketch -->
  <title
     id="title2">Privacy</title>
  <desc
     id="desc4">Created with Sketch.</desc>
  <g
     id="Privacy"
     stroke="none"
     stroke-width="1"
     fill="none"
     fill-rule="evenodd">
    <g
       id="Group"
       transform="translate(1.000000, 13.000000)"
       fill="#938DA5"
       fill-rule="nonzero">
      <path
         d="M20.025,10.116 L17.771,0.009 L11,1.156 L4.229,0 L1.975,10.116 L0,10.116 L0,12.116 L22,12.116 L22,10.116 L20.025,10.116 Z M5.771,2.294 L11,3.183 L16.229,2.283 L17.976,10.116 L4.024,10.116 L5.771,2.294 Z"
         id="Path_18869" />
      <path
         d="M12,16.116 L10,16.116 L10,14.116 L1,14.116 L1,17.854 C1.08087292,20.2726593 3.08016383,22.1830929 5.5,22.154 C7.77023475,22.0683766 9.65187105,20.366305 9.964,18.116 L12.036,18.116 C12.3490129,20.3655153 14.2304203,22.0665369 16.5,22.152 C18.9198362,22.1810929 20.9191271,20.2706593 21,17.852 L21,14.116 L12,14.116 L12,16.116 Z M8,17.854 C7.90893564,19.1676128 6.81676551,20.186691 5.5,20.186691 C4.18323449,20.186691 3.09106436,19.1676128 3,17.854 L3,16.116 L8,16.116 L8,17.854 Z M14,16.116 L19,16.116 L19,17.854 C18.9089356,19.1676128 17.8167655,20.186691 16.5,20.186691 C15.1832345,20.186691 14.0910644,19.1676128 14,17.854 L14,16.116 Z"
         id="Path_18870" />
    </g>
  </g>
  <path
     style="fill:#445500;stroke-width:0.16949153"
     d="M 5.2870383,34.926383 C 4.1205734,34.57156 3.0725146,33.684164 2.4714049,32.542373 2.22128,32.067267 2.1468434,31.468256 2.0975545,29.533898 L 2.036012,27.118644 h 4.4226719 4.4226721 v 1.016949 1.016949 h 1.101695 1.101695 v -1.016949 -1.016949 h 4.419283 4.419285 l -0.05488,2.415254 c -0.0604,2.658231 -0.207231,3.17116 -1.197834,4.184374 -0.898517,0.919025 -1.752736,1.271152 -3.094331,1.275549 -1.004261,0.0033 -1.327575,-0.07401 -2.105574,-0.503441 -1.028706,-0.567809 -1.743652,-1.440972 -2.175542,-2.656988 L 13.00518,31.016949 h -1.041791 -1.041791 l -0.183538,0.728896 c -0.57126,2.26868 -3.2707278,3.843753 -5.4510217,3.180538 z M 7.6576385,32.923465 C 8.6391353,32.430344 9.0169492,31.681478 9.0169492,30.229172 V 28.983051 H 6.4566297 3.8963102 l 0.06032,1.313559 c 0.046839,1.020011 0.1443379,1.431346 0.4362827,1.840625 0.7312084,1.025087 2.1224445,1.360132 3.2647256,0.78623 z m 11.0169495,0 c 0.981497,-0.493121 1.35931,-1.241987 1.35931,-2.694293 v -1.246121 h -2.560319 -2.56032 l 0.06032,1.313559 c 0.04834,1.052779 0.140951,1.426613 0.466465,1.883012 0.715615,1.003358 2.089261,1.319253 3.234544,0.743843 z"
     id="path823"
     inkscape:connector-curvature="0" />
  <path
     style="fill:#445500;stroke-width:0.16949153"
     d="M 1.0508475,24.152542 V 23.220339 H 2.0415943 3.032341 l 1.0855244,-4.928242 c 0.5970385,-2.710533 1.1239502,-4.991855 1.1709151,-5.069605 0.046965,-0.07775 1.5723887,0.116351 3.3898305,0.431334 l 3.30444,0.572696 3.050847,-0.506303 c 1.677966,-0.278466 3.196217,-0.523925 3.37389,-0.545464 0.289871,-0.03514 0.4378,0.474237 1.440678,4.960838 l 1.117636,5 0.974576,0.05083 0.974576,0.05083 v 0.923745 0.923745 H 11.983051 1.0508475 Z M 19.016949,23.070836 c 0,-0.237897 -1.712413,-7.721102 -1.783006,-7.791695 -0.03503,-0.03503 -1.22449,0.141007 -2.643255,0.391184 L 12.011115,16.125192 9.4048071,15.668996 C 7.9713376,15.418089 6.7719768,15.241192 6.7395608,15.275892 c -0.032416,0.0347 -0.4143703,1.664786 -0.8487877,3.622413 -0.4344173,1.957627 -0.8322667,3.730932 -0.8841094,3.940678 l -0.09426,0.381356 h 7.0522733 c 3.959918,0 7.052272,-0.06555 7.052272,-0.149503 z"
     id="path825"
     inkscape:connector-curvature="0" />
</svg>
