<?xml version="1.0" encoding="UTF-8" standalone="no"?>
<svg
   xmlns:dc="http://purl.org/dc/elements/1.1/"
   xmlns:cc="http://creativecommons.org/ns#"
   xmlns:rdf="http://www.w3.org/1999/02/22-rdf-syntax-ns#"
   xmlns:svg="http://www.w3.org/2000/svg"
   xmlns="http://www.w3.org/2000/svg"
   xmlns:sodipodi="http://sodipodi.sourceforge.net/DTD/sodipodi-0.dtd"
   xmlns:inkscape="http://www.inkscape.org/namespaces/inkscape"
   width="24px"
   height="40px"
   viewBox="0 0 24 40"
   version="1.1"
   id="svg13"
   sodipodi:docname="ic-nav-settings-active.svg"
   inkscape:version="0.92.3 (2405546, 2018-03-11)">
  <metadata
     id="metadata19">
    <rdf:RDF>
      <cc:Work
         rdf:about="">
        <dc:format>image/svg+xml</dc:format>
        <dc:type
           rdf:resource="http://purl.org/dc/dcmitype/StillImage" />
      </cc:Work>
    </rdf:RDF>
  </metadata>
  <defs
     id="defs17" />
  <sodipodi:namedview
     pagecolor="#ffffff"
     bordercolor="#666666"
     borderopacity="1"
     objecttolerance="10"
     gridtolerance="10"
     guidetolerance="10"
     inkscape:pageopacity="0"
     inkscape:pageshadow="2"
     inkscape:window-width="1851"
     inkscape:window-height="958"
     id="namedview15"
     showgrid="false"
     inkscape:zoom="5.9"
     inkscape:cx="12"
     inkscape:cy="20"
     inkscape:window-x="67"
     inkscape:window-y="27"
     inkscape:window-maximized="0"
     inkscape:current-layer="svg13" />
  <!-- Generator: Sketch 52.6 (67491) - http://www.bohemiancoding.com/sketch -->
  <title
     id="title2">Artboard</title>
  <desc
     id="desc4">Created with Sketch.</desc>
  <g
     id="Artboard"
     stroke="none"
     stroke-width="1"
     fill="none"
     fill-rule="evenodd">
    <g
       id="ic_settings-active"
       transform="translate(1.000000, 13.000000)"
       fill="#B088FF"
       fill-rule="nonzero">
      <g
         id="Group_8818">
        <g
           id="Group_8816">
          <path
             d="M13.9,22 L8.1,22 L7.787,18.864 L7.72,18.837 L5.281,20.837 L1.167,16.725 L3.167,14.285 L3.139,14.219 L0,13.9 L0,8.1 L3.135,7.786 L3.163,7.72 L1.163,5.28 L5.276,1.168 L7.715,3.168 L7.782,3.141 L8.1,0 L13.9,0 L14.213,3.136 L14.28,3.163 L16.719,1.163 L20.828,5.27 L18.828,7.71 L18.856,7.776 L22,8.1 L22,13.9 L18.865,14.214 L18.837,14.28 L20.837,16.72 L16.728,20.827 L14.289,18.827 L14.222,18.854 L13.9,22 Z M9.9,20 L12.1,20 L12.361,17.39 L12.987,17.19 C13.3287124,17.08012 13.660554,16.9416296 13.979,16.776 L14.562,16.476 L16.595,18.14 L18.143,16.591 L16.479,14.556 L16.779,13.972 C16.9446037,13.6542337 17.0830952,13.3230586 17.193,12.982 L17.393,12.357 L20,12.1 L20,9.9 L17.39,9.639 L17.19,9.014 C17.0800952,8.67294144 16.9416037,8.3417663 16.776,8.024 L16.476,7.44 L18.138,5.41 L16.59,3.861 L14.557,5.525 L13.974,5.225 C13.655552,5.05937466 13.3237108,4.92088448 12.982,4.811 L12.356,4.611 L12.1,2 L9.9,2 L9.639,4.61 L9.013,4.81 C8.67128919,4.91988448 8.33944799,5.05837466 8.021,5.224 L7.438,5.524 L5.41,3.861 L3.862,5.41 L5.526,7.445 L5.226,8.029 C5.06039627,8.3467663 4.92190485,8.67794144 4.812,9.019 L4.612,9.644 L2,9.9 L2,12.1 L4.61,12.361 L4.81,12.986 C4.91990485,13.3270586 5.05839627,13.6582337 5.224,13.976 L5.524,14.56 L3.862,16.59 L5.41,18.139 L7.443,16.475 L8.026,16.775 C8.34444598,16.9406296 8.67628755,17.07912 9.018,17.189 L9.644,17.389 L9.9,20 Z"
             id="Path_18871" />
        </g>
        <g
           id="Group_8817"
           transform="translate(7.000000, 7.000000)">
          <path
             d="M4,8 C1.790861,8 0,6.209139 0,4 C0,1.790861 1.790861,0 4,0 C6.209139,0 8,1.790861 8,4 C8,5.06086596 7.57857264,6.07828161 6.82842712,6.82842712 C6.07828161,7.57857264 5.06086596,8 4,8 Z M4,2 C2.8954305,2 2,2.8954305 2,4 C2,5.1045695 2.8954305,6 4,6 C5.1045695,6 6,5.1045695 6,4 C6,2.8954305 5.1045695,2 4,2 Z"
             id="Path_18872" />
        </g>
      </g>
    </g>
  </g>
  <path
     style="fill:#88aa00;stroke-width:0.16949153"
     d="M 9.1421059,34.70339 C 9.1049292,34.586864 9.0245444,33.900424 8.9634729,33.177966 8.9024015,32.455508 8.7975103,31.864407 8.7303815,31.864407 c -0.067129,0 -0.6419718,0.428854 -1.2774288,0.953008 L 6.2975764,33.770424 4.272002,31.744849 2.2464278,29.719275 3.1910105,28.566899 c 0.5195205,-0.633806 0.9445827,-1.212441 0.9445827,-1.285854 0,-0.07341 -0.5911017,-0.183447 -1.3135593,-0.244518 C 2.0995763,26.975456 1.4131356,26.895071 1.2966102,26.857894 1.1384194,26.807424 1.0847458,26.082405 1.0847458,23.996051 v -2.79425 l 0.5508474,-0.0853 C 1.9385593,21.069585 2.625,20.98437 3.1610169,20.927133 c 0.536017,-0.05724 0.9745763,-0.158267 0.9745763,-0.224511 0,-0.06625 -0.43112,-0.639841 -0.9580444,-1.274658 l -0.9580443,-1.154213 2.0220869,-2.022087 2.0220867,-2.022087 1.134828,0.936059 c 0.6241554,0.514832 1.2066256,0.936059 1.294378,0.936059 0.087752,0 0.2095174,-0.591102 0.2705888,-1.313559 0.061072,-0.722458 0.1414563,-1.408899 0.178633,-1.525424 0.05047,-0.158191 0.7754887,-0.211865 2.8618431,-0.211865 h 2.79425 l 0.08299,0.550848 c 0.04564,0.302966 0.144437,1.028389 0.219545,1.61205 l 0.136558,1.061204 1.257519,-1.029924 1.257518,-1.029923 2.005194,1.999969 c 1.102856,1.099983 2.005193,2.009587 2.005193,2.021343 0,0.01176 -0.459968,0.584982 -1.022151,1.273836 l -1.022151,1.252462 1.064524,0.132009 c 0.585488,0.0726 1.312405,0.1714 1.615371,0.219545 l 0.550848,0.08753 v 2.79425 c 0,2.086354 -0.05367,2.811373 -0.211865,2.861843 -0.116525,0.03718 -0.802966,0.117562 -1.525424,0.178633 -0.722457,0.06107 -1.313559,0.186433 -1.313559,0.278581 0,0.09215 0.426073,0.669772 0.946827,1.283609 l 0.946829,1.116067 -2.02782,2.027819 -2.027819,2.027821 -1.155376,-0.953009 c -0.635457,-0.524154 -1.21132,-0.953008 -1.279694,-0.953008 -0.06837,0 -0.171148,0.438559 -0.228385,0.974576 -0.05724,0.536017 -0.142452,1.222458 -0.189368,1.525424 l -0.0853,0.550847 h -2.79425 c -2.0863544,0 -2.8113732,-0.05367 -2.8618431,-0.211864 z m 4.0392011,-2.033898 c 0.05621,-0.209746 0.104283,-0.648306 0.106829,-0.974577 0.0063,-0.804268 0.169077,-1.355478 0.401123,-1.358113 0.105654,-0.0012 0.573453,-0.180229 1.039555,-0.397843 l 0.847457,-0.395662 1.001154,0.831396 1.001154,0.831395 0.813001,-0.800778 0.813001,-0.800776 -0.811832,-1.03108 -0.811833,-1.031081 0.429042,-1.016949 c 0.235971,-0.559322 0.440476,-1.036905 0.454452,-1.061295 0.01398,-0.02439 0.590202,-0.100662 1.2805,-0.169492 L 21,25.169492 21.04962,24.047088 c 0.0552,-1.248634 -0.02041,-1.325077 -1.32081,-1.335224 -1.107872,-0.0086 -1.276251,-0.13237 -1.721219,-1.264758 l -0.420521,-1.070175 0.815392,-0.988987 0.815393,-0.988987 -0.789313,-0.801364 -0.789315,-0.801364 -0.438259,0.32669 c -0.241043,0.179679 -0.694839,0.543374 -1.008436,0.808209 l -0.570175,0.48152 -1.069821,-0.420382 c -1.13201,-0.444819 -1.255761,-0.613265 -1.264404,-1.72108 -0.01015,-1.300395 -0.08659,-1.376013 -1.335224,-1.320809 L 10.830508,15 10.705363,16.255089 c -0.06883,0.690299 -0.145101,1.266032 -0.169492,1.279406 -0.02439,0.01337 -0.516348,0.222629 -1.0932388,0.465012 L 8.3937388,18.440202 7.6629712,17.832937 C 7.2610488,17.498941 6.8134503,17.126821 6.6683076,17.006004 6.443038,16.818488 6.2861544,16.906398 5.5964673,17.606614 l -0.8079446,0.820279 0.8306156,0.998418 0.8306154,0.998418 -0.3921874,0.847457 c -0.2157032,0.466102 -0.393169,0.933901 -0.3943685,1.039555 -0.00263,0.232046 -0.5538449,0.394848 -1.3581131,0.401123 -1.3003959,0.01015 -1.3760133,0.08659 -1.3208094,1.335224 0.04331,0.979616 0.092747,1.12661 0.3886061,1.15547 1.8003489,0.17562 2.2883423,0.270507 2.2897913,0.445231 9.153e-4,0.109818 0.1806671,0.584093 0.399459,1.053945 l 0.3978032,0.854277 -0.4965864,0.586401 C 5.6902261,28.464933 5.3235193,28.92603 5.1484446,29.167073 l -0.3183175,0.43826 0.8015231,0.78947 0.8015229,0.789472 1.0104477,-0.81977 1.0104477,-0.81977 0.8492369,0.395468 c 0.4670804,0.217507 0.9345966,0.396214 1.0389246,0.397124 0.205295,0.0018 0.398678,0.907014 0.401667,1.880187 10e-4,0.33404 0.05271,0.658193 0.11486,0.720339 0.06215,0.06215 0.58715,0.112994 1.166673,0.112994 0.949427,0 1.06379,-0.03773 1.155877,-0.381355 z"
     id="path826"
     inkscape:connector-curvature="0" />
  <path
     style="fill:#88aa00;stroke-width:0.16949153"
     d="m 10.724298,27.701027 c -1.3927704,-0.428863 -2.6903997,-2.1596 -2.6903997,-3.588369 0,-2.184727 1.8080058,-4.000781 3.9830507,-4.000781 2.217817,0 3.872891,1.654842 3.871714,3.871174 -9.32e-4,1.756259 -1.226619,3.385907 -2.854992,3.795936 -0.937975,0.236184 -1.332402,0.222869 -2.309373,-0.07796 z m 2.164333,-1.876424 C 14.747991,24.942278 14.09913,22 12.045191,22 c -2.2066793,0 -2.9074141,2.983499 -0.90528,3.854384 0.710046,0.308855 1.047197,0.303113 1.74872,-0.02978 z"
     id="path828"
     inkscape:connector-curvature="0" />
</svg>
