<?xml version="1.0" encoding="UTF-8" standalone="no"?>
<svg
   xmlns:dc="http://purl.org/dc/elements/1.1/"
   xmlns:cc="http://creativecommons.org/ns#"
   xmlns:rdf="http://www.w3.org/1999/02/22-rdf-syntax-ns#"
   xmlns:svg="http://www.w3.org/2000/svg"
   xmlns="http://www.w3.org/2000/svg"
   xmlns:sodipodi="http://sodipodi.sourceforge.net/DTD/sodipodi-0.dtd"
   xmlns:inkscape="http://www.inkscape.org/namespaces/inkscape"
   width="24px"
   height="40px"
   viewBox="0 0 24 40"
   version="1.1"
   id="svg12"
   sodipodi:docname="ic-nav-settings.svg"
   inkscape:version="0.92.3 (2405546, 2018-03-11)">
  <metadata
     id="metadata18">
    <rdf:RDF>
      <cc:Work
         rdf:about="">
        <dc:format>image/svg+xml</dc:format>
        <dc:type
           rdf:resource="http://purl.org/dc/dcmitype/StillImage" />
      </cc:Work>
    </rdf:RDF>
  </metadata>
  <defs
     id="defs16" />
  <sodipodi:namedview
     pagecolor="#ffffff"
     bordercolor="#666666"
     borderopacity="1"
     objecttolerance="10"
     gridtolerance="10"
     guidetolerance="10"
     inkscape:pageopacity="0"
     inkscape:pageshadow="2"
     inkscape:window-width="1833"
     inkscape:window-height="990"
     id="namedview14"
     showgrid="false"
     inkscape:zoom="5.9"
     inkscape:cx="12"
     inkscape:cy="20"
     inkscape:window-x="67"
     inkscape:window-y="27"
     inkscape:window-maximized="0"
     inkscape:current-layer="svg12" />
  <!-- Generator: Sketch 52.6 (67491) - http://www.bohemiancoding.com/sketch -->
  <title
     id="title2">Settings</title>
  <desc
     id="desc4">Created with Sketch.</desc>
  <g
     id="Settings"
     stroke="none"
     stroke-width="1"
     fill="none"
     fill-rule="evenodd">
    <g
       id="Group_8818"
       transform="translate(1.000000, 13.000000)"
       fill="#938DA5"
       fill-rule="nonzero">
      <g
         id="Group_8816">
        <path
           d="M13.9,22 L8.1,22 L7.787,18.864 L7.72,18.837 L5.281,20.837 L1.167,16.725 L3.167,14.285 L3.139,14.219 L0,13.9 L0,8.1 L3.135,7.786 L3.163,7.72 L1.163,5.28 L5.276,1.168 L7.715,3.168 L7.782,3.141 L8.1,0 L13.9,0 L14.213,3.136 L14.28,3.163 L16.719,1.163 L20.828,5.27 L18.828,7.71 L18.856,7.776 L22,8.1 L22,13.9 L18.865,14.214 L18.837,14.28 L20.837,16.72 L16.728,20.827 L14.289,18.827 L14.222,18.854 L13.9,22 Z M9.9,20 L12.1,20 L12.361,17.39 L12.987,17.19 C13.3287124,17.08012 13.660554,16.9416296 13.979,16.776 L14.562,16.476 L16.595,18.14 L18.143,16.591 L16.479,14.556 L16.779,13.972 C16.9446037,13.6542337 17.0830952,13.3230586 17.193,12.982 L17.393,12.357 L20,12.1 L20,9.9 L17.39,9.639 L17.19,9.014 C17.0800952,8.67294144 16.9416037,8.3417663 16.776,8.024 L16.476,7.44 L18.138,5.41 L16.59,3.861 L14.557,5.525 L13.974,5.225 C13.655552,5.05937466 13.3237108,4.92088448 12.982,4.811 L12.356,4.611 L12.1,2 L9.9,2 L9.639,4.61 L9.013,4.81 C8.67128919,4.91988448 8.33944799,5.05837466 8.021,5.224 L7.438,5.524 L5.41,3.861 L3.862,5.41 L5.526,7.445 L5.226,8.029 C5.06039627,8.3467663 4.92190485,8.67794144 4.812,9.019 L4.612,9.644 L2,9.9 L2,12.1 L4.61,12.361 L4.81,12.986 C4.91990485,13.3270586 5.05839627,13.6582337 5.224,13.976 L5.524,14.56 L3.862,16.59 L5.41,18.139 L7.443,16.475 L8.026,16.775 C8.34444598,16.9406296 8.67628755,17.07912 9.018,17.189 L9.644,17.389 L9.9,20 Z"
           id="Path_18871" />
      </g>
      <g
         id="Group_8817"
         transform="translate(7.000000, 7.000000)">
        <path
           d="M4,8 C1.790861,8 0,6.209139 0,4 C0,1.790861 1.790861,0 4,0 C6.209139,0 8,1.790861 8,4 C8,5.06086596 7.57857264,6.07828161 6.82842712,6.82842712 C6.07828161,7.57857264 5.06086596,8 4,8 Z M4,2 C2.8954305,2 2,2.8954305 2,4 C2,5.1045695 2.8954305,6 4,6 C5.1045695,6 6,5.1045695 6,4 C6,2.8954305 5.1045695,2 4,2 Z"
           id="Path_18872" />
      </g>
    </g>
  </g>
  <path
     style="fill:#668000;stroke-width:0.16949153"
     d="M 10.389831,27.542398 C 8.058391,26.460653 7.359628,23.488555 8.9760307,21.528983 9.6500412,20.711877 10.979144,20.071108 12,20.071108 c 1.560611,0 3.336365,1.289003 3.731352,2.708553 0.734492,2.639703 -1.08436,5.092183 -3.768281,5.081023 -0.508101,-0.0021 -1.18847,-0.139759 -1.57324,-0.318286 z m 2.72649,-1.821805 c 1.289838,-0.845134 1.173355,-2.878629 -0.202286,-3.531414 -0.683898,-0.324531 -1.144172,-0.324531 -1.82807,0 -1.8919337,0.897782 -1.2216718,3.807546 0.877625,3.809979 0.399467,4.58e-4 0.918196,-0.124891 1.152731,-0.278565 z"
     id="path828"
     inkscape:connector-curvature="0" />
  <path
     style="fill:#668000;stroke-width:0.16949153"
     d="M 9.0244724,33.453941 C 8.9586814,32.612931 8.8547131,31.893842 8.793432,31.855968 8.7321508,31.818095 8.1427364,32.232139 7.483622,32.776066 L 6.2852325,33.765025 4.2831605,31.757724 2.2810885,29.750422 3.0007917,28.817553 C 3.3966285,28.304475 3.8291463,27.794512 3.9619424,27.684301 4.4914283,27.244866 4.2780547,27.156814 2.1271186,26.927133 L 1.1525424,26.823066 V 23.971899 21.120733 L 2.6779661,21 c 0.8389831,-0.0664 1.5254237,-0.172324 1.5254237,-0.235379 0,-0.06306 -0.4194915,-0.620034 -0.9322034,-1.237728 -0.5127118,-0.617695 -0.9322033,-1.196711 -0.9322033,-1.286702 0,-0.08999 0.8827305,-0.993137 1.9616235,-2.006991 1.0788929,-1.013853 1.9804732,-1.861475 2.0035119,-1.883605 0.023039,-0.02213 0.553282,0.381587 1.1783188,0.897146 0.6250366,0.515559 1.2107444,0.891452 1.3015727,0.835317 0.090828,-0.05614 0.1658054,-0.345444 0.1666158,-0.642908 8.103e-4,-0.297465 0.04957,-0.941269 0.1083544,-1.430675 L 9.1658614,13.118644 H 12 14.834139 l 0.106881,0.889831 c 0.05878,0.489406 0.107544,1.13321 0.108354,1.430675 8.14e-4,0.297464 0.07869,0.588568 0.173072,0.646898 0.09438,0.05833 0.571075,-0.22605 1.059322,-0.631955 0.488248,-0.405905 1.025842,-0.843677 1.194653,-0.972827 0.278796,-0.213293 0.48465,-0.0576 2.245764,1.698516 1.066357,1.063333 1.938832,1.993814 1.938832,2.067735 0,0.07392 -0.419492,0.642972 -0.932203,1.264557 -0.512712,0.621584 -0.932204,1.183487 -0.932204,1.248673 0,0.06519 0.686441,0.17285 1.525424,0.239253 l 1.525424,0.120733 v 2.841186 2.841185 l -0.635594,0.105057 c -0.349576,0.05778 -0.902542,0.111258 -1.228813,0.118836 -1.272366,0.02955 -1.312458,0.159429 -0.392178,1.270442 0.459063,0.554205 0.897242,1.111233 0.973732,1.237839 0.09828,0.162669 -0.425708,0.796583 -1.786273,2.161017 -1.058939,1.061952 -1.990752,1.930824 -2.070693,1.930824 -0.07994,0 -0.649402,-0.418385 -1.265468,-0.929744 -0.716617,-0.594822 -1.162437,-0.861273 -1.237594,-0.739668 -0.06461,0.104544 -0.170615,0.828013 -0.235563,1.607712 l -0.118088,1.417632 H 11.997509 9.1440925 Z m 4.2535256,-1.648856 0.114853,-1.31356 1.108235,-0.457849 1.108235,-0.45785 0.883104,0.75446 c 0.485708,0.414953 0.954341,0.75446 1.041406,0.75446 0.08707,0 0.492576,-0.3406 0.901133,-0.75689 l 0.742833,-0.756891 -0.783653,-0.997465 -0.783652,-0.997464 0.375125,-0.915137 c 0.535629,-1.306695 0.505732,-1.282917 1.737319,-1.381777 0.617042,-0.04953 1.195267,-0.163428 1.284945,-0.253106 0.08968,-0.08968 0.139846,-0.612727 0.111483,-1.16233 l -0.05157,-0.999279 -1.283226,-0.144064 -1.283225,-0.144063 -0.473271,-1.086365 -0.473273,-1.086365 0.781922,-0.915248 c 0.430056,-0.503387 0.78192,-0.982543 0.78192,-1.064791 0,-0.08225 -0.337654,-0.480924 -0.750341,-0.885946 l -0.750341,-0.736404 -0.41471,0.319758 c -0.22809,0.175868 -0.688248,0.536242 -1.022573,0.800831 l -0.607863,0.481073 -1.0621,-0.426791 c -0.584154,-0.234735 -1.077233,-0.489353 -1.09573,-0.565818 -0.0185,-0.07646 -0.08356,-0.653858 -0.144579,-1.283095 L 13.15946,14.983051 H 12 10.84054 l -0.110947,1.144068 c -0.06102,0.629237 -0.126082,1.20663 -0.144579,1.283095 -0.0185,0.07646 -0.511576,0.331083 -1.0957304,0.565818 L 8.4271841,18.402823 7.819321,17.92175 C 7.4849964,17.657161 7.0248385,17.296787 6.796748,17.120919 l -0.4147102,-0.319758 -0.750341,0.736404 c -0.4126875,0.405022 -0.7503409,0.803698 -0.7503409,0.885946 0,0.08225 0.3518644,0.561404 0.781921,1.064791 L 6.445198,20.40355 5.9719261,21.489915 5.4986542,22.57628 4.2154288,22.720343 2.9322034,22.864407 2.8806351,23.863686 c -0.028363,0.549603 0.021805,1.072652 0.1114827,1.16233 0.089678,0.08968 0.6679041,0.203576 1.2849469,0.253106 1.2315865,0.09886 1.2016902,0.07508 1.7373189,1.381777 l 0.3751245,0.915137 -0.7836523,0.997464 -0.7836524,0.997465 0.7428319,0.756891 c 0.4085574,0.41629 0.8140674,0.75689 0.9011333,0.75689 0.087066,0 0.5556985,-0.339507 1.0414061,-0.75446 l 0.8831048,-0.75446 1.1082349,0.45785 1.1082346,0.457849 0.114853,1.31356 0.114854,1.313559 H 12 13.163144 Z"
     id="path830"
     inkscape:connector-curvature="0" />
</svg>
