<?xml version="1.0" encoding="UTF-8" standalone="no"?>
<svg
   xmlns:dc="http://purl.org/dc/elements/1.1/"
   xmlns:cc="http://creativecommons.org/ns#"
   xmlns:rdf="http://www.w3.org/1999/02/22-rdf-syntax-ns#"
   xmlns:svg="http://www.w3.org/2000/svg"
   xmlns="http://www.w3.org/2000/svg"
   xmlns:sodipodi="http://sodipodi.sourceforge.net/DTD/sodipodi-0.dtd"
   xmlns:inkscape="http://www.inkscape.org/namespaces/inkscape"
   width="30"
   height="30"
   viewBox="0 0 20 20"
   version="1.1"
   id="svg12"
   sodipodi:docname="ic-pending.svg"
   inkscape:version="0.92.3 (2405546, 2018-03-11)">
  <metadata
     id="metadata16">
    <rdf:RDF>
      <cc:Work
         rdf:about="">
        <dc:format>image/svg+xml</dc:format>
        <dc:type
           rdf:resource="http://purl.org/dc/dcmitype/StillImage" />
      </cc:Work>
    </rdf:RDF>
  </metadata>
  <sodipodi:namedview
     pagecolor="#ffffff"
     bordercolor="#666666"
     borderopacity="1"
     objecttolerance="10"
     gridtolerance="10"
     guidetolerance="10"
     inkscape:pageopacity="0"
     inkscape:pageshadow="2"
     inkscape:window-width="1613"
     inkscape:window-height="993"
     id="namedview14"
     showgrid="false"
     inkscape:zoom="7.8666667"
     inkscape:cx="-5.0847457"
     inkscape:cy="15"
     inkscape:window-x="67"
     inkscape:window-y="27"
     inkscape:window-maximized="0"
     inkscape:current-layer="svg12" />
  <defs
     id="defs4">
    <style
       type="text/css"
       id="style2">
            .cls-1{opacity:.7}.cls-2{fill:#7c7687}.cls-3{fill:none}
        </style>
  </defs>
  <g
     id="ic_pending"
     class="cls-1">
    <g
       id="Group_8850"
       data-name="Group 8850">
      <path
         id="Path_18903"
         d="M10 18a8 8 0 1 1 8-8 8.009 8.009 0 0 1-8 8zm0-14a6 6 0 1 0 6 6 6.006 6.006 0 0 0-6-6z"
         class="cls-2"
         data-name="Path 18903" />
    </g>
    <g
       id="Group_8851"
       data-name="Group 8851">
      <path
         id="Path_18904"
         d="M14 12H9V6h2v4h3z"
         class="cls-2"
         data-name="Path 18904" />
    </g>
    <path
       id="Rectangle_4429"
       d="M0 0h20v20H0z"
       class="cls-3"
       data-name="Rectangle 4429" />
  </g>
  <path
     style="fill:#668000;stroke-width:0.12711865"
     d="M 13.576271,13.525424 V 9.0762712 H 15.038136 16.5 v 2.9872878 2.987288 h 2.224576 2.224577 v 1.461865 1.461864 h -3.686441 -3.686441 z"
     id="path823"
     inkscape:connector-curvature="0"
     transform="scale(0.66666667)" />
  <path
     style="fill:#668000;stroke-width:0.12711865"
     d="M 13.70339,26.866855 C 8.7139567,26.306662 4.6012461,22.680358 3.3843708,17.768261 2.9876026,16.166648 2.9929302,13.786168 3.3968539,12.190678 4.4760031,7.9280596 7.624192,4.6878181 11.887055,3.4522248 c 0.861484,-0.2497016 1.270716,-0.2859893 3.151081,-0.279415 1.974634,0.0069 2.257459,0.037154 3.279227,0.3507357 4.117977,1.2638128 7.129247,4.3616822 8.247759,8.4849505 0.412393,1.520242 0.411057,4.52746 -0.0027,6.02964 -1.571061,5.704161 -7.06886,9.478819 -12.859052,8.828719 z m 2.581582,-2.932174 c 3.732297,-0.578067 6.679085,-3.289979 7.537259,-6.936497 0.307133,-1.305051 0.183713,-3.601871 -0.262818,-4.891013 C 22.280411,8.4146685 18.960528,6.0160698 15.101695,5.9965117 12.382391,5.9827292 10.19185,6.935026 8.338703,8.9365955 6.9081578,10.481717 6.1082832,12.390991 5.9902089,14.542373 c -0.2467652,4.496204 2.9406319,8.524631 7.3953841,9.346739 1.141971,0.210746 1.769256,0.220605 2.899379,0.04557 z"
     id="path825"
     inkscape:connector-curvature="0"
     transform="scale(0.66666667)" />
  <path
     style="fill:#000000;fill-opacity:1;stroke-width:0.12711865"
     d="M 13.770373,26.796009 C 12.447527,26.676075 11.433677,26.388838 10.03243,25.737001 8.6024589,25.071803 7.9314059,24.617383 6.7925252,23.54302 5.246127,22.084227 3.951173,19.844526 3.4207329,17.711302 3.0956503,16.403947 3.1293948,13.355493 3.4833884,12.051042 4.4034987,8.6604776 6.6679597,5.9006023 9.8148362,4.3344129 11.73596,3.3782764 12.410578,3.2398528 15.076271,3.2548301 c 2.188837,0.012298 2.420043,0.036455 3.338648,0.3488306 3.849224,1.3089447 6.551731,3.9385611 7.823995,7.6129733 0.426127,1.230691 0.454819,1.416996 0.506765,3.290559 0.06447,2.325446 -0.126361,3.541463 -0.800546,5.101129 -2.077083,4.80515 -6.91972,7.664126 -12.17476,7.187687 z m 3.440973,-3.036948 c 3.621702,-0.916493 6.400945,-4.050443 6.753112,-7.614993 C 24.079237,14.9823 23.925403,13.142436 23.640833,12.273496 22.163916,7.7636959 17.65074,5.1778405 12.982461,6.1667083 9.8386916,6.8326435 7.1058209,9.4791318 6.2236682,12.711864 c -0.3097324,1.135044 -0.3080992,3.451485 0.00323,4.576272 0.8429742,3.045574 3.2731617,5.561476 6.1914778,6.409853 1.663263,0.483524 3.053564,0.501239 4.792974,0.06107 z"
     id="path820"
     inkscape:connector-curvature="0"
     transform="scale(0.66666667)" />
  <path
     style="fill:#000000;fill-opacity:1;stroke-width:0.12711865"
     d="M 13.677966,13.538136 V 9.1525423 h 1.398305 1.398305 v 2.9872877 2.987289 h 2.224577 2.224576 v 1.398305 1.398305 h -3.622881 -3.622882 z"
     id="path822"
     inkscape:connector-curvature="0"
     transform="scale(0.66666667)" />
</svg>
