<?xml version="1.0" encoding="UTF-8" standalone="no"?>
<svg
   xmlns:dc="http://purl.org/dc/elements/1.1/"
   xmlns:cc="http://creativecommons.org/ns#"
   xmlns:rdf="http://www.w3.org/1999/02/22-rdf-syntax-ns#"
   xmlns:svg="http://www.w3.org/2000/svg"
   xmlns="http://www.w3.org/2000/svg"
   xmlns:sodipodi="http://sodipodi.sourceforge.net/DTD/sodipodi-0.dtd"
   xmlns:inkscape="http://www.inkscape.org/namespaces/inkscape"
   width="24"
   height="24"
   viewBox="0 0 24 24"
   version="1.1"
   id="svg8"
   sodipodi:docname="ic-radio-liliac-on.svg"
   inkscape:version="0.92.3 (2405546, 2018-03-11)">
  <metadata
     id="metadata12">
    <rdf:RDF>
      <cc:Work
         rdf:about="">
        <dc:format>image/svg+xml</dc:format>
        <dc:type
           rdf:resource="http://purl.org/dc/dcmitype/StillImage" />
      </cc:Work>
    </rdf:RDF>
  </metadata>
  <sodipodi:namedview
     pagecolor="#ffffff"
     bordercolor="#666666"
     borderopacity="1"
     objecttolerance="10"
     gridtolerance="10"
     guidetolerance="10"
     inkscape:pageopacity="0"
     inkscape:pageshadow="2"
     inkscape:window-width="1613"
     inkscape:window-height="993"
     id="namedview10"
     showgrid="false"
     inkscape:zoom="9.8333333"
     inkscape:cx="-20.135593"
     inkscape:cy="12"
     inkscape:window-x="67"
     inkscape:window-y="27"
     inkscape:window-maximized="0"
     inkscape:current-layer="svg8" />
  <defs
     id="defs4">
    <style
       type="text/css"
       id="style2">
            .cls-1{fill:#b088ff;fill-rule:evenodd}
        </style>
  </defs>
  <g
     id="radiobttom_active"
     transform="translate(-508 -240)">
    <path
       id="radio_on"
       d="M14 8a6 6 0 1 0 6 6 5.942 5.942 0 0 0-6-6zm0-6a12 12 0 1 0 12 12A12.035 12.035 0 0 0 14 2zm0 21.6a9.6 9.6 0 1 1 9.6-9.6 9.628 9.628 0 0 1-9.6 9.6z"
       class="cls-1"
       transform="translate(506 238)" />
  </g>
  <path
     style="fill:#88aa00;stroke-width:0.10169491"
     d="M 11.143004,17.896224 C 9.8095246,17.690686 8.75017,17.147461 7.7897189,16.1767 4.0877155,12.434957 6.7070304,6.0872403 11.959322,6.0719744 c 1.758176,-0.00511 3.000706,0.4978826 4.245594,1.7186728 2.228603,2.1854638 2.342489,5.6935688 0.264385,8.1440538 -1.201995,1.417384 -3.460471,2.249117 -5.326297,1.961523 z"
     id="path822"
     inkscape:connector-curvature="0" />
  <path
     style="fill:#88aa00;stroke-width:0.10169491"
     d="M 11.145763,23.933541 C 8.8748477,23.717201 7.1416587,23.114414 5.3491525,21.917537 3.6949892,20.813033 2.2973024,19.249375 1.3929303,17.491525 -1.1347112,12.578487 0.01264739,6.5588191 4.1600849,2.9735238 8.7518493,-0.99587408 15.591228,-0.90206518 20.062813,3.1916457 c 4.913681,4.4984464 5.195542,12.1693643 0.624754,17.0028463 -2.435113,2.575066 -6.214446,4.056034 -9.541804,3.739049 z m 2.237708,-2.419426 c 3.836718,-0.578385 6.953728,-3.375015 7.940435,-7.124284 0.321528,-1.221738 0.370387,-2.994487 0.116327,-4.220812 C 20.569153,5.9643676 17.302367,2.9488838 13.059519,2.4330036 10.137504,2.0777212 6.9557359,3.2688359 4.9327972,5.4752918 3.7438586,6.7720884 2.8979553,8.43463 2.547781,10.162811 c -0.2325882,1.147869 -0.1604271,3.1713 0.1542653,4.325676 1.0580026,3.881036 4.2917285,6.618873 8.3928687,7.10583 0.688446,0.08175 1.373547,0.05774 2.288556,-0.0802 z"
     id="path824"
     inkscape:connector-curvature="0" />
  <path
     style="fill:#000000;stroke-width:0.10169491"
     d="M 10.484746,23.828167 C 10.316949,23.806353 9.6991525,23.673625 9.1118644,23.533217 7.8815458,23.239074 5.9713318,22.348103 4.9932203,21.61218 1.8719495,19.26376 0.13958306,15.836804 0.13415111,12 0.12755126,7.3382663 2.6771442,3.291355 6.8918004,1.2737359 10.845114,-0.61877463 15.562067,-0.16480858 19.086831,2.4474025 19.929182,3.0716714 21.245335,4.4364121 21.81731,5.2786834 22.469209,6.2386468 23.202064,7.8525895 23.507077,9 c 0.361793,1.361018 0.454069,3.603716 0.206705,5.023848 -0.845211,4.852385 -4.589689,8.668725 -9.482299,9.664277 -0.972043,0.197793 -2.782133,0.265448 -3.746737,0.140042 z m 3.050847,-2.314089 c 1.187054,-0.213992 1.821451,-0.426307 2.840013,-0.950474 2.463907,-1.267965 4.178197,-3.370188 4.960273,-6.082753 0.201076,-0.697419 0.231076,-1.02998 0.228381,-2.531698 C 21.56136,10.32883 21.54314,10.166093 21.274134,9.3559322 20.461134,6.9074889 19.24894,5.2497068 17.334087,3.9675752 14.645574,2.1674208 11.222869,1.8578505 8.2053564,3.1419172 6.6907086,3.7864577 5.1163373,5.0452684 4.1667624,6.3710321 3.5453909,7.2385693 2.8683667,8.7259161 2.6002079,9.8125775 2.3998811,10.624363 2.3806553,10.903656 2.4286985,12.304102 c 0.073429,2.140454 0.4581026,3.390793 1.5506433,5.040201 2.0556795,3.103457 5.9778495,4.814857 9.5562512,4.169775 z"
     id="path819"
     inkscape:connector-curvature="0" />
  <path
     style="fill:#000000;stroke-width:0.10169491"
     d="M 10.609337,17.739074 C 7.7678635,17.050633 5.7626556,14.169011 6.156191,11.339596 6.5675902,8.3817459 8.7167672,6.3373065 11.620119,6.1419466 c 1.809326,-0.1217454 3.225864,0.4079579 4.51559,1.6885701 1.207425,1.1988919 1.71848,2.4233403 1.720711,4.1226933 0.0022,1.668213 -0.563625,3.055345 -1.723834,4.226092 -1.386325,1.398916 -3.603205,2.024965 -5.523249,1.559772 z"
     id="path821"
     inkscape:connector-curvature="0" />
  <path
     style="fill:#ffffff;stroke-width:0.10169491"
     d="M 10.78983,23.786274 C 9.7711159,23.694916 8.683407,23.409973 7.5214061,22.930054 3.3928371,21.224911 0.68917742,17.574267 0.24191184,13.100845 -0.23398499,8.3410623 2.2001152,3.81181 6.4513313,1.5466672 7.457231,1.0107014 9.1185379,0.4615414 10.222243,0.30015847 c 1.187441,-0.17362703 3.595031,-0.0745437 4.587669,0.18880365 2.182159,0.57892798 3.729713,1.43992698 5.295692,2.94631758 1.522461,1.4645266 2.240211,2.5432174 2.998224,4.5059611 0.911652,2.3605682 0.909802,5.7543052 -0.0045,8.1774032 -1.280366,3.393409 -4.159188,6.108712 -7.631574,7.198095 -1.372402,0.43056 -3.137266,0.607703 -4.677967,0.469535 z m 3.152747,-2.316879 c 2.88128,-0.594694 5.411581,-2.565788 6.752605,-5.260246 0.765598,-1.538284 0.874749,-2.072143 0.870988,-4.259996 L 21.56287,10.016949 21.224061,9.101695 C 20.581501,7.3659443 19.912973,6.2492843 18.901025,5.2215028 17.72523,4.0273105 16.059826,3.0593297 14.450847,2.6349316 13.219492,2.3101385 11.367773,2.2625278 10.108263,2.5232768 8.4231889,2.8721279 6.9229646,3.6191449 5.6399502,4.7482144 4.2881629,5.9378052 3.4221949,7.2673871 2.7382563,9.2033899 2.4634452,9.9812888 2.4508843,10.097185 2.4516895,11.847458 c 9.661e-4,2.107092 0.1427434,2.918577 0.7205454,4.124247 1.4560431,3.038253 4.1022949,5.02946 7.4650531,5.61718 0.69045,0.120672 2.449876,0.05707 3.305289,-0.11949 z"
     id="path818"
     inkscape:connector-curvature="0" />
  <path
     style="fill:#ffffff;stroke-width:0.10169491"
     d="M 10.224629,17.564005 C 9.273162,17.239638 8.4692617,16.722742 7.7891666,15.998039 7.1112169,15.275623 6.4437244,14.032135 6.2595937,13.148561 5.9872674,11.841768 6.3526979,10.00451 7.1251965,8.7966102 7.8761843,7.6223453 9.2047942,6.6759082 10.546079,6.3597397 c 0.811213,-0.1912195 2.312881,-0.1987112 3.002898,-0.014981 1.747283,0.4652471 3.476138,2.1134664 4.011849,3.8247333 0.260997,0.833721 0.282957,2.507012 0.0446,3.398496 -0.517996,1.937381 -2.170595,3.550629 -4.170984,4.071664 -0.914814,0.23828 -2.391029,0.203489 -3.209816,-0.07565 z"
     id="path820"
     inkscape:connector-curvature="0" />
</svg>
