<?xml version="1.0" encoding="UTF-8" standalone="no"?>
<svg
   xmlns:dc="http://purl.org/dc/elements/1.1/"
   xmlns:cc="http://creativecommons.org/ns#"
   xmlns:rdf="http://www.w3.org/1999/02/22-rdf-syntax-ns#"
   xmlns:svg="http://www.w3.org/2000/svg"
   xmlns="http://www.w3.org/2000/svg"
   xmlns:sodipodi="http://sodipodi.sourceforge.net/DTD/sodipodi-0.dtd"
   xmlns:inkscape="http://www.inkscape.org/namespaces/inkscape"
   id="ic_receive_on"
   width="26"
   height="26"
   viewBox="0 0 26 26"
   version="1.1"
   sodipodi:docname="ic-receive-on.svg"
   inkscape:version="0.92.3 (2405546, 2018-03-11)">
  <metadata
     id="metadata13">
    <rdf:RDF>
      <cc:Work
         rdf:about="">
        <dc:format>image/svg+xml</dc:format>
        <dc:type
           rdf:resource="http://purl.org/dc/dcmitype/StillImage" />
      </cc:Work>
    </rdf:RDF>
  </metadata>
  <sodipodi:namedview
     pagecolor="#ffffff"
     bordercolor="#666666"
     borderopacity="1"
     objecttolerance="10"
     gridtolerance="10"
     guidetolerance="10"
     inkscape:pageopacity="0"
     inkscape:pageshadow="2"
     inkscape:window-width="1849"
     inkscape:window-height="1082"
     id="namedview11"
     showgrid="false"
     inkscape:zoom="9.0769231"
     inkscape:cx="13"
     inkscape:cy="13"
     inkscape:window-x="67"
     inkscape:window-y="27"
     inkscape:window-maximized="0"
     inkscape:current-layer="ic_receive_on" />
  <defs
     id="defs4">
    <style
       type="text/css"
       id="style2">
            .cls-1{fill:#b088ff}.cls-2{fill:none}
        </style>
  </defs>
  <g
     id="Group_8834"
     data-name="Group 8834"
     transform="translate(1 1)">
    <path
       id="Path_18892"
       d="M18.676 11.737l-1.352-1.475L13 14.227V2h-2v12.227l-4.324-3.964-1.352 1.474L12 17.856z"
       class="cls-1"
       data-name="Path 18892" />
    <path
       id="Path_18893"
       d="M20 16v4H4v-4H2v6h20v-6z"
       class="cls-1"
       data-name="Path 18893" />
  </g>
  <path
     id="Rectangle_4413"
     d="M0 0h26v26H0z"
     class="cls-2"
     data-name="Rectangle 4413" />
  <path
     style="fill:#88aa00;stroke-width:0.11016949"
     d="M 2.9966102,20.028814 V 17.054237 H 3.9881356 4.979661 v 1.983051 1.983051 h 8.042373 8.042373 v -1.983051 -1.983051 h 0.93644 0.936441 v 2.974577 2.974576 H 12.966949 2.9966102 Z"
     id="path820"
     inkscape:connector-curvature="0" />
  <path
     style="fill:#88aa00;stroke-width:0.11016949"
     d="M 9.6981905,15.799199 C 7.9003732,14.156631 6.4262946,12.787924 6.4224602,12.757627 c -0.00383,-0.0303 0.2772764,-0.368506 0.6246908,-0.751576 l 0.6316626,-0.696492 2.0798123,1.908356 c 1.1438971,1.049596 2.1230281,1.924882 2.1758471,1.945079 0.05388,0.0206 0.09603,-2.626914 0.09603,-6.0317793 V 3.0627119 h 0.990593 0.990593 l 0.02848,6.078816 0.02848,6.0788161 2.129345,-1.960911 c 1.17114,-1.078502 2.166393,-1.917677 2.211672,-1.864833 0.04528,0.05284 0.339538,0.374238 0.653907,0.714212 l 0.571579,0.618133 -3.108087,2.852205 c -1.709449,1.568714 -3.209793,2.93193 -3.3341,3.029371 -0.217904,0.170809 -0.34326,0.07004 -3.4947695,-2.809322 z"
     id="path822"
     inkscape:connector-curvature="0" />
</svg>
