<?xml version="1.0" encoding="UTF-8" standalone="no"?>
<svg
   xmlns:dc="http://purl.org/dc/elements/1.1/"
   xmlns:cc="http://creativecommons.org/ns#"
   xmlns:rdf="http://www.w3.org/1999/02/22-rdf-syntax-ns#"
   xmlns:svg="http://www.w3.org/2000/svg"
   xmlns="http://www.w3.org/2000/svg"
   xmlns:sodipodi="http://sodipodi.sourceforge.net/DTD/sodipodi-0.dtd"
   xmlns:inkscape="http://www.inkscape.org/namespaces/inkscape"
   width="40"
   height="26"
   viewBox="0 0 40 26"
   version="1.1"
   id="svg22"
   sodipodi:docname="ic-switch-liliac-on.svg"
   inkscape:version="0.92.3 (2405546, 2018-03-11)">
  <metadata
     id="metadata26">
    <rdf:RDF>
      <cc:Work
         rdf:about="">
        <dc:format>image/svg+xml</dc:format>
        <dc:type
           rdf:resource="http://purl.org/dc/dcmitype/StillImage" />
      </cc:Work>
    </rdf:RDF>
  </metadata>
  <sodipodi:namedview
     pagecolor="#ffffff"
     bordercolor="#666666"
     borderopacity="1"
     objecttolerance="10"
     gridtolerance="10"
     guidetolerance="10"
     inkscape:pageopacity="0"
     inkscape:pageshadow="2"
     inkscape:window-width="1853"
     inkscape:window-height="898"
     id="namedview24"
     showgrid="false"
     inkscape:zoom="9.0769231"
     inkscape:cx="20"
     inkscape:cy="13"
     inkscape:window-x="67"
     inkscape:window-y="27"
     inkscape:window-maximized="0"
     inkscape:current-layer="svg22" />
  <defs
     id="defs15">
    <style
       type="text/css"
       id="style2">
            .cls-1,.cls-2{fill:#b088ff}.cls-1{fill-rule:evenodd;opacity:.5}.cls-3{filter:url(#switch_button)}
        </style>
    <filter
       id="switch_button"
       width="26"
       height="26"
       x="14"
       y="0"
       filterUnits="userSpaceOnUse">
      <feOffset
         dy="2"
         id="feOffset4" />
      <feGaussianBlur
         result="blur"
         stdDeviation="1"
         id="feGaussianBlur6" />
      <feFlood
         flood-opacity=".239"
         id="feFlood8" />
      <feComposite
         in2="blur"
         operator="in"
         id="feComposite10"
         result="result1" />
      <feComposite
         in="SourceGraphic"
         in2="result1"
         id="feComposite12" />
    </filter>
  </defs>
  <g
     id="switch_on"
     transform="translate(0 1)">
    <path
       id="switch_path"
       d="M37 10a6.957 6.957 0 0 1-7 7H10a6.957 6.957 0 0 1-7-7 6.957 6.957 0 0 1 7-7h20a6.957 6.957 0 0 1 7 7z"
       class="cls-1"
       transform="translate(-3 .223)" />
    <g
       class="cls-3"
       transform="translate(0 -1)"
       id="g19">
      <path
         id="switch_button-2"
         d="M10 0A10 10 0 1 1 0 10 10 10 0 0 1 10 0z"
         class="cls-2"
         data-name="switch_button"
         transform="translate(17 1)"
         style="fill:#88aa00" />
    </g>
  </g>
  <path
     style="fill:#aad400;stroke-width:0.11016949"
     d="M 5.2937188,18.000138 C 2.8747164,17.41536 0.80287371,15.324103 0.230853,12.889831 0.01483462,11.97055 0.01263047,10.36557 0.22623238,9.5252651 0.84479902,7.0918398 2.8545516,5.0820872 5.287977,4.4635205 5.8395877,4.3233033 7.0334697,4.2966102 12.753228,4.2966102 h 6.808629 L 19.074381,4.8950997 C 18.468405,5.6390743 17.896907,6.6651582 17.566888,7.6016949 17.4281,7.9955508 17.250175,8.419601 17.1715,8.5440287 c -0.07868,0.1244276 -0.245352,0.5210378 -0.37039,0.8813559 -0.426116,1.2279144 -0.569669,2.1459664 -0.567564,3.6297004 0.0023,1.621683 0.297062,3.038348 0.900482,4.327825 0.182641,0.390293 0.332074,0.728846 0.332074,0.75234 0,0.02349 -2.59036,0.03859 -5.756356,0.03354 C 7.0873895,18.16139 5.8234349,18.1282 5.2937188,18.00014 Z"
     id="path839"
     inkscape:connector-curvature="0" />
  <path
     style="fill:#aad400;stroke-width:0.11016949"
     d="m 17.358032,17.379237 c -0.19685,-0.439301 -0.481903,-1.269703 -0.633451,-1.845339 -0.441909,-1.678534 -0.366514,-4.286906 0.165324,-5.7195154 0.06765,-0.18222 0.09881,0.147762 0.09884,1.0466104 4.5e-5,1.297806 0.120481,2.084555 0.693081,4.527581 0.169427,0.722868 0.542464,1.65587 1.08223,2.706765 0.02334,0.04545 -0.202936,0.08263 -0.502839,0.08263 h -0.545278 z"
     id="path841"
     inkscape:connector-curvature="0" />
  <path
     style="fill:#aad400;stroke-width:0.11016949"
     d="m 18.475801,17.413466 c -0.391077,-0.874627 -0.733715,-1.868896 -0.837552,-2.430415 -0.05301,-0.286669 0.04291,-0.158771 0.3739,0.49853 0.244863,0.486267 0.767636,1.291882 1.161718,1.790254 l 0.716512,0.906131 h -0.536371 -0.536372 z"
     id="path843"
     inkscape:connector-curvature="0" />
  <path
     style="fill:#aad400;stroke-width:0.11016949"
     d=""
     id="path845"
     inkscape:connector-curvature="0" />
  <path
     style="fill:#aad400;stroke-width:0.11016949"
     d="m 16.931019,16.776893 c -0.477797,-1.300115 -0.605102,-2.106311 -0.605102,-3.831978 0,-1.73696 0.135033,-2.575425 0.586513,-3.6418417 l 0.230561,-0.5445987 -0.06396,0.4924611 c -0.03518,0.2708536 -0.109477,0.5205914 -0.165108,0.5549728 -0.240833,0.1488433 -0.47036,1.6312505 -0.477495,3.0839225 -0.0077,1.573046 0.102217,2.29126 0.55365,3.616759 0.327043,0.960264 0.277627,1.18644 -0.05906,0.270303 z"
     id="path847"
     inkscape:connector-curvature="0" />
  <path
     style="fill:#aad400;stroke-width:0.11016949"
     d="m 17.326572,17.146086 c -0.434186,-1.100799 -0.736468,-2.22902 -0.741885,-2.768967 -0.0018,-0.183261 -0.03938,-0.274093 -0.08425,-0.203879 -0.04452,0.06965 -0.08094,-0.483366 -0.08094,-1.228915 0,-0.74555 0.03642,-1.298296 0.08094,-1.228325 0.04452,0.06997 0.08646,-0.0463 0.0932,-0.258373 0.0067,-0.212076 0.07174,-0.633474 0.14444,-0.936441 l 0.132177,-0.550847 0.0752,1.242704 c 0.125116,2.067715 0.764553,4.818805 1.423961,6.1264 0.361274,0.716398 0.31903,0.833707 -0.30135,0.836836 -0.320126,0.0016 -0.351955,-0.04261 -0.741486,-1.030193 z"
     id="path849"
     inkscape:connector-curvature="0" />
  <path
     style="fill:#aad400;stroke-width:0.11016949"
     d=""
     id="path851"
     inkscape:connector-curvature="0" />
  <path
     style="fill:#aad400;stroke-width:0.11016949"
     d="M 17.441927,17.473929 C 17.0593,16.5779 16.584746,14.944505 16.584746,14.523547 c 0,-0.178578 -0.03718,-0.301854 -0.08263,-0.273948 -0.04545,0.02791 -0.08458,-0.560554 -0.08696,-1.30769 -0.0024,-0.747136 0.0285,-1.338134 0.06864,-1.313329 0.04013,0.02481 0.108121,-0.238999 0.151079,-0.586231 0.141947,-1.1473563 0.241525,-1.1159315 0.3358015,0.101049 0.136846,2.116676 0.694392,4.619222 1.340844,6.018382 0.41962,0.908212 0.396598,1.012404 -0.223891,1.013277 -0.301401,4.19e-4 -0.356894,-0.06132 -0.630107,-0.701128 z"
     id="path853"
     inkscape:connector-curvature="0" />
  <path
     style="fill:#aad400;stroke-width:0.11016949"
     d="M 8.3220339,18.065807 C 5.4716941,18.008572 5.2532483,17.989517 4.6313559,17.743876 2.5811067,16.934049 0.95228796,15.174417 0.34212413,13.110169 0.12541174,12.377009 0.09212866,10.333472 0.28380797,9.5296358 0.81775471,7.2904492 3.0314766,5.0509491 5.2372881,4.5184735 5.7464949,4.3955527 19.449153,4.2072788 19.449153,4.3232032 c 0,0.032772 -0.199149,0.3004705 -0.442555,0.5948859 -0.648364,0.784242 -1.944352,3.4917781 -2.418308,5.0522499 -0.676664,2.227876 -0.473863,5.207439 0.505106,7.421063 0.145965,0.330053 0.252353,0.61051 0.236421,0.62324 -0.08485,0.06779 -6.394829,0.103634 -9.0077831,0.05117 z"
     id="path855"
     inkscape:connector-curvature="0" />
  <path
     style="fill:#aad400;stroke-width:0.11016949"
     d=""
     id="path857"
     inkscape:connector-curvature="0" />
  <path
     style="fill:#aad400;stroke-width:0.11016949"
     d="m 16.296296,12.944915 c 2.18e-4,-0.727118 0.01805,-1.010239 0.03962,-0.629157 0.02157,0.381082 0.0214,0.975997 -3.97e-4,1.322034 -0.02179,0.346036 -0.03944,0.03424 -0.03923,-0.692877 z"
     id="path859"
     inkscape:connector-curvature="0" />
</svg>
