<?xml version="1.0" encoding="UTF-8" standalone="no"?>
<svg
   xmlns:dc="http://purl.org/dc/elements/1.1/"
   xmlns:cc="http://creativecommons.org/ns#"
   xmlns:rdf="http://www.w3.org/1999/02/22-rdf-syntax-ns#"
   xmlns:svg="http://www.w3.org/2000/svg"
   xmlns="http://www.w3.org/2000/svg"
   xmlns:sodipodi="http://sodipodi.sourceforge.net/DTD/sodipodi-0.dtd"
   xmlns:inkscape="http://www.inkscape.org/namespaces/inkscape"
   id="ic_send"
   width="26"
   height="26"
   viewBox="0 0 26 26"
   version="1.1"
   sodipodi:docname="ic-send.svg"
   inkscape:version="0.92.3 (2405546, 2018-03-11)">
  <metadata
     id="metadata14">
    <rdf:RDF>
      <cc:Work
         rdf:about="">
        <dc:format>image/svg+xml</dc:format>
        <dc:type
           rdf:resource="http://purl.org/dc/dcmitype/StillImage" />
      </cc:Work>
    </rdf:RDF>
  </metadata>
  <sodipodi:namedview
     pagecolor="#ffffff"
     bordercolor="#666666"
     borderopacity="1"
     objecttolerance="10"
     gridtolerance="10"
     guidetolerance="10"
     inkscape:pageopacity="0"
     inkscape:pageshadow="2"
     inkscape:window-width="1844"
     inkscape:window-height="1066"
     id="namedview12"
     showgrid="false"
     inkscape:zoom="9.0769231"
     inkscape:cx="13"
     inkscape:cy="13"
     inkscape:window-x="67"
     inkscape:window-y="27"
     inkscape:window-maximized="0"
     inkscape:current-layer="ic_send" />
  <defs
     id="defs4">
    <style
       id="style2">
            .cls-1{fill:#7c7687}.cls-2{fill:none}
        </style>
  </defs>
  <g
     id="Group_8811"
     data-name="Group 8811">
    <path
       id="Path_18865"
       d="M1.352 10.1l7.21 4.506 1.452-1.452-4.1-2.564 14.8-5.307-5.307 14.8-2.565-4.1-1.451 1.451 4.509 7.214 8.125-22.673z"
       class="cls-1"
       data-name="Path 18865" />
    <g
       id="Group_8810"
       data-name="Group 8810">
      <path
         id="Rectangle_4394"
         d="M0 0h8v2H0z"
         class="cls-1"
         data-name="Rectangle 4394"
         transform="rotate(-45 23.11 -3.563)" />
    </g>
  </g>
  <path
     id="Rectangle_4395"
     d="M0 0h26v26H0z"
     class="cls-2"
     data-name="Rectangle 4395" />
  <path
     style="fill:#668000;stroke-width:0.11016949"
     d="m 9.9907932,15.928912 -0.6556992,-0.662613 2.779496,-2.779496 2.779496,-2.7794964 0.68801,0.6880094 0.68801,0.68801 -2.752447,2.7541 c -1.513846,1.514755 -2.779159,2.754099 -2.811807,2.754099 -0.03265,0 -0.354424,-0.298176 -0.7150588,-0.662613 z"
     id="path821"
     inkscape:connector-curvature="0" />
  <path
     style="fill:#668000;stroke-width:0.11016949"
     d="m 13.636142,20.932668 -2.184284,-3.480891 0.693803,-0.700025 0.693803,-0.700026 1.267777,2.034933 c 0.697277,1.119214 1.300225,1.996706 1.339882,1.949984 C 15.55159,19.913566 20.751871,5.3354875 20.707232,5.2908473 20.67055,5.2541657 5.9691733,10.497493 5.8918209,10.574846 c -0.021594,0.02159 0.8550146,0.596135 1.9480184,1.276758 1.0930036,0.680624 1.9872793,1.271057 1.9872793,1.312074 0,0.04102 -0.2927214,0.364242 -0.650492,0.718279 L 8.5261346,14.525662 5.0420847,12.348503 C 3.1258572,11.151066 1.587705,10.140991 1.6239688,10.103892 1.6975214,10.028647 23.858711,2.0636638 23.899646,2.0977608 c 0.04727,0.039373 -7.956956,22.3141572 -8.018671,22.3149852 -0.0333,4.41e-4 -1.043478,-1.565588 -2.244833,-3.480078 z"
     id="path823"
     inkscape:connector-curvature="0" />
</svg>
