<?xml version="1.0" encoding="UTF-8" standalone="no"?>
<svg
   xmlns:dc="http://purl.org/dc/elements/1.1/"
   xmlns:cc="http://creativecommons.org/ns#"
   xmlns:rdf="http://www.w3.org/1999/02/22-rdf-syntax-ns#"
   xmlns:svg="http://www.w3.org/2000/svg"
   xmlns="http://www.w3.org/2000/svg"
   xmlns:sodipodi="http://sodipodi.sourceforge.net/DTD/sodipodi-0.dtd"
   xmlns:inkscape="http://www.inkscape.org/namespaces/inkscape"
   width="40"
   height="26"
   viewBox="0 0 40 26"
   version="1.1"
   id="svg22"
   sodipodi:docname="ic-switch-on.svg"
   inkscape:version="0.92.3 (2405546, 2018-03-11)">
  <metadata
     id="metadata26">
    <rdf:RDF>
      <cc:Work
         rdf:about="">
        <dc:format>image/svg+xml</dc:format>
        <dc:type
           rdf:resource="http://purl.org/dc/dcmitype/StillImage" />
      </cc:Work>
    </rdf:RDF>
  </metadata>
  <sodipodi:namedview
     pagecolor="#ffffff"
     bordercolor="#666666"
     borderopacity="1"
     objecttolerance="10"
     gridtolerance="10"
     guidetolerance="10"
     inkscape:pageopacity="0"
     inkscape:pageshadow="2"
     inkscape:window-width="1613"
     inkscape:window-height="993"
     id="namedview24"
     showgrid="false"
     inkscape:zoom="9.0769231"
     inkscape:cx="2.5932204"
     inkscape:cy="13"
     inkscape:window-x="67"
     inkscape:window-y="27"
     inkscape:window-maximized="0"
     inkscape:current-layer="svg22" />
  <defs
     id="defs15">
    <style
       type="text/css"
       id="style2">
            .cls-1,.cls-2{fill:#5c4b7d}.cls-1{fill-rule:evenodd;opacity:.5}.cls-3{filter:url(#switch_button)}
        </style>
    <filter
       id="switch_button"
       width="26"
       height="26"
       x="14"
       y="0"
       filterUnits="userSpaceOnUse">
      <feOffset
         dy="2"
         id="feOffset4" />
      <feGaussianBlur
         result="blur"
         stdDeviation="1"
         id="feGaussianBlur6" />
      <feFlood
         flood-opacity=".239"
         id="feFlood8" />
      <feComposite
         in2="blur"
         operator="in"
         id="feComposite10"
         result="result1" />
      <feComposite
         in="SourceGraphic"
         in2="result1"
         id="feComposite12" />
    </filter>
  </defs>
  <g
     id="switch_on"
     transform="translate(0 1)">
    <path
       id="switch_path"
       d="M37 10a6.957 6.957 0 0 1-7 7H10a6.957 6.957 0 0 1-7-7 6.957 6.957 0 0 1 7-7h20a6.957 6.957 0 0 1 7 7z"
       class="cls-1"
       transform="translate(-3 .223)"
       style="fill:#668000" />
    <g
       class="cls-3"
       transform="translate(0 -1)"
       id="g19">
      <path
         id="switch_button-2"
         d="M10 0A10 10 0 1 1 0 10 10 10 0 0 1 10 0z"
         class="cls-2"
         data-name="switch_button"
         transform="translate(17 1)" />
    </g>
  </g>
  <path
     style="fill:#445500;stroke-width:0.11016949"
     d="M 25.255085,20.793345 C 21.429029,20.093769 18.3422,17.244664 17.372483,13.517797 17.238997,13.004778 17.118361,12.106956 17.083824,11.369492 16.947741,8.463715 18.022226,5.8294526 20.166762,3.8112048 c 1.950255,-1.8354074 4.128718,-2.7076037 6.79595,-2.7209105 3.565047,-0.017786 6.737352,1.7621849 8.577203,4.8126419 0.915759,1.5183226 1.354635,3.1331232 1.365948,5.0258778 0.01008,1.685856 -0.250732,2.878085 -0.950515,4.345078 -1.919655,4.024276 -6.357615,6.313483 -10.700263,5.519453 z"
     id="path833"
     inkscape:connector-curvature="0" />
  <path
     style="fill:#666666;fill-opacity:1;stroke-width:0.11016949"
     d="m 25.344175,20.768706 c -3.919777,-0.745856 -6.926513,-3.502172 -7.933716,-7.272943 -0.311673,-1.166845 -0.34589,-3.6965375 -0.06526,-4.8249989 1.182295,-4.7542638 5.864896,-8.04760567 10.63634,-7.4806942 1.526036,0.1813135 2.240605,0.3886557 3.487108,1.0118326 1.967674,0.983719 3.416792,2.4498922 4.411436,4.4633517 0.58422,1.1826401 0.800292,1.9653395 0.920005,3.3326271 0.279321,3.1901987 -0.782342,6.0724447 -3.001362,8.1482297 -0.919611,0.86025 -1.500742,1.257244 -2.632008,1.798027 -1.75968,0.841187 -4.038893,1.163962 -5.82254,0.824568 z"
     id="path823"
     inkscape:connector-curvature="0" />
  <path
     style="fill:#999999;fill-opacity:1;stroke-width:0.11016949"
     d="M 5.4686441,18.015678 C 4.1518438,17.727281 3.1296729,17.15433 2.0722019,16.11189 1.2770993,15.32809 0.78276604,14.526948 0.38932502,13.384536 0.12621472,12.620557 0.0864791,12.336826 0.08860987,11.237288 0.09067938,10.169369 0.13684616,9.830526 0.38248948,9.0803445 0.95805979,7.3225838 2.2201897,5.8417286 3.8029881,5.0670782 5.408937,4.2810976 5.2286267,4.2966101 12.758562,4.2966101 h 6.74786 l -0.563907,0.7436441 c -0.766531,1.0108521 -1.318775,2.2179759 -1.838383,4.0184368 -0.592557,2.053232 -0.716001,2.909563 -0.643597,4.464652 0.06914,1.485046 0.331028,2.605739 0.893286,3.822675 l 0.384384,0.831948 -5.804272,-0.0088 c -4.3578319,-0.0066 -5.9689991,-0.04484 -6.4652889,-0.15353 z"
     id="path825"
     inkscape:connector-curvature="0" />
  <path
     style="fill:#999999;fill-opacity:1;stroke-width:0.11016949"
     d="M 6.570339,18.065485 C 4.6187817,17.953794 3.4697817,17.443191 2.1099059,16.083315 0.71424326,14.687652 0.12450348,13.251321 0.12673137,11.253226 0.12748361,10.578577 0.19643442,9.8231609 0.28907803,9.4745762 0.89389546,7.1988654 2.725529,5.3224635 5.0830509,4.5634303 5.629342,4.3875451 6.3640123,4.3638978 12.547034,4.3231815 c 3.771928,-0.024839 6.858051,-0.01268 6.858051,0.027019 0,0.039699 -0.217305,0.3785219 -0.4829,0.7529392 -0.702788,0.9907426 -1.191358,2.0350303 -1.710147,3.6553349 -0.650266,2.0309344 -0.821633,3.1207844 -0.744889,4.7372884 0.07223,1.521409 0.332141,2.650043 0.886672,3.850255 l 0.384384,0.831948 -4.922916,-0.01841 c -2.707604,-0.01013 -5.5178313,-0.05246 -6.24495,-0.09407 z"
     id="path827"
     inkscape:connector-curvature="0" />
  <path
     style="fill:#999999;fill-opacity:1;stroke-width:0.11016949"
     d="m 17.629337,17.875 c -0.06516,-0.166631 -0.200436,-0.472607 -0.300604,-0.679946 -0.100167,-0.207339 -0.186277,-0.405644 -0.191354,-0.440678 -0.0051,-0.03503 -0.06412,-0.195548 -0.131196,-0.356698 -0.55915,-1.343267 -0.661845,-4.369962 -0.206864,-6.096831 0.144934,-0.5500969 0.14522,-0.5488218 0.209975,0.936441 0.04087,0.937357 0.14311,1.772438 0.276516,2.258475 0.242159,0.882262 0.901534,2.515784 1.037729,2.57085 0.05027,0.02032 0.0667,0.07691 0.03652,0.125738 -0.06651,0.107617 0.319834,1.004272 0.677538,1.572479 l 0.260082,0.413136 h -0.77493 c -0.74321,0 -0.77978,-0.0124 -0.893412,-0.302966 z"
     id="path829"
     inkscape:connector-curvature="0" />
</svg>
