<?xml version="1.0" encoding="UTF-8" standalone="no"?>
<svg
   xmlns:dc="http://purl.org/dc/elements/1.1/"
   xmlns:cc="http://creativecommons.org/ns#"
   xmlns:rdf="http://www.w3.org/1999/02/22-rdf-syntax-ns#"
   xmlns:svg="http://www.w3.org/2000/svg"
   xmlns="http://www.w3.org/2000/svg"
   xmlns:sodipodi="http://sodipodi.sourceforge.net/DTD/sodipodi-0.dtd"
   xmlns:inkscape="http://www.inkscape.org/namespaces/inkscape"
   width="24px"
   height="24px"
   viewBox="0 0 24 24"
   version="1.1"
   id="svg10"
   sodipodi:docname="ic-update-liliac.svg"
   inkscape:version="0.92.3 (2405546, 2018-03-11)">
  <metadata
     id="metadata16">
    <rdf:RDF>
      <cc:Work
         rdf:about="">
        <dc:format>image/svg+xml</dc:format>
        <dc:type
           rdf:resource="http://purl.org/dc/dcmitype/StillImage" />
      </cc:Work>
    </rdf:RDF>
  </metadata>
  <defs
     id="defs14" />
  <sodipodi:namedview
     pagecolor="#ffffff"
     bordercolor="#666666"
     borderopacity="1"
     objecttolerance="10"
     gridtolerance="10"
     guidetolerance="10"
     inkscape:pageopacity="0"
     inkscape:pageshadow="2"
     inkscape:window-width="1613"
     inkscape:window-height="993"
     id="namedview12"
     showgrid="false"
     inkscape:zoom="9.8333333"
     inkscape:cx="-4.0677967"
     inkscape:cy="12"
     inkscape:window-x="67"
     inkscape:window-y="27"
     inkscape:window-maximized="0"
     inkscape:current-layer="svg10" />
  <!-- Generator: Sketch 55.2 (78181) - https://sketchapp.com -->
  <title
     id="title2">Artboard</title>
  <desc
     id="desc4">Created with Sketch.</desc>
  <g
     id="Artboard"
     stroke="none"
     stroke-width="1"
     fill="none"
     fill-rule="evenodd">
    <g
       id="ic-update-liliac"
       transform="translate(2.000000, 2.000000)">
      <polygon
         id="Rectangle_4642"
         points="0 0 20 0 20 20 0 20" />
      <path
         d="M13,8.5 L18,8.5 L18,3.5 L16,3.5 L16,4.715 C13.5656847,1.94871304 9.55671298,1.2030267 6.29053814,2.90899747 C3.0243633,4.61496824 1.34594778,8.33125994 2.22552783,11.9096078 C3.10510789,15.4879556 6.31513536,18.0026378 10,18.0000301 C12.1229023,18.0058338 14.1599129,17.1621506 15.657,15.657 L14.243,14.243 C12.4656191,16.0235516 9.76616433,16.5061689 7.48194074,15.4517642 C5.19771716,14.3973595 3.81387589,12.02988 4.01596945,9.52217092 C4.21806302,7.01446183 5.96316833,4.89914079 8.38676331,4.2241341 C10.8103583,3.5491274 13.3976904,4.45780116 14.867,6.5 L13,6.5 L13,8.5 Z"
         id="Path_18962"
         fill="#B088FF"
         fill-rule="nonzero" />
    </g>
  </g>
  <path
     style="fill:#88aa00;stroke-width:0.10169491"
     d="M 10.332203,19.774161 C 7.4195566,19.149024 5.1470658,16.993655 4.3112721,14.063541 4.1318744,13.434611 4.0853414,13.009002 4.0856593,12 4.086138,10.4808 4.2419357,9.7969262 4.8849478,8.4915254 5.9559834,6.3171797 7.8225341,4.8276508 10.183774,4.2630012 c 0.760867,-0.1819481 1.112412,-0.2094142 2.13148,-0.1665316 1.350285,0.05682 2.169535,0.264479 3.312278,0.8395772 0.70227,0.3534255 2.073958,1.385566 2.168377,1.6316177 0.130967,0.341294 0.265108,0.1055196 0.265108,-0.4659696 V 5.4915254 h 0.966102 0.966101 V 7.9830508 10.474576 H 17.501695 15.010169 V 9.5084746 8.5423729 h 0.915255 c 0.50339,0 0.915254,-0.029609 0.915254,-0.065797 0,-0.2036139 -0.817154,-1.0068609 -1.465317,-1.4403787 C 14.350672,6.3508429 13.568828,6.0933916 12.31461,6.0283303 10.50608,5.9345145 8.9961829,6.5097152 7.7426629,7.7700292 5.3830351,10.142446 5.3760341,13.855463 7.7267389,16.215448 c 1.2090332,1.213807 2.5872271,1.785638 4.2981101,1.783345 1.392371,-0.0019 2.594953,-0.407995 3.674667,-1.240987 l 0.54467,-0.4358021 0.679602,0.679817 0.679602,0.679816 -0.305085,0.25851 c -0.503233,0.426412 -1.593463,1.120174 -2.135593,1.358976 -1.329673,0.585704 -3.347874,0.777662 -4.830509,0.459447 z"
     id="path823"
     inkscape:connector-curvature="0" />
  <path
     style="fill:#000000;fill-opacity:1;stroke-width:0.10169491"
     d="M 10.128814,19.673109 C 9.7652542,19.595433 9.0101695,19.304146 8.4508474,19.025804 6.3406091,17.975664 4.9145738,16.181456 4.3193406,13.827628 4.1330495,13.090947 4.1095299,12.777848 4.1553696,11.644809 4.2141338,10.192311 4.3169771,9.7833593 4.9483581,8.4915255 5.9317779,6.479404 7.7443704,4.9841177 9.936396,4.3766764 c 0.563723,-0.1562157 1.048368,-0.2067504 1.970035,-0.205419 1.415507,0.00204 2.287049,0.1615428 3.237451,0.5924753 0.799509,0.3625148 2.111773,1.2483342 2.456881,1.6584713 0.3643,0.4329457 0.460254,0.3661258 0.460254,-0.320509 V 5.4915255 h 0.966102 0.966101 V 7.9830509 10.474576 H 17.501695 15.010169 V 9.5084746 8.5423729 h 0.915255 c 0.72023,0 0.915254,-0.030584 0.915254,-0.143533 0,-0.2768028 -1.345736,-1.3838542 -2.181338,-1.7944471 C 13.714899,6.1403186 13.077984,6 11.91596,6 10.255055,6 8.9688357,6.5374818 7.7765538,7.7297636 6.5492595,8.9570579 5.959322,10.364947 5.959322,12.066598 c 0,1.598668 0.6042628,2.991393 1.825049,4.206431 1.3205062,1.314289 2.633361,1.799371 4.607566,1.702432 1.435936,-0.07051 2.269847,-0.397271 3.690477,-1.44609 0.19589,-0.144622 0.244886,-0.116063 0.852295,0.496795 l 0.644458,0.650238 -0.699753,0.521213 c -0.945773,0.704461 -2.162898,1.281043 -3.11072,1.473626 -0.956705,0.194387 -2.734532,0.195299 -3.63988,0.0019 z"
     id="path818"
     inkscape:connector-curvature="0" />
</svg>
