<?xml version="1.0" encoding="UTF-8" standalone="no"?>
<svg
   xmlns:dc="http://purl.org/dc/elements/1.1/"
   xmlns:cc="http://creativecommons.org/ns#"
   xmlns:rdf="http://www.w3.org/1999/02/22-rdf-syntax-ns#"
   xmlns:svg="http://www.w3.org/2000/svg"
   xmlns="http://www.w3.org/2000/svg"
   xmlns:sodipodi="http://sodipodi.sourceforge.net/DTD/sodipodi-0.dtd"
   xmlns:inkscape="http://www.inkscape.org/namespaces/inkscape"
   id="ic_locked"
   width="24"
   height="24"
   viewBox="0 0 24 24"
   version="1.1"
   sodipodi:docname="ic-wallet-status-locked.svg"
   inkscape:version="0.92.3 (2405546, 2018-03-11)">
  <metadata
     id="metadata11">
    <rdf:RDF>
      <cc:Work
         rdf:about="">
        <dc:format>image/svg+xml</dc:format>
        <dc:type
           rdf:resource="http://purl.org/dc/dcmitype/StillImage" />
        <dc:title></dc:title>
      </cc:Work>
    </rdf:RDF>
  </metadata>
  <sodipodi:namedview
     pagecolor="#ffffff"
     bordercolor="#666666"
     borderopacity="1"
     objecttolerance="10"
     gridtolerance="10"
     guidetolerance="10"
     inkscape:pageopacity="0"
     inkscape:pageshadow="2"
     inkscape:window-width="927"
     inkscape:window-height="1145"
     id="namedview9"
     showgrid="false"
     inkscape:pagecheckerboard="false"
     inkscape:zoom="9.8333333"
     inkscape:cx="-0.45762712"
     inkscape:cy="12"
     inkscape:window-x="67"
     inkscape:window-y="27"
     inkscape:window-maximized="0"
     inkscape:current-layer="ic_locked" />
  <defs
     id="defs4">
    <style
       type="text/css"
       id="style2">
            .cls-1{fill:#ffffff}.cls-2{fill:none}
        </style>
  </defs>
  <path
     id="Path_18899"
     d="M18 10V8A6 6 0 0 0 6 8v2H4v12h16V10zM8 8a4 4 0 0 1 8 0v2H8zm10 12H6v-8h12z"
     class="cls-1"
     data-name="Path 18899" />
  <path
     id="Rectangle_4417"
     d="M0 0h24v24H0z"
     class="cls-2"
     data-name="Rectangle 4417" />
  <path
     style="fill:#000000;stroke-width:0.10169491"
     d="m 4.0779661,16.00678 v -6 H 5.0304545 5.9829429 L 6.0373881,8.4559322 C 6.1189315,6.1332105 6.5041452,5.1384233 7.8396661,3.8016776 9.0243549,2.6159024 10.325645,2.0745763 11.991433,2.0745763 c 1.04358,0 1.881451,0.2060057 2.803069,0.6891845 1.359392,0.7126921 2.31153,1.8352394 2.828303,3.3345007 0.244076,0.7081135 0.295577,1.0542318 0.35248,2.3688985 l 0.06664,1.53962 h 0.950224 0.950224 v 6 6 H 12.010169 4.0779661 Z m 13.9322029,0 v -4.067797 h -6 -5.9999995 v 4.067797 4.067796 h 5.9999995 6 z M 16.077377,9.0152542 C 16.077053,8.4699153 16.031879,7.7491525 15.976989,7.4135593 15.760053,6.0872123 14.863646,4.8945749 13.659464,4.3301752 13.144474,4.0887996 12.955838,4.0576271 12.010169,4.0576271 c -0.956346,0 -1.131482,0.029715 -1.677966,0.2846956 C 9.9966102,4.4989054 9.5025475,4.8421257 9.2342864,5.1050346 8.2458319,6.0737681 7.9423729,6.9435164 7.9423729,8.8078067 V 10.00678 h 4.0677961 4.067797 l -6.1e-4,-0.9915258 z"
     id="path3718"
     inkscape:connector-curvature="0" />
</svg>
