/* XPM */
static char * bitcoin128_xpm[] = {
"128 128 71 1",
" 	c None",
".	c #030303",
"+	c #000000",
"@	c #010101",
"#	c #FFFFFF",
"$	c #2B2B2B",
"%	c #121212",
"&	c #FEFEFE",
"*	c #040404",
"=	c #454545",
"-	c #222222",
";	c #080808",
">	c #3B3B3B",
",	c #282828",
"'	c #060606",
")	c #424242",
"!	c #1D1D1D",
"~	c #090909",
"{	c #0C0C0C",
"]	c #020202",
"^	c #4E4E4E",
"/	c #545454",
"(	c #0D0D0D",
"_	c #585858",
":	c #0E0E0E",
"<	c #191919",
"[	c #595959",
"}	c #111111",
"|	c #1B1B1B",
"1	c #070707",
"2	c #141414",
"3	c #171717",
"4	c #1A1A1A",
"5	c #181818",
"6	c #151515",
"7	c #EEEEEE",
"8	c #F7F7F7",
"9	c #F0F0F0",
"0	c #474747",
"a	c #101010",
"b	c #464646",
"c	c #5C5C5C",
"d	c #CACACA",
"e	c #E2E2E2",
"f	c #6E6E6E",
"g	c #8A8A8A",
"h	c #EFEFEF",
"i	c #2E2E2E",
"j	c #B8B8B8",
"k	c #FBFBFB",
"l	c #A5A5A5",
"m	c #F6F6F6",
"n	c #E6E6E6",
"o	c #AAAAAA",
"p	c #848484",
"q	c #727272",
"r	c #6B6B6B",
"s	c #6C6C6C",
"t	c #0A0A0A",
"u	c #202020",
"v	c #666666",
"w	c #050505",
"x	c #5F5F5F",
"y	c #696969",
"z	c #1F1F1F",
"A	c #242424",
"B	c #2C2C2C",
"C	c #1E1E1E",
"D	c #131313",
"E	c #313131",
"F	c #161616",
"                                                                                                                                ",
"                                                                                                                                ",
"                                                                                                                                ",
"                                                                                                                                ",
"                                                               .++                                                              ",
"                                                             +++@+##                                                            ",
"                                                          $@+@@@@+###                                                           ",
"                                                        %+++@@@@@+#&#                                                           ",
"                                                       +++@@@@@@@+###                                                           ",
"                                                      +++@@@@@@@@+###                                                           ",
"                                                     ++++@@@@@@@@+#&#                                                           ",
"                                                     +++@@@@@@@@@+#&#                                                           ",
"                                                     +++@@@@@@@@@+#&#                                                           ",
"                                                     +++@@@@@@@@@+#&#                                                           ",
"                                                     +++@@@@@@@@@+#&#                                                           ",
"                                        *+=          +++@@@@@@@@@+#&#                -;++>&                                     ",
"                                     ,'++@)##        +++@@@@@@@@@+#&#             !~++@@@{##                                    ",
"                                   ]]++@@@^#&        +++@@@@@@@@@+#&#           '+++@@@@@{###                                   ",
"                                   +++@@@@/#&#       +++@@@@@@@@@+#&#           +++@@@@@@(###                                   ",
"                                  @+++@@@@_###       +++@@@@@@@@@+#&#          ++++@@@@@@:###                                   ",
"                                  +++@@@@@_#&#       +++@@@@@@@@@+#&#          ++++@@@@@@:#&#                                   ",
"                                  +++@@@@@_###       +++@@@@@@@@@+#&#          +++@@@@@@@:#&#                                   ",
"                         <        +++@@@@@[###       +++@@@@@@@@@+#&#          +++@@@@@@@:#&#          ~}                       ",
"                       (++|       +++@@@@@[###       +++@@@@@@@@@+#&#          +++@@@@@@@:#&#       ++++@$##                    ",
"                     1+++@2##     +++@@@@@[###       @++@@@@@@@@@+#&#          ++++@@@@@@:###      +++@@@2##                    ",
"                     +++@@3#&#    +++@@@@@[###       @++@@@@@@@@@+#&#          ++++@@@@@@:###      +++@@@3###                   ",
"                    ++++@@<###    +++@@@@@[#&#       ++@@@@@@@@@@+#&#           +++@@@@@@(#&#      +++@@@3###                   ",
"                    ++++@@4###    +++@@@@@[###      @+@@@@@@@@@@@+#&#           (++++@@@@{#&#      ++@@@@5#&#                   ",
"                    ++++@@|###    +++@@@@@_#&#    +++@@@@@@@@@@@@+#&#             6']+@@@:##       ++@@@@5###                   ",
"                    ++++@@4###    +++@@@@@+7890a++@@@@@@@@@@@@@@@+#&#                b}.@c         ++@@@@5###                   ",
"                    ++++@@4###    @++@@@@@@+]+@@@@@@@@@@@@@@@@@@@+#&#                              ++@@@@5#&#                   ",
"                    ++++@@4#&#    @++@@@@@@@@@@@@@@@@@@@@@@@@@@@@+#&#                              +++@@@3###                   ",
"                    ++++@@4###    ++@@@@@@@@@@@@@@@@@@@@@@@@@@@@@+#&#                              +++@@@6##                    ",
"                    ++++@@<####  ++@@@@@@@@@@@@@@@@@@@@@@@@@@@@@@+#&#                               +++@@%##                    ",
"                    ++++@@.d#ef1+@@@@@@@@@@@@@@@@@@@@@@@@@@@@@@@@+#&#                                 5++g                      ",
"                    ++++@@@]1]+@@@@@@@@@@@@@@@@@@@@@@@@@@@@@@@@@@+#&#                                                           ",
"                    ++++@@@@@@@@@@@@@@@@@@@@@@@@@@@@@@@@@@@@@@@@@+#&#                                                           ",
"                    ++++@@@@@@@@@@@@@@@@@@@@@@@@@@@@@@@@@@@@@@@@@+#&#                                                           ",
"                    ++++@@@@@@@@@@@@@@@@@@@@@@@@@@@@@@@@@@@@@@@@@+#&#                                                           ",
"                    ++++@@@@@@@@@@@@@@@@@@@@@@@@@@@@@@@@@@@@@@@@@+#&#                                                           ",
"                    ++++@@@@@@@@@@@@@@@@@@@@@@@@@@@@@@@@@@@@@@@@@+#&#                                                           ",
"                    ++++@@@@@@@@@@@@@@@@@@@@@@@@@@@@@@@@@@@@@@@@@+#&#                                                           ",
"                    ++++@@@@@@@@@@@@@@@@@@@@@@@@@@@@@@@@@@@@@@@@@+#&#                                                           ",
"                    ++++@@@@@@@@@@@@@@@@@@@@@@@@@@@@@@@@@@@@@@@@@+#&#                                                           ",
"                    ++++@@@@@@@@@@@@@@@@@@@@@@@@@@@@@@@@@@@@@@@@@+#&#                                                           ",
"                    ++++@@@@@@@@@@@@@@@@@@@@@@@@@@@@@@@@@@@@@@@@@+#&#                                                           ",
"                    ++++@@@@@@@@@@@@@@@@@@@@@@@@@@@@@@@@@@@@@@@@@+#&#                                                           ",
"                    ++++@@@@@@@@@@@@@@@@@@@@@@@@@@@@@@@@@@@@@@@@@+#&#                                                           ",
"                    ++++@@@@@@@@@@@@@@@@@@@@@@@@@@@@@@@@@@@@@@@@@+#&#                                                           ",
"                    ++++@@@@@@@@@@@@@@@@@@@@@@@@@@@@@@@@@@@@@@@@@+#&#                                                           ",
"                    ++++@@@@@@@@@@@@@@@@@@@@@@@@@@@@@@@@@@@@@@@@@+#&#                                                           ",
"                    ++++@@@@@@@@@@@@@@@@@@@@@@@@@@@@@@@@@@@@@@@@@+#&#                                                           ",
"                    ++++@@@@@@@@@@@@@@@@@@@@@@@@@@@@@@@@@@@@@@@@@+#&#                                                           ",
"                    ++++@@@@@@@@@@@@@@@@@@@@@@@@@@@@@@@@@@@@@@@@@+#&#                                                           ",
"                    ++++@@@@@@@@@@@@@@@@@@@@@@@@@@@@@@@@@@@@@@@@@+#&#                                                           ",
"                    ++++@@@@@@@@@@@@@@@@@@@@@@@@@@@@@@@@@@@@@@@@@+#&#                    .'}[                                   ",
"                    ++++@@@@@@@@@@@@@@@@@@@@@@@@@@@@@@@@@@@@@@@@@+#&#                    ++++'h##                               ",
"                    ++++@@@@@@@@@@@@@@@@@@@@@@@@@@@@@@@@@@@@@@@@@+#&#                    .+++@+i#&                              ",
"                    ++++@@@@@@@@@@@@@@@@@@@@@@@@@@@@@@@@@@@@@@@@@+#&#                     +++@@+j##                             ",
"                    ++++@@@@@@@@@@@@@@@@@@@@@@@@@@@@@@@@@@@@@@@@@+#&#                      +++@@+k##                            ",
"                    ++++@@@@@@@@@@@@@@@@@@@@@@@@@@@@@@@@@@@@@@@@@+#&#                      @++@@@l#&                            ",
"                    ++++@@@@@@@@@@@@@@@@@@@@@@@@@@@@@@@@@@@@@@@@@+#&#                      ;++@@@~###                           ",
"                    ++++@@@@@@@@@@@@@@@@@@@@@@@@@@@@@@@@@@@@@@@@@+#&#                       +++@@]m&#                           ",
"                    ++++@@@@@@@@@@@@@@@@@@@@@@@@@@@@@@@@@@@@@@@@@+#&#                       +++@@+h#&                           ",
"                    ++++@@@@@@@@@@@@@@@@@@@@@@@@@@@@@@@@@@@@@@@@@+#&#                       +++@@+n##                           ",
"                    ++++@@@@@@@@@@@@@@@@@@@@@@@@@@@@@@@@@@@@@@@@@+#&#                       +++@@+o#&                           ",
"                    ++++@@@@@@@@@@@@@@@@@@@@@@@@@@@@@@@@@@@@@@@@@+#&#                       +++@@@p##                           ",
"                    ++++@@@@@@@@@@@@@@@@@@@@@@@@@@@@@@@@@@@@@@@@@+#&#                       +++@@@q#&                           ",
"                    ++++@@@@@@@@@@@@@@@@@@@@@@@@@@@@@@@@@@@@@@@@@+#&#                       +++@@@r##                           ",
"                    ++++@@@@@@@@@@@@@@@@@@@@@@@@@@@@@@@@@@@@@@@@@+#&#                       +++@@@s###                          ",
"                    ++++@@@@@@@@@@@@@@@@@@@@@@@@@@@@@@@@@@@@@@@@@+#&#                       +++@@@s###                          ",
"                    ++++@@@@@@@@@@@@@@@@@@@@@@@@@@@@@@@@@@@@@@@@@+#&#                       +++@@@s###                          ",
"                    ++++@@@@@@@@@@@@@@@@@@@@@@@@@@@@@@@@@@@@@@@@@+#&#                       +++@@@s###                          ",
"                    ++++@@@@@@@@@@@@@@@@@@@@@@@@@@@@@@@@@@@@@@@@@+#&#                       +++@@@s###                          ",
"                    ++++@@@@@@@@@@@@@@@@@@@@@@@@@@@@@@@@@@@@@@@@@+#&#                       +++@@@s###                          ",
"                    ++++@@@@@@@@@@@@@@@@@@@@@@@@@@@@@@@@@@@@@@@@@+#&#                       +++@@@s###                          ",
"                    ++++@@@@@@@@@@@@@@@@@@@@@@@@@@@@@@@@@@@@@@@@@+#&#                       +++@@@s###                          ",
"                    ++++@@@@@@@@@@@@@@@@@@@@@@@@@@@@@@@@@@@@@@@@@+#&#                       +++@@@s###                          ",
"                    ++++@@@@@@@@@@@@@@@@@@@@@@@@@@@@@@@@@@@@@@@@@+#&#                       +++@@@s###                          ",
"                    ++++@@@@@@@@@@@@@@@@@@@@@@@@@@@@@@@@@@@@@@@@@+#&#                       +++@@@s###                          ",
"                    ++++@@@@@@@@@@@@@@@@@@@@@@@@@@@@@@@@@@@@@@@@@+#&#                       +++@@@s###                          ",
"                    ++++@@@@@@@@@@@@@@@@@@@@@@@@@@@@@@@@@@@@@@@@@+#&#                       +++@@@s###                          ",
"                    ++++@@@@@@@@@@@@@@@@@@@@@@@@@@@@@@@@@@@@@@@@@+#&#                       +++@@@s###                          ",
"                    ++++@@@@@@@@@@@@@@@@@@@@@@@@@@@@@@@@@@@@@@@@@+#&#                       +++@@@s###                          ",
"                    ++++@@@@@@@@@@@@@@@@@@@@@@@@@@@@@@@@@@@@@@@@@+#&#                       +++@@@s###                          ",
"                    ++++@@@@@@@@@@@@@@@@@@@@@@@@@@@@@@@@@@@@@@@@@+#&#                       +++@@@s###                          ",
"                    ++++@@@@@@@@@@@@@@@@@@@@@@@@@@@@@@@@@@@@@@@@@+#&#                       +++@@@s###                          ",
"                    ++++@@@@@@@@@@@@@@@@@@@@@@@@@@@@@@@@@@@@@@@@@+#&#                       +++@@@s###                          ",
"                    ++++@@@@@@@@@@@@@@@@@@@@@@@@@@@@@@@@@@@@@@@@@+#&#                       +++@@@s###                          ",
"                    ++++@@@@@@@@@@@@@@@@@@@@@@@@@@@@@@@@@@@@@@@@@+#&#                       +++@@@s###                          ",
"                    ++++@@@@@@@@@@@@@@@@@@@@@@@@@@@@@@@@@@@@@@@@@+#&#                       +++@@@s###                          ",
"                    ++++@@@@@@@@@@@@@@@@@@@@@@@@@@@@@@@@@@@@@@@@@+#&#                       +++@@@s###                          ",
"                    ++++@@@@@@@@@@@@@@@@@@@@@@@@@@@@@@@@@@@@@@@@@+#&#                       +++@@@s###                          ",
"                    ++++@@@@@@@@@@@@@@@@@@@@@@@@@@@@@@@@@@@@@@@@@+#&#                       +++@@@s###                          ",
"                    ++++@@@@@@@@@@@@@@@@@@@@@@@@@@@@@@@@@@@@@@@@@+#&#                       +++@@@s###                          ",
"                    ++++@@@@@@@@@@@@@@@@@@@@@@@@@@@@@@@@@@@@@@@@@+#&#                       +++@@@s###                          ",
"                    ++++@@@@@@@@@@@@@@@@@@@@@@@@@@@@@@@@@@@@@@@@@+#&#                       +++@@@s###                          ",
"                    ++++@@@@@@@@@@@@@@@@@@@@@@@@@@@@@@@@@@@@@@@@@+#&#                       +++@@@s###                          ",
"                    ++++@@@@@@@@@@@@@@@@@@@@@@@@@@@@@@@@@@@@@@@@@+#&#                       +++@@@s###                          ",
"                    ++++@@@@@@@@@@@@@@@@@@@@@@@@@@@@@@@@@@@@@@@@@+#&#                       +++@@@s###                          ",
"                    ++++@@@@@@@@@@@@@@@@@@@@@@@@@@@@@@@@@@@@@@@@@+#&#                       +++@@@s###                          ",
"                     +++@@@@@@@@@@@@@@@@@@@@@@@@@@@@@@@@@@@@@@@@@+#&#                       +++@@@s###                          ",
"                     t+++@@@@@@@@@@@@@@@@@@@@@@@@@@@@@@@@@@@@@@@@+#&#                       +++@@@s###                          ",
"                       '++@@@@@@@@@@@@@@@@@@@@@@@@@@@@@@@@@@@@@@@+#&#                       +++@@@r###                          ",
"                         +++@@@@@@@@@@@@@@@@@@@@@@@@@@@@@@@@@@@@@+#&#                       +++@@@r#&                           ",
"                          u*+@@@@@@@@@@@@@@@@@@@@@@@@@@@@@@@@@@@@+#&#                       ++++@@v##                           ",
"                             *++@@@@@@@@@@@@@@@@@@@@@@@@@@@@@@@@@+#&#                       w+++@@x##                           ",
"                              <++@@@@@@@@@@@@@@@@@@@@@@@@@@@@@@@@+#&#                        1++++y#                            ",
"                                z]+@@@@@@@@@@@@@@@@@@@@@@@@@@@@@@+#&#                          A}B                              ",
"                                  C+++@@@@@@@@@@@@@@@@@@@@@@@@@@@+#&#                                                           ",
"                                    %++@@@@@@@@@@@@@@@@@@@@@@@@@@+#&#                                                           ",
"                                      D@+@@@@@@@@@@@@@@@@@@@@@@@@+#&#                                                           ",
"                                        t++@@@@@@@@@@@@@@@@@@@@@@+#&#                                                           ",
"                                          t++@@@@@@@@@@@@@@@@@@@@+#&#                                                           ",
"                                            .++@@@@@@@@@@@@@@@@@@+#&#                                                           ",
"                                              .++@@@@@@@@@@@@@@@@+#&#                                                           ",
"                                                +++@@@@@@@@@@@@@@+#&#                                                           ",
"                                                  +++@@@@@@@@@@@@+#&#                                                           ",
"                                                    @++@@@@@@@@@@+###                                                           ",
"                                                      +++@@@@@@@@+###                                                           ",
"                                                       A++@@@@@@@+#&#                                                           ",
"                                                         ,+++@@@@+###                                                           ",
"                                                           E++@@@+###                                                           ",
"                                                             F++@+##                                                            ",
"                                                               <++                                                              ",
"                                                                                                                                ",
"                                                                                                                                ",
"                                                                                                                                "};
