/* XPM */
static char * bitcoin16_xpm[] = {
"16 16 15 1",
" 	c None",
".	c #000000",
"+	c #ABABAB",
"@	c #8D8D8D",
"#	c #AAAAAA",
"$	c #A1A1A1",
"%	c #8A8A8A",
"&	c #696969",
"*	c #030303",
"=	c #2D2D2D",
"-	c #010101",
";	c #989898",
">	c #959595",
",	c #060606",
"'	c #080808",
"                ",
"       .+       ",
"    .@ .# .$    ",
"   %.&..# * .$  ",
"   =-.-.#       ",
"   ----.#       ",
"   ----.#       ",
"   ----.#  .    ",
"   ----.#  .;   ",
"   ----.#  .>   ",
"   ----.#  .>   ",
"   ----.#  .>   ",
"   .---.#  .>   ",
"    ,.-.#       ",
"      '.#       ",
"                "};
