/* XPM */
static char * bitcoin64_xpm[] = {
"64 64 45 1",
" 	c None",
".	c #070707",
"+	c #000000",
"@	c #FFFFFF",
"#	c #060606",
"$	c #010101",
"%	c #020202",
"&	c #141414",
"*	c #2E2E2E",
"=	c #474747",
"-	c #0B0B0B",
";	c #9D9D9D",
">	c #ACACAC",
",	c #ADADAD",
"'	c #0A0A0A",
")	c #8E8E8E",
"!	c #AEAEAE",
"~	c #040404",
"{	c #262626",
"]	c #7A7A7A",
"^	c #878787",
"/	c #030303",
"(	c #888888",
"_	c #989898",
":	c #6D6D6D",
"<	c #363636",
"[	c #1D1D1D",
"}	c #8C8C8C",
"|	c #747474",
"1	c #111111",
"2	c #303030",
"3	c #6B6B6B",
"4	c #707070",
"5	c #AAAAAA",
"6	c #1F1F1F",
"7	c #F1F1F1",
"8	c #C1C1C1",
"9	c #B9B9B9",
"0	c #B7B7B7",
"a	c #242424",
"b	c #222222",
"c	c #1A1A1A",
"d	c #1B1B1B",
"e	c #121212",
"f	c #0E0E0E",
"                                                                ",
"                                                                ",
"                               .+@                              ",
"                             #+$+@                              ",
"                           %+$$$+@@                             ",
"                          ++$$$$+@@                             ",
"                           +$$$$+@@                             ",
"                    &      +$$$$+@@        *=                   ",
"                  -++;@    +$$$$+@@      #+$+@                  ",
"                 $+$+>@    +$$$$+@@     +$$$+@                  ",
"                 +$$+,@    +$$$$+@@     +$$$+@                  ",
"            ')   +$$+!@    +$$$$+@@     +$$$+@    ~-{           ",
"           ++]@  +$$+!@    +$$$$+@@     ++$$+@   $+$+@          ",
"          +++^@  +$$+!@   '$$$$$+@@     %+$$+@   /+$+@          ",
"          +++(@  +$$+_@:<+$$$$$$+@@       [%-@   /$$+@          ",
"          +++(@  ++$$+++$$$$$$$$+@@              %+$+@          ",
"          +++}@  +$$$$$$$$$$$$$$+@@               +++@          ",
"          ++$*|1+$$$$$$$$$$$$$$$+@@                23           ",
"          ++$$$$$$$$$$$$$$$$$$$$+@@                             ",
"          ++$$$$$$$$$$$$$$$$$$$$+@@                             ",
"          ++$$$$$$$$$$$$$$$$$$$$+@@                             ",
"          ++$$$$$$$$$$$$$$$$$$$$+@@                             ",
"          ++$$$$$$$$$$$$$$$$$$$$+@@                             ",
"          ++$$$$$$$$$$$$$$$$$$$$+@@                             ",
"          ++$$$$$$$$$$$$$$$$$$$$+@@                             ",
"          ++$$$$$$$$$$$$$$$$$$$$+@@                             ",
"          ++$$$$$$$$$$$$$$$$$$$$+@@                             ",
"          ++$$$$$$$$$$$$$$$$$$$$+@@                             ",
"          ++$$$$$$$$$$$$$$$$$$$$+@@         $++4@               ",
"          ++$$$$$$$$$$$$$$$$$$$$+@@          /++5@              ",
"          ++$$$$$$$$$$$$$$$$$$$$+@@           +$6@              ",
"          ++$$$$$$$$$$$$$$$$$$$$+@@           +++@              ",
"          ++$$$$$$$$$$$$$$$$$$$$+@@           +$+7@             ",
"          ++$$$$$$$$$$$$$$$$$$$$+@@           +$+8@             ",
"          ++$$$$$$$$$$$$$$$$$$$$+@@           +$+9@             ",
"          ++$$$$$$$$$$$$$$$$$$$$+@@           +$+9@             ",
"          ++$$$$$$$$$$$$$$$$$$$$+@@           +$+9@             ",
"          ++$$$$$$$$$$$$$$$$$$$$+@@           +$+9@             ",
"          ++$$$$$$$$$$$$$$$$$$$$+@@           +$+9@             ",
"          ++$$$$$$$$$$$$$$$$$$$$+@@           +$+9@             ",
"          ++$$$$$$$$$$$$$$$$$$$$+@@           +$+9@             ",
"          ++$$$$$$$$$$$$$$$$$$$$+@@           +$+9@             ",
"          ++$$$$$$$$$$$$$$$$$$$$+@@           +$+9@             ",
"          ++$$$$$$$$$$$$$$$$$$$$+@@           +$+9@             ",
"          ++$$$$$$$$$$$$$$$$$$$$+@@           +$+9@             ",
"          ++$$$$$$$$$$$$$$$$$$$$+@@           +$+9@             ",
"          ++$$$$$$$$$$$$$$$$$$$$+@@           +$+9@             ",
"          ++$$$$$$$$$$$$$$$$$$$$+@@           +$+9@             ",
"          ++$$$$$$$$$$$$$$$$$$$$+@@           +$+9@             ",
"          ++$$$$$$$$$$$$$$$$$$$$+@@           +$+9@             ",
"          %+$$$$$$$$$$$$$$$$$$$$+@@           +$+9@             ",
"           ~+$$$$$$$$$$$$$$$$$$$+@@           +$+9@             ",
"             ~+$$$$$$$$$$$$$$$$$+@@           +++0@             ",
"               %+$$$$$$$$$$$$$$$+@@           #++!              ",
"                 ~+$$$$$$$$$$$$$+@@                             ",
"                  a%$$$$$$$$$$$$+@@                             ",
"                    b+$$$$$$$$$$+@@                             ",
"                      c+$$$$$$$$+@@                             ",
"                        b+$$$$$$+@@                             ",
"                          d+$$$$+@@                             ",
"                            e+$$+@@                             ",
"                              f++@                              ",
"                                b                               ",
"                                                                "};
